SplineFontDB: 3.0
FontName: DonegalOne-Regular
FullName: Donegal One
FamilyName: Donegal One
Weight: Book
Copyright: Copyright (c) 2012, Sorkin Type Co (www.sorkintype.com) with Reserved Font Name 'Donegal'
Version: 1.003
ItalicAngle: 0
UnderlinePosition: -241
UnderlineWidth: 41
Ascent: 1638
Descent: 410
sfntRevision: 0x000100c5
LayerCount: 2
Layer: 0 1 "Back"  1
Layer: 1 1 "Fore"  0
XUID: [1021 631 1661839179 14909557]
FSType: 0
OS2Version: 3
OS2_WeightWidthSlopeOnly: 0
OS2_UseTypoMetrics: 1
CreationTime: 1353741540
ModificationTime: 1353736012
PfmFamily: 17
TTFWeight: 400
TTFWidth: 5
LineGap: 0
VLineGap: 0
Panose: 2 2 6 2 6 3 0 6 7 4
OS2TypoAscent: 2000
OS2TypoAOffset: 0
OS2TypoDescent: -560
OS2TypoDOffset: 0
OS2TypoLinegap: 0
OS2WinAscent: 2000
OS2WinAOffset: 0
OS2WinDescent: 560
OS2WinDOffset: 0
HheadAscent: 2000
HheadAOffset: 0
HheadDescent: -560
HheadDOffset: 0
OS2SubXSize: 1434
OS2SubYSize: 1331
OS2SubXOff: 0
OS2SubYOff: 287
OS2SupXSize: 1434
OS2SupYSize: 1331
OS2SupXOff: 0
OS2SupYOff: 977
OS2StrikeYSize: 102
OS2StrikeYPos: 512
OS2Vendor: 'STC '
OS2CodePages: 20000093.00000000
OS2UnicodeRanges: a00000af.5000204a.00000000.00000000
Lookup: 1 0 0 "'aalt' Access All Alternates in Latin lookup 0"  {"'aalt' Access All Alternates in Latin lookup 0 subtable"  } ['aalt' ('DFLT' <'dflt' > 'latn' <'MOL ' 'ROM ' 'TRK ' 'dflt' > ) ]
Lookup: 6 0 0 "'ordn' Ordinals in Latin lookup 1"  {"'ordn' Ordinals in Latin lookup 1 contextual 0"  "'ordn' Ordinals in Latin lookup 1 contextual 1"  "'ordn' Ordinals in Latin lookup 1 contextual 2"  "'ordn' Ordinals in Latin lookup 1 contextual 3"  } ['ordn' ('latn' <'MOL ' 'ROM ' 'TRK ' 'dflt' > ) ]
Lookup: 1 0 0 "'sups' Superscript in Latin lookup 2"  {"'sups' Superscript in Latin lookup 2 subtable" ("superior" ) } ['sups' ('latn' <'MOL ' 'ROM ' 'TRK ' 'dflt' > ) ]
Lookup: 4 0 0 "'frac' Diagonal Fractions in Latin lookup 3"  {"'frac' Diagonal Fractions in Latin lookup 3 subtable"  } ['frac' ('latn' <'MOL ' 'ROM ' 'TRK ' 'dflt' > ) ]

StartChar: Thorn
Encoding: 222 222 4
Width: 1347
Flags: W
LayerCount: 2
Fore
SplineSet
103 82 m 1,0,1
 155 96 155 96 188.5 103.5 c 128,-1,2
 222 111 222 111 241.5 126 c 128,-1,3
 261 141 261 141 268 171.5 c 128,-1,4
 275 202 275 202 275 262 c 2,5,-1
 275 1120 l 1,6,-1
 274 1390 l 1,7,-1
 130 1446 l 1,8,-1
 130 1528 l 1,9,-1
 647 1528 l 1,10,-1
 647 1446 l 1,11,12
 598 1437 598 1437 567 1425 c 128,-1,13
 536 1413 536 1413 519 1391 c 128,-1,14
 502 1369 502 1369 495.5 1334 c 128,-1,15
 489 1299 489 1299 490 1246 c 1,16,-1
 490 1209 l 1,17,18
 533 1215 533 1215 572.5 1220 c 128,-1,19
 612 1225 612 1225 653.5 1229 c 128,-1,20
 695 1233 695 1233 742 1235.5 c 128,-1,21
 789 1238 789 1238 847 1238 c 0,22,23
 958 1238 958 1238 1041.5 1206 c 128,-1,24
 1125 1174 1125 1174 1181.5 1117.5 c 128,-1,25
 1238 1061 1238 1061 1266 984 c 128,-1,26
 1294 907 1294 907 1294 818 c 0,27,28
 1294 711 1294 711 1247.5 621.5 c 128,-1,29
 1201 532 1201 532 1123 467.5 c 128,-1,30
 1045 403 1045 403 944 367 c 128,-1,31
 843 331 843 331 735 331 c 0,32,33
 711 331 711 331 679.5 332.5 c 128,-1,34
 648 334 648 334 614 337.5 c 128,-1,35
 580 341 580 341 548 346.5 c 128,-1,36
 516 352 516 352 491 359 c 1,37,-1
 491 137 l 1,38,-1
 704 82 l 1,39,-1
 704 0 l 1,40,-1
 103 0 l 1,41,-1
 103 82 l 1,0,1
491 504 m 1,42,43
 533 488 533 488 586.5 477.5 c 128,-1,44
 640 467 640 467 699.5 464 c 128,-1,45
 759 461 759 461 821 466.5 c 128,-1,46
 883 472 883 472 943 489 c 1,47,48
 973 513 973 513 997.5 537 c 128,-1,49
 1022 561 1022 561 1039.5 592.5 c 128,-1,50
 1057 624 1057 624 1066 667.5 c 128,-1,51
 1075 711 1075 711 1075 774 c 0,52,53
 1075 847 1075 847 1054 911.5 c 128,-1,54
 1033 976 1033 976 989.5 1024 c 128,-1,55
 946 1072 946 1072 880 1099.5 c 128,-1,56
 814 1127 814 1127 724 1127 c 0,57,58
 667 1127 667 1127 623.5 1115.5 c 128,-1,59
 580 1104 580 1104 550.5 1083.5 c 128,-1,60
 521 1063 521 1063 506 1036.5 c 128,-1,61
 491 1010 491 1010 491 980 c 2,62,-1
 491 504 l 1,42,43
EndSplineSet
EndChar

StartChar: thorn
Encoding: 254 254 5
Width: 1219
Flags: W
LayerCount: 2
Fore
SplineSet
181 1286 m 2,0,1
 181 1340 181 1340 167 1369.5 c 128,-1,2
 153 1399 153 1399 130 1415 c 128,-1,3
 107 1431 107 1431 76.5 1438 c 128,-1,4
 46 1445 46 1445 13 1454 c 1,5,-1
 13 1526 l 1,6,7
 58 1537 58 1537 93 1545.5 c 128,-1,8
 128 1554 128 1554 157 1561.5 c 128,-1,9
 186 1569 186 1569 210 1576.5 c 128,-1,10
 234 1584 234 1584 259 1593.5 c 128,-1,11
 284 1603 284 1603 310.5 1615.5 c 128,-1,12
 337 1628 337 1628 371 1645 c 1,13,-1
 408 1624 l 1,14,15
 407 1613 407 1613 406 1579 c 128,-1,16
 405 1545 405 1545 403.5 1495 c 128,-1,17
 402 1445 402 1445 401 1384.5 c 128,-1,18
 400 1324 400 1324 399 1261 c 128,-1,19
 398 1198 398 1198 397.5 1136.5 c 128,-1,20
 397 1075 397 1075 396 1024 c 128,-1,21
 395 973 395 973 394.5 937 c 128,-1,22
 394 901 394 901 393 888 c 1,23,24
 421 907 421 907 460 933.5 c 128,-1,25
 499 960 499 960 543 984 c 128,-1,26
 587 1008 587 1008 632 1025 c 128,-1,27
 677 1042 677 1042 718 1042 c 0,28,29
 736 1042 736 1042 775 1038 c 128,-1,30
 814 1034 814 1034 861 1015 c 128,-1,31
 908 996 908 996 957.5 959 c 128,-1,32
 1007 922 1007 922 1047 856 c 0,33,34
 1063 830 1063 830 1078 799.5 c 128,-1,35
 1093 769 1093 769 1104 733.5 c 128,-1,36
 1115 698 1115 698 1122 655.5 c 128,-1,37
 1129 613 1129 613 1129 563 c 0,38,39
 1129 435 1129 435 1100 341.5 c 128,-1,40
 1071 248 1071 248 1025 183.5 c 128,-1,41
 979 119 979 119 921.5 79 c 128,-1,42
 864 39 864 39 808 17 c 128,-1,43
 752 -5 752 -5 702.5 -12.5 c 128,-1,44
 653 -20 653 -20 623 -20 c 0,45,46
 572 -20 572 -20 511.5 -15 c 128,-1,47
 451 -10 451 -10 391 -3 c 1,48,-1
 391 -348 l 1,49,-1
 616 -404 l 1,50,-1
 616 -486 l 1,51,-1
 30 -486 l 1,52,-1
 30 -404 l 1,53,54
 75 -393 75 -393 103.5 -381.5 c 128,-1,55
 132 -370 132 -370 148 -350.5 c 128,-1,56
 164 -331 164 -331 170.5 -299 c 128,-1,57
 177 -267 177 -267 179 -214 c 1,58,-1
 179 23 l 1,59,-1
 181 1286 l 2,0,1
393 168 m 1,60,61
 453 137 453 137 518.5 119.5 c 128,-1,62
 584 102 584 102 657 102 c 0,63,64
 728 102 728 102 777.5 133 c 128,-1,65
 827 164 827 164 857.5 217 c 128,-1,66
 888 270 888 270 901.5 340.5 c 128,-1,67
 915 411 915 411 915 489 c 0,68,69
 915 570 915 570 898.5 641.5 c 128,-1,70
 882 713 882 713 852.5 766.5 c 128,-1,71
 823 820 823 820 782.5 850.5 c 128,-1,72
 742 881 742 881 694 881 c 0,73,74
 658 881 658 881 613.5 869.5 c 128,-1,75
 569 858 569 858 527 842.5 c 128,-1,76
 485 827 485 827 449 810 c 128,-1,77
 413 793 413 793 393 781 c 1,78,-1
 393 168 l 1,60,61
EndSplineSet
EndChar

StartChar: Lslash
Encoding: 321 321 6
Width: 1362
Flags: W
LayerCount: 2
Fore
SplineSet
113 82 m 1,0,1
 165 96 165 96 197 108 c 128,-1,2
 229 120 229 120 246.5 141 c 128,-1,3
 264 162 264 162 269.5 197 c 128,-1,4
 275 232 275 232 275 292 c 2,5,-1
 275 629 l 1,6,-1
 85 533 l 1,7,-1
 41 636 l 1,8,-1
 275 754 l 1,9,-1
 275 1390 l 1,10,-1
 103 1446 l 1,11,-1
 103 1530 l 1,12,-1
 684 1530 l 1,13,-1
 684 1446 l 1,14,15
 631 1433 631 1433 594.5 1421 c 128,-1,16
 558 1409 558 1409 535 1388 c 128,-1,17
 512 1367 512 1367 501.5 1331.5 c 128,-1,18
 491 1296 491 1296 491 1236 c 2,19,-1
 491 864 l 1,20,-1
 865 1054 l 1,21,-1
 910 952 l 1,22,-1
 491 739 l 1,23,-1
 491 112 l 1,24,-1
 1071 143 l 1,25,-1
 1165 466 l 1,26,-1
 1278 466 l 1,27,-1
 1236 -18 l 1,28,-1
 1095 0 l 1,29,-1
 113 0 l 1,30,-1
 113 82 l 1,0,1
EndSplineSet
EndChar

StartChar: onequarter
Encoding: 188 188 8
Width: 1872
Flags: W
LayerCount: 2
Fore
SplineSet
924 267 m 1,0,1
 985 343 985 343 1053.5 428.5 c 128,-1,2
 1122 514 1122 514 1193 601 c 128,-1,3
 1264 688 1264 688 1335 772.5 c 128,-1,4
 1406 857 1406 857 1472 931 c 1,5,-1
 1559 891 l 1,6,-1
 1559 297 l 1,7,8
 1582 298 1582 298 1609.5 300 c 128,-1,9
 1637 302 1637 302 1665 305 c 128,-1,10
 1693 308 1693 308 1718 313 c 128,-1,11
 1743 318 1743 318 1760 325 c 1,12,-1
 1749 198 l 1,13,-1
 1559 198 l 1,14,-1
 1559 -51 l 1,15,-1
 1366 -81 l 1,16,-1
 1367 198 l 1,17,-1
 984 195 l 1,18,-1
 924 267 l 1,0,1
1366 298 m 1,19,-1
 1366 662 l 1,20,21
 1336 633 1336 633 1298 589.5 c 128,-1,22
 1260 546 1260 546 1221 496.5 c 128,-1,23
 1182 447 1182 447 1144.5 395.5 c 128,-1,24
 1107 344 1107 344 1077 298 c 1,25,-1
 1366 298 l 1,19,-1
138 751 m 1,26,27
 185 758 185 758 214 772.5 c 128,-1,28
 243 787 243 787 259.5 810 c 128,-1,29
 276 833 276 833 282 865 c 128,-1,30
 288 897 288 897 288 941 c 2,31,-1
 290 1273 l 2,32,33
 290 1296 290 1296 284 1310 c 128,-1,34
 278 1324 278 1324 260.5 1332 c 128,-1,35
 243 1340 243 1340 210.5 1342.5 c 128,-1,36
 178 1345 178 1345 124 1345 c 1,37,-1
 124 1428 l 1,38,39
 162 1436 162 1436 210 1454 c 1,40,41
 252 1468 252 1468 309 1493.5 c 128,-1,42
 366 1519 366 1519 436 1558 c 1,43,-1
 498 1523 l 1,44,45
 488 1483 488 1483 476.5 1418.5 c 128,-1,46
 465 1354 465 1354 467 1273 c 1,47,-1
 470 806 l 1,48,-1
 600 751 l 1,49,-1
 600 679 l 1,50,-1
 138 679 l 1,51,-1
 138 751 l 1,26,27
1272 1466 m 1,52,-1
 1376 1410 l 1,53,-1
 495 -80 l 1,54,-1
 383 -32 l 1,55,-1
 1272 1466 l 1,52,-1
EndSplineSet
Ligature2: "'frac' Diagonal Fractions in Latin lookup 3 subtable" one slash four
EndChar

StartChar: onesuperior
Encoding: 185 185 9
Width: 683
Flags: W
LayerCount: 2
Fore
SplineSet
133 751 m 1,0,1
 180 758 180 758 209 772.5 c 128,-1,2
 238 787 238 787 254.5 810 c 128,-1,3
 271 833 271 833 277 865 c 128,-1,4
 283 897 283 897 283 941 c 2,5,-1
 285 1273 l 2,6,7
 285 1296 285 1296 279 1310 c 128,-1,8
 273 1324 273 1324 255.5 1332 c 128,-1,9
 238 1340 238 1340 205.5 1342.5 c 128,-1,10
 173 1345 173 1345 119 1345 c 1,11,-1
 119 1428 l 1,12,13
 157 1436 157 1436 205 1454 c 1,14,15
 247 1468 247 1468 304 1493.5 c 128,-1,16
 361 1519 361 1519 431 1558 c 1,17,-1
 493 1523 l 1,18,19
 483 1483 483 1483 471.5 1418.5 c 128,-1,20
 460 1354 460 1354 462 1273 c 1,21,-1
 465 806 l 1,22,-1
 595 751 l 1,23,-1
 595 679 l 1,24,-1
 133 679 l 1,25,-1
 133 751 l 1,0,1
EndSplineSet
EndChar

StartChar: threequarters
Encoding: 190 190 10
Width: 1872
Flags: W
LayerCount: 2
Fore
SplineSet
924 267 m 1,0,1
 985 343 985 343 1053.5 428.5 c 128,-1,2
 1122 514 1122 514 1193 601 c 128,-1,3
 1264 688 1264 688 1335 772.5 c 128,-1,4
 1406 857 1406 857 1472 931 c 1,5,-1
 1559 891 l 1,6,-1
 1559 297 l 1,7,8
 1582 298 1582 298 1609.5 300 c 128,-1,9
 1637 302 1637 302 1665 305 c 128,-1,10
 1693 308 1693 308 1718 313 c 128,-1,11
 1743 318 1743 318 1760 325 c 1,12,-1
 1749 198 l 1,13,-1
 1559 198 l 1,14,-1
 1559 -51 l 1,15,-1
 1366 -81 l 1,16,-1
 1367 198 l 1,17,-1
 984 195 l 1,18,-1
 924 267 l 1,0,1
1366 298 m 1,19,-1
 1366 662 l 1,20,21
 1336 633 1336 633 1298 589.5 c 128,-1,22
 1260 546 1260 546 1221 496.5 c 128,-1,23
 1182 447 1182 447 1144.5 395.5 c 128,-1,24
 1107 344 1107 344 1077 298 c 1,25,-1
 1366 298 l 1,19,-1
134 683 m 1,26,27
 242 679 242 679 318.5 692.5 c 128,-1,28
 395 706 395 706 443.5 731.5 c 128,-1,29
 492 757 492 757 514.5 792 c 128,-1,30
 537 827 537 827 537 867 c 0,31,32
 537 918 537 918 523.5 952.5 c 128,-1,33
 510 987 510 987 484.5 1008.5 c 128,-1,34
 459 1030 459 1030 422 1039.5 c 128,-1,35
 385 1049 385 1049 337 1049 c 0,36,37
 319 1049 319 1049 291.5 1045.5 c 128,-1,38
 264 1042 264 1042 244 1039 c 1,39,-1
 258 1139 l 1,40,41
 301 1146 301 1146 345 1164 c 128,-1,42
 389 1182 389 1182 424.5 1210 c 128,-1,43
 460 1238 460 1238 482.5 1276.5 c 128,-1,44
 505 1315 505 1315 505 1363 c 0,45,46
 505 1387 505 1387 494.5 1403 c 128,-1,47
 484 1419 484 1419 467.5 1429.5 c 128,-1,48
 451 1440 451 1440 431.5 1444.5 c 128,-1,49
 412 1449 412 1449 393 1449 c 0,50,51
 373 1449 373 1449 357 1448 c 128,-1,52
 341 1447 341 1447 326 1444 c 128,-1,53
 311 1441 311 1441 295 1436.5 c 128,-1,54
 279 1432 279 1432 259 1425 c 1,55,56
 243 1418 243 1418 229 1391 c 128,-1,57
 215 1364 215 1364 195 1307 c 1,58,-1
 104 1307 l 1,59,-1
 104 1505 l 1,60,61
 131 1515 131 1515 166.5 1524 c 128,-1,62
 202 1533 202 1533 243 1539.5 c 128,-1,63
 284 1546 284 1546 328.5 1549.5 c 128,-1,64
 373 1553 373 1553 417 1553 c 0,65,66
 467 1553 467 1553 517 1542 c 128,-1,67
 567 1531 567 1531 606.5 1508.5 c 128,-1,68
 646 1486 646 1486 670.5 1453 c 128,-1,69
 695 1420 695 1420 695 1375 c 0,70,71
 695 1332 695 1332 678 1293 c 128,-1,72
 661 1254 661 1254 634.5 1222 c 128,-1,73
 608 1190 608 1190 577 1167 c 128,-1,74
 546 1144 546 1144 519 1132 c 1,75,-1
 519 1119 l 1,76,77
 580 1110 580 1110 623 1085.5 c 128,-1,78
 666 1061 666 1061 693 1029 c 128,-1,79
 720 997 720 997 732.5 962 c 128,-1,80
 745 927 745 927 745 896 c 0,81,82
 745 823 745 823 701 760.5 c 128,-1,83
 657 698 657 698 580 655 c 128,-1,84
 503 612 503 612 399 592 c 128,-1,85
 295 572 295 572 175 583 c 0,86,87
 164 584 164 584 154 586 c 128,-1,88
 144 588 144 588 134 589 c 1,89,-1
 134 683 l 1,26,27
1272 1466 m 1,90,-1
 1376 1410 l 1,91,-1
 495 -80 l 1,92,-1
 383 -32 l 1,93,-1
 1272 1466 l 1,90,-1
EndSplineSet
Ligature2: "'frac' Diagonal Fractions in Latin lookup 3 subtable" three slash four
EndChar

StartChar: threesuperior
Encoding: 179 179 11
Width: 853
Flags: W
LayerCount: 2
Fore
SplineSet
169 683 m 1,0,1
 277 679 277 679 353.5 692.5 c 128,-1,2
 430 706 430 706 478.5 731.5 c 128,-1,3
 527 757 527 757 549.5 792 c 128,-1,4
 572 827 572 827 572 867 c 0,5,6
 572 918 572 918 558.5 952.5 c 128,-1,7
 545 987 545 987 519.5 1008.5 c 128,-1,8
 494 1030 494 1030 457 1039.5 c 128,-1,9
 420 1049 420 1049 372 1049 c 0,10,11
 354 1049 354 1049 326.5 1045.5 c 128,-1,12
 299 1042 299 1042 279 1039 c 1,13,-1
 293 1139 l 1,14,15
 336 1146 336 1146 380 1164 c 128,-1,16
 424 1182 424 1182 459.5 1210 c 128,-1,17
 495 1238 495 1238 517.5 1276.5 c 128,-1,18
 540 1315 540 1315 540 1363 c 0,19,20
 540 1387 540 1387 529.5 1403 c 128,-1,21
 519 1419 519 1419 502.5 1429.5 c 128,-1,22
 486 1440 486 1440 466.5 1444.5 c 128,-1,23
 447 1449 447 1449 428 1449 c 0,24,25
 408 1449 408 1449 392 1448 c 128,-1,26
 376 1447 376 1447 361 1444 c 128,-1,27
 346 1441 346 1441 330 1436.5 c 128,-1,28
 314 1432 314 1432 294 1425 c 1,29,30
 278 1418 278 1418 264 1391 c 128,-1,31
 250 1364 250 1364 230 1307 c 1,32,-1
 139 1307 l 1,33,-1
 139 1505 l 1,34,35
 166 1515 166 1515 201.5 1524 c 128,-1,36
 237 1533 237 1533 278 1539.5 c 128,-1,37
 319 1546 319 1546 363.5 1549.5 c 128,-1,38
 408 1553 408 1553 452 1553 c 0,39,40
 502 1553 502 1553 552 1542 c 128,-1,41
 602 1531 602 1531 641.5 1508.5 c 128,-1,42
 681 1486 681 1486 705.5 1453 c 128,-1,43
 730 1420 730 1420 730 1375 c 0,44,45
 730 1332 730 1332 713 1293 c 128,-1,46
 696 1254 696 1254 669.5 1222 c 128,-1,47
 643 1190 643 1190 612 1167 c 128,-1,48
 581 1144 581 1144 554 1132 c 1,49,-1
 554 1119 l 1,50,51
 615 1110 615 1110 658 1085.5 c 128,-1,52
 701 1061 701 1061 728 1029 c 128,-1,53
 755 997 755 997 767.5 962 c 128,-1,54
 780 927 780 927 780 896 c 0,55,56
 780 823 780 823 736 760.5 c 128,-1,57
 692 698 692 698 615 655 c 128,-1,58
 538 612 538 612 434 592 c 128,-1,59
 330 572 330 572 210 583 c 0,60,61
 199 584 199 584 189 586 c 128,-1,62
 179 588 179 588 169 589 c 1,63,-1
 169 683 l 1,0,1
EndSplineSet
EndChar

StartChar: twosuperior
Encoding: 178 178 12
Width: 849
Flags: W
LayerCount: 2
Fore
SplineSet
107 678 m 1,0,1
 101 694 101 694 97 708 c 0,2,3
 93 720 93 720 89.5 732.5 c 128,-1,4
 86 745 86 745 86 753 c 1,5,6
 123 785 123 785 171.5 826 c 128,-1,7
 220 867 220 867 272 913.5 c 128,-1,8
 324 960 324 960 374 1010.5 c 128,-1,9
 424 1061 424 1061 463.5 1112.5 c 128,-1,10
 503 1164 503 1164 527.5 1214.5 c 128,-1,11
 552 1265 552 1265 552 1313 c 0,12,13
 552 1358 552 1358 539 1384.5 c 128,-1,14
 526 1411 526 1411 510 1425 c 0,15,16
 492 1441 492 1441 469 1446 c 1,17,18
 441 1449 441 1449 412 1448 c 0,19,20
 387 1447 387 1447 357.5 1443.5 c 128,-1,21
 328 1440 328 1440 301 1429 c 0,22,23
 294 1426 294 1426 285 1410.5 c 128,-1,24
 276 1395 276 1395 266 1372 c 128,-1,25
 256 1349 256 1349 246 1320.5 c 128,-1,26
 236 1292 236 1292 227 1263 c 1,27,-1
 128 1263 l 1,28,-1
 122 1504 l 1,29,30
 178 1526 178 1526 246.5 1540.5 c 128,-1,31
 315 1555 315 1555 385 1559 c 128,-1,32
 455 1563 455 1563 520.5 1553 c 128,-1,33
 586 1543 586 1543 637 1515 c 128,-1,34
 688 1487 688 1487 718.5 1439.5 c 128,-1,35
 749 1392 749 1392 749 1320 c 0,36,37
 749 1261 749 1261 724 1205 c 128,-1,38
 699 1149 699 1149 659 1097 c 128,-1,39
 619 1045 619 1045 569 998 c 128,-1,40
 519 951 519 951 469 911.5 c 128,-1,41
 419 872 419 872 374 841 c 128,-1,42
 329 810 329 810 299 790 c 1,43,-1
 641 801 l 2,44,45
 642 802 642 802 646.5 805.5 c 128,-1,46
 651 809 651 809 661 822 c 128,-1,47
 671 835 671 835 685.5 860.5 c 128,-1,48
 700 886 700 886 720 932 c 1,49,-1
 829 933 l 1,50,-1
 818 662 l 1,51,-1
 675 678 l 1,52,-1
 107 678 l 1,53,-1
 107 678 l 1,0,1
EndSplineSet
EndChar

StartChar: brokenbar
Encoding: 166 166 13
Width: 513
Flags: W
LayerCount: 2
Fore
SplineSet
183 1732 m 1,0,-1
 329 1740 l 1,1,-1
 329 851 l 1,2,-1
 183 851 l 1,3,-1
 183 1732 l 1,0,-1
183 503 m 1,4,-1
 329 511 l 1,5,-1
 329 -360 l 1,6,-1
 183 -360 l 1,7,-1
 183 503 l 1,4,-1
EndSplineSet
EndChar

StartChar: minus
Encoding: 8722 8722 14
Width: 1193
Flags: W
LayerCount: 2
Fore
SplineSet
191 702 m 1,0,-1
 1001 702 l 1,1,-1
 1001 539 l 1,2,-1
 191 539 l 1,3,-1
 191 702 l 1,0,-1
EndSplineSet
EndChar

StartChar: multiply
Encoding: 215 215 15
Width: 1196
Flags: W
LayerCount: 2
Fore
SplineSet
212 344 m 1,0,-1
 467 599 l 1,1,-1
 212 854 l 1,2,-1
 328 969 l 1,3,-1
 582 714 l 1,4,-1
 837 969 l 1,5,-1
 953 854 l 1,6,-1
 698 599 l 1,7,-1
 953 344 l 1,8,-1
 837 229 l 1,9,-1
 582 483 l 1,10,-1
 328 229 l 1,11,-1
 212 344 l 1,0,-1
EndSplineSet
EndChar

StartChar: lslash
Encoding: 322 322 16
Width: 680
Flags: W
LayerCount: 2
Fore
SplineSet
98 85 m 1,0,1
 150 99 150 99 182 111 c 128,-1,2
 214 123 214 123 231 144 c 128,-1,3
 248 165 248 165 253.5 200 c 128,-1,4
 259 235 259 235 259 295 c 2,5,-1
 259 653 l 1,6,-1
 126 578 l 1,7,-1
 70 678 l 1,8,-1
 259 784 l 1,9,-1
 259 1290 l 2,10,11
 259 1344 259 1344 245 1373.5 c 128,-1,12
 231 1403 231 1403 208 1419 c 128,-1,13
 185 1435 185 1435 155 1442 c 128,-1,14
 125 1449 125 1449 92 1457 c 1,15,-1
 92 1530 l 1,16,17
 137 1539 137 1539 171 1546 c 128,-1,18
 205 1553 205 1553 231.5 1560 c 128,-1,19
 258 1567 258 1567 281 1574.5 c 128,-1,20
 304 1582 304 1582 328 1592 c 128,-1,21
 352 1602 352 1602 380 1615.5 c 128,-1,22
 408 1629 408 1629 445 1648 c 1,23,-1
 482 1627 l 1,24,25
 475 1557 475 1557 472 1469.5 c 128,-1,26
 469 1382 469 1382 468 1286.5 c 128,-1,27
 467 1191 467 1191 467.5 1093 c 128,-1,28
 468 995 468 995 468 903 c 2,29,-1
 468 902 l 1,30,-1
 619 988 l 1,31,-1
 672 885 l 1,32,-1
 467 770 l 1,33,34
 467 680 467 680 466.5 599 c 128,-1,35
 466 518 466 518 466 441.5 c 128,-1,36
 466 365 466 365 466 290.5 c 128,-1,37
 466 216 466 216 468 140 c 1,38,-1
 641 85 l 1,39,-1
 641 3 l 1,40,-1
 98 3 l 1,41,-1
 98 85 l 1,0,1
EndSplineSet
EndChar

StartChar: exclam
Encoding: 33 33 17
Width: 683
Flags: W
LayerCount: 2
Fore
SplineSet
295 518 m 1,0,1
 284 710 284 710 274.5 861 c 128,-1,2
 265 1012 265 1012 251.5 1134 c 128,-1,3
 238 1256 238 1256 217 1356 c 128,-1,4
 196 1456 196 1456 161 1546 c 1,5,-1
 161 1563 l 1,6,7
 200 1575 200 1575 238.5 1583 c 128,-1,8
 277 1591 277 1591 316 1598 c 128,-1,9
 355 1605 355 1605 393.5 1613.5 c 128,-1,10
 432 1622 432 1622 471 1636 c 1,11,-1
 475 1632 l 1,12,13
 475 1550 475 1550 470.5 1471 c 128,-1,14
 466 1392 466 1392 459.5 1311 c 128,-1,15
 453 1230 453 1230 445 1144 c 128,-1,16
 437 1058 437 1058 429.5 961.5 c 128,-1,17
 422 865 422 865 415.5 755.5 c 128,-1,18
 409 646 409 646 407 518 c 1,19,-1
 295 518 l 1,0,1
207 115 m 256,20,21
 207 144 207 144 218 170.5 c 128,-1,22
 229 197 229 197 249 217.5 c 128,-1,23
 269 238 269 238 296 250 c 128,-1,24
 323 262 323 262 355 262 c 0,25,26
 388 262 388 262 415 249.5 c 128,-1,27
 442 237 442 237 461.5 216.5 c 128,-1,28
 481 196 481 196 492 169.5 c 128,-1,29
 503 143 503 143 503 115 c 0,30,31
 503 86 503 86 492 60 c 128,-1,32
 481 34 481 34 461.5 14 c 128,-1,33
 442 -6 442 -6 414.5 -18 c 128,-1,34
 387 -30 387 -30 355 -30 c 256,35,36
 323 -30 323 -30 296 -18 c 128,-1,37
 269 -6 269 -6 249 14 c 128,-1,38
 229 34 229 34 218 60 c 128,-1,39
 207 86 207 86 207 115 c 256,20,21
EndSplineSet
EndChar

StartChar: numbersign
Encoding: 35 35 19
Width: 1364
Flags: W
LayerCount: 2
Fore
SplineSet
367 529 m 1,0,-1
 50 529 l 1,1,-1
 50 657 l 1,2,-1
 383 657 l 1,3,-1
 427 957 l 1,4,-1
 102 957 l 1,5,-1
 102 1087 l 1,6,-1
 441 1087 l 1,7,-1
 509 1582 l 1,8,-1
 641 1582 l 1,9,-1
 572 1087 l 1,10,-1
 867 1087 l 1,11,-1
 938 1582 l 1,12,-1
 1064 1582 l 1,13,-1
 996 1087 l 1,14,-1
 1314 1087 l 1,15,-1
 1314 957 l 1,16,-1
 984 957 l 1,17,-1
 938 657 l 1,18,-1
 1258 657 l 1,19,-1
 1258 529 l 1,20,-1
 923 529 l 1,21,-1
 849 0 l 1,22,-1
 721 0 l 1,23,-1
 795 529 l 1,24,-1
 496 529 l 1,25,-1
 421 0 l 1,26,-1
 291 0 l 1,27,-1
 367 529 l 1,0,-1
813 657 m 1,28,-1
 854 957 l 1,29,-1
 554 957 l 1,30,-1
 509 657 l 1,31,-1
 813 657 l 1,28,-1
EndSplineSet
EndChar

StartChar: dollar
Encoding: 36 36 20
Width: 1328
Flags: W
LayerCount: 2
Fore
SplineSet
193 499 m 1,0,-1
 307 497 l 1,1,-1
 349 249 l 1,2,3
 355 227 355 227 361 213.5 c 128,-1,4
 367 200 367 200 373.5 192 c 128,-1,5
 380 184 380 184 386 179.5 c 128,-1,6
 392 175 392 175 397 172 c 0,7,8
 414 163 414 163 439.5 155 c 128,-1,9
 465 147 465 147 497 139.5 c 128,-1,10
 529 132 529 132 565.5 126 c 128,-1,11
 602 120 602 120 640 116 c 1,12,-1
 644 670 l 1,13,14
 587 690 587 690 530 711.5 c 128,-1,15
 473 733 473 733 420.5 760 c 128,-1,16
 368 787 368 787 322 821.5 c 128,-1,17
 276 856 276 856 242.5 902 c 128,-1,18
 209 948 209 948 189.5 1007 c 128,-1,19
 170 1066 170 1066 170 1143 c 0,20,21
 170 1239 170 1239 210.5 1311.5 c 128,-1,22
 251 1384 251 1384 317.5 1434.5 c 128,-1,23
 384 1485 384 1485 470.5 1514.5 c 128,-1,24
 557 1544 557 1544 650 1555 c 1,25,-1
 650 1768 l 1,26,-1
 759 1768 l 1,27,-1
 759 1562 l 1,28,29
 817 1562 817 1562 862 1557.5 c 128,-1,30
 907 1553 907 1553 949 1545.5 c 128,-1,31
 991 1538 991 1538 1036 1529 c 128,-1,32
 1081 1520 1081 1520 1138 1512 c 1,33,-1
 1109 1116 l 1,34,-1
 1002 1116 l 1,35,-1
 962 1292 l 2,36,37
 957 1315 957 1315 950.5 1330.5 c 128,-1,38
 944 1346 944 1346 935 1357.5 c 128,-1,39
 926 1369 926 1369 915 1376.5 c 128,-1,40
 904 1384 904 1384 890 1391 c 1,41,42
 836 1412 836 1412 759 1420 c 1,43,-1
 755 874 l 1,44,45
 810 855 810 855 866 835 c 128,-1,46
 922 815 922 815 973 790 c 128,-1,47
 1024 765 1024 765 1068 733 c 128,-1,48
 1112 701 1112 701 1144.5 658 c 128,-1,49
 1177 615 1177 615 1195.5 559 c 128,-1,50
 1214 503 1214 503 1214 431 c 0,51,52
 1214 324 1214 324 1178.5 246.5 c 128,-1,53
 1143 169 1143 169 1080.5 115.5 c 128,-1,54
 1018 62 1018 62 933 31 c 128,-1,55
 848 0 848 0 749 -13 c 1,56,-1
 749 -219 l 1,57,-1
 640 -219 l 1,58,-1
 640 -22 l 1,59,60
 626 -23 626 -23 611 -23.5 c 128,-1,61
 596 -24 596 -24 582 -24 c 0,62,63
 531 -24 531 -24 474.5 -14 c 128,-1,64
 418 -4 418 -4 361.5 13 c 128,-1,65
 305 30 305 30 251 52.5 c 128,-1,66
 197 75 197 75 149 100 c 1,67,-1
 193 499 l 1,0,-1
650 1425 m 1,68,69
 593 1424 593 1424 543.5 1413.5 c 128,-1,70
 494 1403 494 1403 461 1383 c 1,71,72
 450 1369 450 1369 435.5 1356.5 c 128,-1,73
 421 1344 421 1344 408 1325 c 128,-1,74
 395 1306 395 1306 386 1278.5 c 128,-1,75
 377 1251 377 1251 377 1209 c 0,76,77
 377 1147 377 1147 398 1101 c 128,-1,78
 419 1055 419 1055 455.5 1020.5 c 128,-1,79
 492 986 492 986 541 960 c 128,-1,80
 590 934 590 934 646 913 c 1,81,-1
 650 1425 l 1,68,69
749 112 m 1,82,83
 789 113 789 113 824 124.5 c 128,-1,84
 859 136 859 136 888 152.5 c 128,-1,85
 917 169 917 169 939.5 188 c 128,-1,86
 962 207 962 207 978 224 c 1,87,88
 991 241 991 241 1001.5 268 c 128,-1,89
 1012 295 1012 295 1012 348 c 0,90,91
 1012 405 1012 405 992 448.5 c 128,-1,92
 972 492 972 492 936.5 525 c 128,-1,93
 901 558 901 558 854 583.5 c 128,-1,94
 807 609 807 609 753 630 c 1,95,-1
 749 112 l 1,82,83
EndSplineSet
EndChar

StartChar: percent
Encoding: 37 37 21
Width: 1990
Flags: W
LayerCount: 2
Fore
SplineSet
1209 1576 m 1,0,-1
 1358 1576 l 1,1,-1
 779 -166 l 1,2,-1
 636 -166 l 1,3,-1
 1209 1576 l 1,0,-1
485 579 m 0,4,5
 384 579 384 579 314.5 614.5 c 128,-1,6
 245 650 245 650 202 707 c 128,-1,7
 159 764 159 764 139.5 835.5 c 128,-1,8
 120 907 120 907 120 980 c 0,9,10
 120 1057 120 1057 142.5 1135 c 128,-1,11
 165 1213 165 1213 212 1276 c 128,-1,12
 259 1339 259 1339 331 1378.5 c 128,-1,13
 403 1418 403 1418 501 1418 c 0,14,15
 597 1418 597 1418 666.5 1382 c 128,-1,16
 736 1346 736 1346 780.5 1288 c 128,-1,17
 825 1230 825 1230 846 1157.5 c 128,-1,18
 867 1085 867 1085 867 1012 c 0,19,20
 867 935 867 935 844.5 858 c 128,-1,21
 822 781 822 781 775.5 719 c 128,-1,22
 729 657 729 657 656.5 618 c 128,-1,23
 584 579 584 579 485 579 c 0,4,5
525 677 m 0,24,25
 539 677 539 677 569 684 c 128,-1,26
 599 691 599 691 626 708 c 1,27,28
 645 736 645 736 657.5 767.5 c 128,-1,29
 670 799 670 799 677 832 c 128,-1,30
 684 865 684 865 687 898 c 128,-1,31
 690 931 690 931 690 961 c 0,32,33
 690 1029 690 1029 681.5 1093.5 c 128,-1,34
 673 1158 673 1158 649.5 1208 c 128,-1,35
 626 1258 626 1258 585 1288 c 128,-1,36
 544 1318 544 1318 479 1318 c 0,37,38
 476 1318 476 1318 460 1317 c 128,-1,39
 444 1316 444 1316 424.5 1312.5 c 128,-1,40
 405 1309 405 1309 385 1302.5 c 128,-1,41
 365 1296 365 1296 353 1286 c 1,42,43
 333 1258 333 1258 321 1227 c 128,-1,44
 309 1196 309 1196 302.5 1163.5 c 128,-1,45
 296 1131 296 1131 293.5 1098.5 c 128,-1,46
 291 1066 291 1066 291 1036 c 0,47,48
 291 968 291 968 302 903 c 128,-1,49
 313 838 313 838 340 788 c 128,-1,50
 367 738 367 738 412 707.5 c 128,-1,51
 457 677 457 677 525 677 c 0,24,25
1123 381 m 0,52,53
 1123 458 1123 458 1145.5 536 c 128,-1,54
 1168 614 1168 614 1215 677 c 128,-1,55
 1262 740 1262 740 1334 779.5 c 128,-1,56
 1406 819 1406 819 1504 819 c 0,57,58
 1600 819 1600 819 1669.5 783 c 128,-1,59
 1739 747 1739 747 1783.5 689 c 128,-1,60
 1828 631 1828 631 1849 558.5 c 128,-1,61
 1870 486 1870 486 1870 413 c 0,62,63
 1870 336 1870 336 1847.5 259 c 128,-1,64
 1825 182 1825 182 1778.5 120 c 128,-1,65
 1732 58 1732 58 1659.5 19 c 128,-1,66
 1587 -20 1587 -20 1488 -20 c 0,67,68
 1387 -20 1387 -20 1317.5 15.5 c 128,-1,69
 1248 51 1248 51 1205 108 c 128,-1,70
 1162 165 1162 165 1142.5 236.5 c 128,-1,71
 1123 308 1123 308 1123 381 c 0,52,53
1294 437 m 0,72,73
 1294 369 1294 369 1305 304 c 128,-1,74
 1316 239 1316 239 1343 189 c 128,-1,75
 1370 139 1370 139 1415 108.5 c 128,-1,76
 1460 78 1460 78 1528 78 c 0,77,78
 1542 78 1542 78 1572 85 c 128,-1,79
 1602 92 1602 92 1629 109 c 1,80,81
 1667 166 1667 166 1685 233.5 c 128,-1,82
 1703 301 1703 301 1703 362 c 0,83,84
 1703 430 1703 430 1693 494.5 c 128,-1,85
 1683 559 1683 559 1658 609 c 128,-1,86
 1633 659 1633 659 1590 689 c 128,-1,87
 1547 719 1547 719 1482 719 c 0,88,89
 1479 719 1479 719 1463 718 c 128,-1,90
 1447 717 1447 717 1427.5 713.5 c 128,-1,91
 1408 710 1408 710 1388 703.5 c 128,-1,92
 1368 697 1368 697 1356 687 c 1,93,94
 1336 659 1336 659 1324 628 c 128,-1,95
 1312 597 1312 597 1305.5 564.5 c 128,-1,96
 1299 532 1299 532 1296.5 499.5 c 128,-1,97
 1294 467 1294 467 1294 437 c 0,72,73
EndSplineSet
Ligature2: "'frac' Diagonal Fractions in Latin lookup 3 subtable" zero slash zero
EndChar

StartChar: ampersand
Encoding: 38 38 22
Width: 1702
Flags: W
LayerCount: 2
Fore
SplineSet
130 391 m 256,0,1
 130 480 130 480 162.5 546 c 128,-1,2
 195 612 195 612 248 662.5 c 128,-1,3
 301 713 301 713 368.5 750.5 c 128,-1,4
 436 788 436 788 507 821 c 1,5,6
 493 836 493 836 483 851 c 1,7,8
 452 891 452 891 427 933 c 128,-1,9
 402 975 402 975 384.5 1020 c 128,-1,10
 367 1065 367 1065 358 1113.5 c 128,-1,11
 349 1162 349 1162 351 1215 c 0,12,13
 352 1247 352 1247 362.5 1284.5 c 128,-1,14
 373 1322 373 1322 393.5 1358.5 c 128,-1,15
 414 1395 414 1395 446 1429 c 128,-1,16
 478 1463 478 1463 522.5 1489.5 c 128,-1,17
 567 1516 567 1516 625.5 1531.5 c 128,-1,18
 684 1547 684 1547 757 1547 c 0,19,20
 832 1547 832 1547 896.5 1526 c 128,-1,21
 961 1505 961 1505 1009 1467.5 c 128,-1,22
 1057 1430 1057 1430 1084.5 1378.5 c 128,-1,23
 1112 1327 1112 1327 1112 1267 c 0,24,25
 1112 1175 1112 1175 1081.5 1110 c 128,-1,26
 1051 1045 1051 1045 1001.5 997.5 c 128,-1,27
 952 950 952 950 889.5 914.5 c 128,-1,28
 827 879 827 879 763 847 c 1,29,30
 763 847 763 847 764 846 c 0,31,32
 807 792 807 792 850 739.5 c 128,-1,33
 893 687 893 687 939.5 631 c 128,-1,34
 986 575 986 575 1037.5 513.5 c 128,-1,35
 1089 452 1089 452 1149 381 c 1,36,-1
 1172 353 l 1,37,38
 1242 444 1242 444 1288.5 547.5 c 128,-1,39
 1335 651 1335 651 1346 751 c 0,40,41
 1350 790 1350 790 1351 823 c 128,-1,42
 1352 856 1352 856 1341.5 880 c 128,-1,43
 1331 904 1331 904 1305 918.5 c 128,-1,44
 1279 933 1279 933 1230 936 c 1,45,-1
 1229 1030 l 1,46,-1
 1395 1030 l 2,47,48
 1475 1030 1475 1030 1512 983.5 c 128,-1,49
 1549 937 1549 937 1549 861 c 0,50,51
 1549 800 1549 800 1528.5 725.5 c 128,-1,52
 1508 651 1508 651 1470 571.5 c 128,-1,53
 1432 492 1432 492 1377.5 412 c 128,-1,54
 1323 332 1323 332 1256 259 c 1,55,56
 1297 214 1297 214 1328 187 c 128,-1,57
 1359 160 1359 160 1385.5 145.5 c 128,-1,58
 1412 131 1412 131 1437.5 126 c 128,-1,59
 1463 121 1463 121 1494 121 c 0,60,61
 1519 121 1519 121 1548 123.5 c 128,-1,62
 1577 126 1577 126 1618 129 c 1,63,-1
 1619 58 l 1,64,65
 1592 33 1592 33 1557 14 c 0,66,67
 1527 -3 1527 -3 1483 -16.5 c 128,-1,68
 1439 -30 1439 -30 1382 -30 c 0,69,70
 1342 -30 1342 -30 1301.5 -16 c 128,-1,71
 1261 -2 1261 -2 1223.5 20 c 128,-1,72
 1186 42 1186 42 1153.5 67 c 128,-1,73
 1121 92 1121 92 1096 115 c 1,74,75
 1000 46 1000 46 892 4 c 128,-1,76
 784 -38 784 -38 666 -38 c 0,77,78
 542 -38 542 -38 443 -4 c 128,-1,79
 344 30 344 30 274.5 88 c 128,-1,80
 205 146 205 146 167.5 224 c 128,-1,81
 130 302 130 302 130 391 c 256,0,1
704 917 m 1,82,83
 752 946 752 946 791.5 980.5 c 128,-1,84
 831 1015 831 1015 859.5 1054.5 c 128,-1,85
 888 1094 888 1094 904 1138.5 c 128,-1,86
 920 1183 920 1183 920 1232 c 0,87,88
 920 1289 920 1289 904 1330 c 128,-1,89
 888 1371 888 1371 862 1397.5 c 128,-1,90
 836 1424 836 1424 803.5 1437 c 128,-1,91
 771 1450 771 1450 739 1450 c 0,92,93
 686 1450 686 1450 649.5 1433.5 c 128,-1,94
 613 1417 613 1417 589 1389.5 c 128,-1,95
 565 1362 565 1362 553.5 1327 c 128,-1,96
 542 1292 542 1292 541 1255 c 0,97,98
 539 1205 539 1205 552.5 1160.5 c 128,-1,99
 566 1116 566 1116 589 1074.5 c 128,-1,100
 612 1033 612 1033 642 994 c 128,-1,101
 672 955 672 955 704 917 c 1,82,83
354 428 m 0,102,103
 354 337 354 337 393.5 275 c 128,-1,104
 433 213 433 213 494 175.5 c 128,-1,105
 555 138 555 138 627.5 122 c 128,-1,106
 700 106 700 106 766 106 c 0,107,108
 829 106 829 106 893 131 c 128,-1,109
 957 156 957 156 1017 201 c 1,110,111
 998 224 998 224 968 260.5 c 128,-1,112
 938 297 938 297 901.5 341 c 128,-1,113
 865 385 865 385 823 435.5 c 128,-1,114
 781 486 781 486 738 538 c 128,-1,115
 695 590 695 590 652.5 641 c 128,-1,116
 610 692 610 692 573 738 c 1,117,118
 534 711 534 711 495 678 c 128,-1,119
 456 645 456 645 424.5 606.5 c 128,-1,120
 393 568 393 568 373.5 523.5 c 128,-1,121
 354 479 354 479 354 428 c 0,102,103
EndSplineSet
EndChar

StartChar: quotesingle
Encoding: 39 39 23
Width: 683
Flags: W
LayerCount: 2
Fore
SplineSet
284 1010 m 1,0,1
 263 1202 263 1202 247.5 1353.5 c 128,-1,2
 232 1505 232 1505 219 1599 c 1,3,-1
 223 1635 l 1,4,-1
 459 1635 l 1,5,-1
 463 1599 l 1,6,7
 455 1552 455 1552 447.5 1490 c 128,-1,8
 440 1428 440 1428 432 1353 c 128,-1,9
 424 1278 424 1278 415.5 1191.5 c 128,-1,10
 407 1105 407 1105 397 1010 c 1,11,-1
 284 1010 l 1,12,-1
 284 1010 l 1,0,1
EndSplineSet
EndChar

StartChar: parenleft
Encoding: 40 40 24
Width: 853
Flags: W
LayerCount: 2
Fore
SplineSet
225 689 m 0,0,1
 225 819 225 819 246.5 939 c 128,-1,2
 268 1059 268 1059 304.5 1167.5 c 128,-1,3
 341 1276 341 1276 389 1372 c 128,-1,4
 437 1468 437 1468 489.5 1548.5 c 128,-1,5
 542 1629 542 1629 596.5 1694 c 128,-1,6
 651 1759 651 1759 700 1806 c 1,7,-1
 773 1745 l 1,8,9
 738 1690 738 1690 697.5 1624.5 c 128,-1,10
 657 1559 657 1559 616 1483.5 c 128,-1,11
 575 1408 575 1408 537 1321 c 128,-1,12
 499 1234 499 1234 469.5 1136 c 128,-1,13
 440 1038 440 1038 422.5 928 c 128,-1,14
 405 818 405 818 405 697 c 0,15,16
 405 506 405 506 436 355.5 c 128,-1,17
 467 205 467 205 517.5 87 c 128,-1,18
 568 -31 568 -31 631 -120 c 128,-1,19
 694 -209 694 -209 758 -276 c 1,20,-1
 633 -394 l 1,21,22
 561 -328 561 -328 488 -233 c 128,-1,23
 415 -138 415 -138 356.5 -6.5 c 128,-1,24
 298 125 298 125 261.5 297 c 128,-1,25
 225 469 225 469 225 689 c 0,0,1
EndSplineSet
EndChar

StartChar: asterisk
Encoding: 42 42 26
Width: 1303
Flags: W
LayerCount: 2
Fore
SplineSet
194 1214 m 1,0,-1
 288 1376 l 1,1,-1
 604 1147 l 1,2,-1
 564 1536 l 1,3,-1
 753 1536 l 1,4,-1
 710 1147 l 1,5,-1
 1028 1376 l 1,6,-1
 1123 1213 l 1,7,-1
 764 1055 l 1,8,-1
 1122 895 l 1,9,-1
 1027 732 l 1,10,-1
 710 963 l 1,11,-1
 764 1055 l 1,12,-1
 710 1147 l 1,13,-1
 604 1147 l 1,14,-1
 551 1055 l 1,15,-1
 194 1214 l 1,0,-1
192 896 m 1,16,-1
 551 1055 l 1,17,-1
 604 963 l 1,18,-1
 286 733 l 1,19,-1
 192 896 l 1,16,-1
604 963 m 1,20,-1
 710 963 l 1,21,-1
 751 575 l 1,22,-1
 563 575 l 1,23,-1
 604 963 l 1,20,-1
EndSplineSet
EndChar

StartChar: plus
Encoding: 43 43 27
Width: 1193
Flags: W
LayerCount: 2
Fore
SplineSet
515 539 m 1,0,-1
 171 539 l 1,1,-1
 171 702 l 1,2,-1
 515 702 l 1,3,-1
 515 1057 l 1,4,-1
 678 1057 l 1,5,-1
 678 702 l 1,6,-1
 1021 702 l 1,7,-1
 1021 539 l 1,8,-1
 678 539 l 1,9,-1
 678 173 l 1,10,-1
 515 173 l 1,11,-1
 515 539 l 1,0,-1
EndSplineSet
EndChar

StartChar: comma
Encoding: 44 44 28
Width: 576
Flags: W
LayerCount: 2
Fore
SplineSet
148 -26 m 1,0,1
 143 21 143 21 139 59 c 0,2,3
 137 75 137 75 135.5 90.5 c 128,-1,4
 134 106 134 106 133 118 c 128,-1,5
 132 130 132 130 131.5 137.5 c 128,-1,6
 131 145 131 145 131 146 c 0,7,8
 132 147 132 147 144.5 157 c 128,-1,9
 157 167 157 167 179 179 c 128,-1,10
 201 191 201 191 231 200.5 c 128,-1,11
 261 210 261 210 296 210 c 0,12,13
 332 210 332 210 361.5 197 c 128,-1,14
 391 184 391 184 412 161 c 128,-1,15
 433 138 433 138 444.5 107.5 c 128,-1,16
 456 77 456 77 456 41 c 0,17,18
 456 -14 456 -14 444.5 -64.5 c 128,-1,19
 433 -115 433 -115 414 -159.5 c 128,-1,20
 395 -204 395 -204 371.5 -242.5 c 128,-1,21
 348 -281 348 -281 323 -313 c 0,22,23
 265 -388 265 -388 191 -447 c 1,24,-1
 110 -380 l 1,25,26
 129 -356 129 -356 156 -325.5 c 128,-1,27
 183 -295 183 -295 207.5 -260 c 128,-1,28
 232 -225 232 -225 249 -185 c 128,-1,29
 266 -145 266 -145 266 -102 c 0,30,31
 266 -64 266 -64 247.5 -47.5 c 128,-1,32
 229 -31 229 -31 207 -26 c 0,33,34
 181 -21 181 -21 148 -26 c 1,0,1
EndSplineSet
EndChar

StartChar: hyphen
Encoding: 45 45 29
Width: 1023
Flags: W
LayerCount: 2
Fore
SplineSet
191 702 m 1,0,-1
 832 702 l 1,1,-1
 832 539 l 1,2,-1
 191 539 l 1,3,-1
 191 702 l 1,0,-1
EndSplineSet
EndChar

StartChar: period
Encoding: 46 46 30
Width: 576
Flags: W
LayerCount: 2
Fore
SplineSet
140 115 m 256,0,1
 140 144 140 144 151 170.5 c 128,-1,2
 162 197 162 197 182 217.5 c 128,-1,3
 202 238 202 238 229 250 c 128,-1,4
 256 262 256 262 288 262 c 0,5,6
 321 262 321 262 348 249.5 c 128,-1,7
 375 237 375 237 394.5 216.5 c 128,-1,8
 414 196 414 196 425 169.5 c 128,-1,9
 436 143 436 143 436 115 c 0,10,11
 436 86 436 86 425 60 c 128,-1,12
 414 34 414 34 394.5 14 c 128,-1,13
 375 -6 375 -6 347.5 -18 c 128,-1,14
 320 -30 320 -30 288 -30 c 256,15,16
 256 -30 256 -30 229 -18 c 128,-1,17
 202 -6 202 -6 182 14 c 128,-1,18
 162 34 162 34 151 60 c 128,-1,19
 140 86 140 86 140 115 c 256,0,1
EndSplineSet
EndChar

StartChar: slash
Encoding: 47 47 31
Width: 849
Flags: W
LayerCount: 2
Fore
SplineSet
591 1672 m 1,0,-1
 730 1672 l 1,1,-1
 251 -166 l 1,2,-1
 118 -166 l 1,3,-1
 591 1672 l 1,0,-1
EndSplineSet
EndChar

StartChar: zero
Encoding: 48 48 32
Width: 1362
Flags: W
LayerCount: 2
Fore
SplineSet
133 650 m 0,0,1
 133 740 133 740 147 829 c 128,-1,2
 161 918 161 918 190 999 c 128,-1,3
 219 1080 219 1080 264 1150 c 128,-1,4
 309 1220 309 1220 371.5 1271.5 c 128,-1,5
 434 1323 434 1323 513.5 1352 c 128,-1,6
 593 1381 593 1381 692 1381 c 0,7,8
 789 1381 789 1381 866.5 1354.5 c 128,-1,9
 944 1328 944 1328 1003.5 1281 c 128,-1,10
 1063 1234 1063 1234 1106 1170 c 128,-1,11
 1149 1106 1149 1106 1176 1030.5 c 128,-1,12
 1203 955 1203 955 1216 871.5 c 128,-1,13
 1229 788 1229 788 1229 703 c 0,14,15
 1229 613 1229 613 1215 524.5 c 128,-1,16
 1201 436 1201 436 1172 356 c 128,-1,17
 1143 276 1143 276 1098 207 c 128,-1,18
 1053 138 1053 138 990.5 87.5 c 128,-1,19
 928 37 928 37 848 8.5 c 128,-1,20
 768 -20 768 -20 668 -20 c 0,21,22
 567 -20 567 -20 488 6 c 128,-1,23
 409 32 409 32 349.5 78 c 128,-1,24
 290 124 290 124 249 187 c 128,-1,25
 208 250 208 250 182 324.5 c 128,-1,26
 156 399 156 399 144.5 482 c 128,-1,27
 133 565 133 565 133 650 c 0,0,1
728 127 m 0,28,29
 739 127 739 127 758 130 c 128,-1,30
 777 133 777 133 800 139 c 128,-1,31
 823 145 823 145 847.5 155 c 128,-1,32
 872 165 872 165 895 179 c 1,33,34
 924 227 924 227 947.5 282 c 128,-1,35
 971 337 971 337 988 394 c 128,-1,36
 1005 451 1005 451 1014 508 c 128,-1,37
 1023 565 1023 565 1023 617 c 0,38,39
 1023 695 1023 695 1015 770.5 c 128,-1,40
 1007 846 1007 846 989.5 914.5 c 128,-1,41
 972 983 972 983 944 1040.5 c 128,-1,42
 916 1098 916 1098 875.5 1140.5 c 128,-1,43
 835 1183 835 1183 781.5 1206.5 c 128,-1,44
 728 1230 728 1230 659 1230 c 0,45,46
 653 1230 653 1230 628 1228.5 c 128,-1,47
 603 1227 603 1227 570.5 1221.5 c 128,-1,48
 538 1216 538 1216 505.5 1205.5 c 128,-1,49
 473 1195 473 1195 453 1177 c 1,50,51
 424 1129 424 1129 401 1074.5 c 128,-1,52
 378 1020 378 1020 362.5 963.5 c 128,-1,53
 347 907 347 907 338.5 851 c 128,-1,54
 330 795 330 795 330 743 c 0,55,56
 330 626 330 626 352 515 c 128,-1,57
 374 404 374 404 422 318 c 128,-1,58
 470 232 470 232 545.5 179.5 c 128,-1,59
 621 127 621 127 728 127 c 0,28,29
EndSplineSet
EndChar

StartChar: one
Encoding: 49 49 33
Width: 883
Flags: W
LayerCount: 2
Fore
SplineSet
151 82 m 1,0,1
 206 99 206 99 249 111.5 c 128,-1,2
 292 124 292 124 321.5 144.5 c 128,-1,3
 351 165 351 165 366.5 199 c 128,-1,4
 382 233 382 233 382 292 c 2,5,-1
 384 1023 l 2,6,7
 384 1076 384 1076 362 1100 c 128,-1,8
 340 1124 340 1124 304.5 1131.5 c 128,-1,9
 269 1139 269 1139 223.5 1136.5 c 128,-1,10
 178 1134 178 1134 131 1134 c 1,11,-1
 131 1206 l 1,12,13
 205 1231 205 1231 280 1262 c 0,14,15
 344 1288 344 1288 418.5 1323 c 128,-1,16
 493 1358 493 1358 559 1397 c 1,17,-1
 609 1376 l 1,18,-1
 593 1092 l 1,19,-1
 593 137 l 1,20,-1
 803 82 l 1,21,-1
 803 0 l 1,22,-1
 151 0 l 1,23,-1
 151 82 l 1,0,1
EndSplineSet
Substitution2: "'sups' Superscript in Latin lookup 2 subtable" onesuperior
EndChar

StartChar: two
Encoding: 50 50 34
Width: 1193
Flags: W
LayerCount: 2
Fore
SplineSet
135 0 m 1,0,1
 131 19 131 19 127 37 c 0,2,3
 124 53 124 53 121.5 69.5 c 128,-1,4
 119 86 119 86 118 98 c 1,5,6
 171 147 171 147 240.5 209 c 128,-1,7
 310 271 310 271 384 342.5 c 128,-1,8
 458 414 458 414 529.5 493 c 128,-1,9
 601 572 601 572 657.5 655 c 128,-1,10
 714 738 714 738 748.5 823 c 128,-1,11
 783 908 783 908 783 991 c 0,12,13
 783 1046 783 1046 769.5 1090.5 c 128,-1,14
 756 1135 756 1135 736 1166.5 c 128,-1,15
 716 1198 716 1198 693 1216.5 c 128,-1,16
 670 1235 670 1235 651 1239 c 0,17,18
 625 1245 625 1245 592.5 1248 c 128,-1,19
 560 1251 560 1251 524 1249 c 128,-1,20
 488 1247 488 1247 450 1239 c 128,-1,21
 412 1231 412 1231 373 1215 c 0,22,23
 362 1210 362 1210 352 1182.5 c 128,-1,24
 342 1155 342 1155 332 1114.5 c 128,-1,25
 322 1074 322 1074 311 1025.5 c 128,-1,26
 300 977 300 977 286 931 c 1,27,-1
 166 931 l 1,28,-1
 156 1294 l 1,29,30
 201 1313 201 1313 253 1329.5 c 128,-1,31
 305 1346 305 1346 360.5 1357.5 c 128,-1,32
 416 1369 416 1369 473.5 1375 c 128,-1,33
 531 1381 531 1381 588 1381 c 0,34,35
 673 1381 673 1381 751.5 1363 c 128,-1,36
 830 1345 830 1345 889 1304.5 c 128,-1,37
 948 1264 948 1264 983.5 1197.5 c 128,-1,38
 1019 1131 1019 1131 1019 1033 c 0,39,40
 1019 959 1019 959 1000.5 894 c 128,-1,41
 982 829 982 829 949.5 768.5 c 128,-1,42
 917 708 917 708 872 650 c 128,-1,43
 827 592 827 592 774 533 c 0,44,45
 723 475 723 475 665.5 419 c 128,-1,46
 608 363 608 363 552 312 c 128,-1,47
 496 261 496 261 445.5 215.5 c 128,-1,48
 395 170 395 170 358 132 c 1,49,-1
 887 185 l 1,50,51
 888 187 888 187 890.5 192.5 c 128,-1,52
 893 198 893 198 902 217.5 c 128,-1,53
 911 237 911 237 928 275.5 c 128,-1,54
 945 314 945 314 976 383 c 1,55,-1
 1082 385 l 1,56,-1
 1065 -24 l 1,57,-1
 908 0 l 1,58,-1
 135 0 l 1,59,-1
 135 0 l 1,0,1
EndSplineSet
Substitution2: "'sups' Superscript in Latin lookup 2 subtable" twosuperior
EndChar

StartChar: three
Encoding: 51 51 35
Width: 1046
Flags: W
LayerCount: 2
Fore
SplineSet
127 0 m 1,0,1
 250 0 250 0 356 24 c 128,-1,2
 462 48 462 48 540.5 94.5 c 128,-1,3
 619 141 619 141 664 209 c 128,-1,4
 709 277 709 277 709 365 c 0,5,6
 709 443 709 443 685 495 c 128,-1,7
 661 547 661 547 617.5 577.5 c 128,-1,8
 574 608 574 608 513 621 c 128,-1,9
 452 634 452 634 378 634 c 0,10,11
 365 634 365 634 347.5 632.5 c 128,-1,12
 330 631 330 631 312 628.5 c 128,-1,13
 294 626 294 626 276.5 623.5 c 128,-1,14
 259 621 259 621 246 618 c 1,15,-1
 267 757 l 1,16,17
 333 767 333 767 403 793.5 c 128,-1,18
 473 820 473 820 531 864.5 c 128,-1,19
 589 909 589 909 626 972.5 c 128,-1,20
 663 1036 663 1036 663 1119 c 0,21,22
 663 1158 663 1158 646 1185 c 128,-1,23
 629 1212 629 1212 603 1228.5 c 128,-1,24
 577 1245 577 1245 546.5 1252.5 c 128,-1,25
 516 1260 516 1260 489 1260 c 0,26,27
 447 1260 447 1260 407 1252 c 128,-1,28
 367 1244 367 1244 326 1222 c 0,29,30
 315 1216 315 1216 304.5 1194.5 c 128,-1,31
 294 1173 294 1173 283.5 1139.5 c 128,-1,32
 273 1106 273 1106 261 1063.5 c 128,-1,33
 249 1021 249 1021 235 975 c 1,34,-1
 135 975 l 1,35,-1
 135 1301 l 1,36,37
 168 1319 168 1319 212 1333.5 c 128,-1,38
 256 1348 256 1348 307 1358.5 c 128,-1,39
 358 1369 358 1369 413 1375 c 128,-1,40
 468 1381 468 1381 523 1381 c 0,41,42
 595 1381 595 1381 663 1364.5 c 128,-1,43
 731 1348 731 1348 784 1313.5 c 128,-1,44
 837 1279 837 1279 869.5 1225.5 c 128,-1,45
 902 1172 902 1172 902 1099 c 0,46,47
 902 1056 902 1056 885.5 1018 c 128,-1,48
 869 980 869 980 842.5 946.5 c 128,-1,49
 816 913 816 913 781.5 884.5 c 128,-1,50
 747 856 747 856 711.5 833 c 128,-1,51
 676 810 676 810 642.5 792 c 128,-1,52
 609 774 609 774 583 762 c 1,53,-1
 583 742 l 1,54,55
 655 744 655 744 710 731 c 128,-1,56
 765 718 765 718 805.5 694 c 128,-1,57
 846 670 846 670 873 638 c 128,-1,58
 900 606 900 606 916.5 570.5 c 128,-1,59
 933 535 933 535 940 498 c 128,-1,60
 947 461 947 461 947 429 c 0,61,62
 947 349 947 349 920.5 277 c 128,-1,63
 894 205 894 205 845 144 c 128,-1,64
 796 83 796 83 726.5 34.5 c 128,-1,65
 657 -14 657 -14 572.5 -48.5 c 128,-1,66
 488 -83 488 -83 390 -101.5 c 128,-1,67
 292 -120 292 -120 185 -120 c 0,68,69
 170 -120 170 -120 155.5 -120 c 128,-1,70
 141 -120 141 -120 127 -118 c 1,71,-1
 127 0 l 1,72,-1
 127 0 l 1,0,1
EndSplineSet
Substitution2: "'sups' Superscript in Latin lookup 2 subtable" threesuperior
EndChar

StartChar: four
Encoding: 52 52 36
Width: 1189
Flags: W
LayerCount: 2
Fore
SplineSet
54 445 m 1,0,1
 138 565 138 565 231.5 688.5 c 128,-1,2
 325 812 325 812 424 935 c 128,-1,3
 523 1058 523 1058 625.5 1180 c 128,-1,4
 728 1302 728 1302 830 1420 c 1,5,-1
 899 1388 l 1,6,-1
 899 472 l 1,7,8
 962 475 962 475 1016.5 485.5 c 128,-1,9
 1071 496 1071 496 1119 517 c 1,10,-1
 1104 346 l 1,11,-1
 901 346 l 1,12,-1
 901 -14 l 1,13,-1
 689 -61 l 1,14,-1
 690 346 l 1,15,-1
 54 346 l 1,16,-1
 54 445 l 1,0,1
689 475 m 1,17,-1
 689 1065 l 1,18,19
 634 995 634 995 577 921 c 128,-1,20
 520 847 520 847 464.5 772 c 128,-1,21
 409 697 409 697 357 622 c 128,-1,22
 305 547 305 547 261 475 c 1,23,-1
 689 475 l 1,17,-1
EndSplineSet
EndChar

StartChar: five
Encoding: 53 53 37
Width: 1043
Flags: W
LayerCount: 2
Fore
SplineSet
129 0 m 1,0,1
 190 3 190 3 256 16 c 128,-1,2
 322 29 322 29 386 53.5 c 128,-1,3
 450 78 450 78 508 114.5 c 128,-1,4
 566 151 566 151 609.5 200.5 c 128,-1,5
 653 250 653 250 679 312 c 128,-1,6
 705 374 705 374 705 451 c 0,7,8
 705 503 705 503 686.5 549 c 128,-1,9
 668 595 668 595 634 632.5 c 128,-1,10
 600 670 600 670 550.5 697 c 128,-1,11
 501 724 501 724 440 739 c 0,12,13
 391 751 391 751 340.5 756 c 128,-1,14
 290 761 290 761 247.5 764 c 128,-1,15
 205 767 205 767 175.5 770 c 128,-1,16
 146 773 146 773 139 779 c 0,17,18
 131 787 131 787 127.5 806.5 c 128,-1,19
 124 826 124 826 132 857 c 2,20,-1
 267 1395 l 1,21,22
 329 1389 329 1389 397.5 1387 c 128,-1,23
 466 1385 466 1385 533 1387 c 128,-1,24
 600 1389 600 1389 662 1394 c 128,-1,25
 724 1399 724 1399 774 1407 c 1,26,27
 798 1415 798 1415 815 1428 c 128,-1,28
 832 1441 832 1441 845 1456.5 c 128,-1,29
 858 1472 858 1472 869.5 1491 c 128,-1,30
 881 1510 881 1510 894 1530 c 1,31,-1
 971 1527 l 1,32,-1
 897 1210 l 1,33,-1
 378 1210 l 1,34,35
 364 1168 364 1168 351.5 1125.5 c 128,-1,36
 339 1083 339 1083 329 1046.5 c 128,-1,37
 319 1010 319 1010 312 982 c 128,-1,38
 305 954 305 954 302 941 c 0,39,40
 298 924 298 924 309.5 915.5 c 128,-1,41
 321 907 321 907 352 907 c 0,42,43
 635 907 635 907 777.5 802.5 c 128,-1,44
 920 698 920 698 920 479 c 0,45,46
 920 377 920 377 872.5 277 c 128,-1,47
 825 177 825 177 728 94.5 c 128,-1,48
 631 12 631 12 485 -43.5 c 128,-1,49
 339 -99 339 -99 142 -111 c 1,50,-1
 129 0 l 1,51,-1
 129 0 l 1,0,1
EndSplineSet
EndChar

StartChar: six
Encoding: 54 54 38
Width: 1193
Flags: W
LayerCount: 2
Fore
SplineSet
418 201 m 0,0,1
 454 147 454 147 504.5 114.5 c 128,-1,2
 555 82 555 82 635 84 c 0,3,4
 703 85 703 85 750.5 110.5 c 128,-1,5
 798 136 798 136 828 180.5 c 128,-1,6
 858 225 858 225 871.5 287.5 c 128,-1,7
 885 350 885 350 885 426 c 0,8,9
 885 460 885 460 879 504.5 c 128,-1,10
 873 549 873 549 862 593.5 c 128,-1,11
 851 638 851 638 836 676 c 128,-1,12
 821 714 821 714 804 735 c 1,13,14
 782 755 782 755 742.5 767 c 128,-1,15
 703 779 703 779 654 779 c 0,16,17
 624 779 624 779 593 774 c 128,-1,18
 562 769 562 769 536 762.5 c 128,-1,19
 510 756 510 756 490.5 748 c 128,-1,20
 471 740 471 740 462 734 c 1,21,-1
 462 845 l 1,22,23
 487 855 487 855 521.5 868.5 c 128,-1,24
 556 882 556 882 594.5 894 c 128,-1,25
 633 906 633 906 672.5 914 c 128,-1,26
 712 922 712 922 748 922 c 0,27,28
 828 922 828 922 892.5 884 c 128,-1,29
 957 846 957 846 1002 784.5 c 128,-1,30
 1047 723 1047 723 1071.5 645.5 c 128,-1,31
 1096 568 1096 568 1096 488 c 0,32,33
 1096 426 1096 426 1080.5 363 c 128,-1,34
 1065 300 1065 300 1035.5 242.5 c 128,-1,35
 1006 185 1006 185 964 135 c 128,-1,36
 922 85 922 85 868.5 48.5 c 128,-1,37
 815 12 815 12 751.5 -9 c 128,-1,38
 688 -30 688 -30 616 -30 c 0,39,40
 531 -30 531 -30 461 -7 c 128,-1,41
 391 16 391 16 336 55.5 c 128,-1,42
 281 95 281 95 240.5 147.5 c 128,-1,43
 200 200 200 200 173.5 258.5 c 128,-1,44
 147 317 147 317 134 379 c 128,-1,45
 121 441 121 441 121 500 c 0,46,47
 121 666 121 666 175 817 c 128,-1,48
 229 968 229 968 330.5 1094.5 c 128,-1,49
 432 1221 432 1221 578.5 1319 c 128,-1,50
 725 1417 725 1417 911 1478 c 1,51,-1
 946 1374 l 1,52,53
 820 1321 820 1321 710 1238 c 128,-1,54
 600 1155 600 1155 517.5 1048 c 128,-1,55
 435 941 435 941 387.5 812.5 c 128,-1,56
 340 684 340 684 340 539 c 0,57,58
 340 498 340 498 344 452.5 c 128,-1,59
 348 407 348 407 357 362 c 128,-1,60
 366 317 366 317 381 275.5 c 128,-1,61
 396 234 396 234 418 201 c 0,0,1
EndSplineSet
EndChar

StartChar: seven
Encoding: 55 55 39
Width: 1043
Flags: W
LayerCount: 2
Fore
SplineSet
325 44 m 1,0,1
 344 118 344 118 374 206.5 c 128,-1,2
 404 295 404 295 442 392 c 128,-1,3
 480 489 480 489 525.5 592.5 c 128,-1,4
 571 696 571 696 621.5 800 c 128,-1,5
 672 904 672 904 726 1006 c 128,-1,6
 780 1108 780 1108 835 1204 c 1,7,8
 820 1195 820 1195 786 1190.5 c 128,-1,9
 752 1186 752 1186 707.5 1184 c 128,-1,10
 663 1182 663 1182 610.5 1181.5 c 128,-1,11
 558 1181 558 1181 504.5 1181 c 128,-1,12
 451 1181 451 1181 400.5 1179.5 c 128,-1,13
 350 1178 350 1178 309 1174 c 1,14,15
 284 1174 284 1174 266 1158.5 c 128,-1,16
 248 1143 248 1143 233 1120 c 128,-1,17
 218 1097 218 1097 206 1070 c 128,-1,18
 194 1043 194 1043 181 1020 c 1,19,-1
 94 1021 l 1,20,-1
 152 1371 l 1,21,-1
 860 1371 l 2,22,23
 879 1371 879 1371 894.5 1371.5 c 128,-1,24
 910 1372 910 1372 924.5 1372.5 c 128,-1,25
 939 1373 939 1373 953.5 1374 c 128,-1,26
 968 1375 968 1375 985 1376 c 1,27,-1
 1028 1306 l 1,28,29
 963 1204 963 1204 905 1086 c 128,-1,30
 847 968 847 968 797 844 c 128,-1,31
 747 720 747 720 705 597 c 128,-1,32
 663 474 663 474 629.5 362.5 c 128,-1,33
 596 251 596 251 571 157.5 c 128,-1,34
 546 64 546 64 531 0 c 1,35,-1
 325 0 l 1,36,-1
 325 44 l 1,0,1
EndSplineSet
EndChar

StartChar: eight
Encoding: 56 56 40
Width: 1194
Flags: W
LayerCount: 2
Fore
SplineSet
152 302 m 0,0,1
 152 371 152 371 180.5 425.5 c 128,-1,2
 209 480 209 480 254.5 523.5 c 128,-1,3
 300 567 300 567 356 600 c 128,-1,4
 412 633 412 633 467 659 c 1,5,6
 410 690 410 690 361 725.5 c 128,-1,7
 312 761 312 761 276 804.5 c 128,-1,8
 240 848 240 848 220 900 c 128,-1,9
 200 952 200 952 200 1017 c 0,10,11
 200 1098 200 1098 239.5 1165 c 128,-1,12
 279 1232 279 1232 342 1280 c 128,-1,13
 405 1328 405 1328 482 1354.5 c 128,-1,14
 559 1381 559 1381 634 1381 c 0,15,16
 712 1381 712 1381 786 1365.5 c 128,-1,17
 860 1350 860 1350 918 1314 c 128,-1,18
 976 1278 976 1278 1011.5 1219.5 c 128,-1,19
 1047 1161 1047 1161 1047 1074 c 0,20,21
 1047 1004 1047 1004 1022.5 951.5 c 128,-1,22
 998 899 998 899 956.5 858 c 128,-1,23
 915 817 915 817 860 782.5 c 128,-1,24
 805 748 805 748 743 714 c 1,25,26
 803 689 803 689 864 655 c 128,-1,27
 925 621 925 621 974 577 c 128,-1,28
 1023 533 1023 533 1054 477.5 c 128,-1,29
 1085 422 1085 422 1085 355 c 0,30,31
 1085 265 1085 265 1043.5 193.5 c 128,-1,32
 1002 122 1002 122 934 72.5 c 128,-1,33
 866 23 866 23 779 -3.5 c 128,-1,34
 692 -30 692 -30 601 -30 c 0,35,36
 512 -30 512 -30 431 -10 c 128,-1,37
 350 10 350 10 288 51 c 128,-1,38
 226 92 226 92 189 154.5 c 128,-1,39
 152 217 152 217 152 302 c 0,0,1
654 773 m 1,40,41
 702 796 702 796 739 829.5 c 128,-1,42
 776 863 776 863 801.5 903 c 128,-1,43
 827 943 827 943 840 986 c 128,-1,44
 853 1029 853 1029 853 1071 c 256,45,46
 853 1113 853 1113 839 1150 c 128,-1,47
 825 1187 825 1187 796.5 1214 c 128,-1,48
 768 1241 768 1241 724 1257 c 128,-1,49
 680 1273 680 1273 619 1273 c 0,50,51
 593 1273 593 1273 573 1270.5 c 128,-1,52
 553 1268 553 1268 536.5 1263.5 c 128,-1,53
 520 1259 520 1259 506 1253.5 c 128,-1,54
 492 1248 492 1248 477 1242 c 1,55,56
 442 1217 442 1217 417.5 1177.5 c 128,-1,57
 393 1138 393 1138 393 1080 c 0,58,59
 393 1023 393 1023 413.5 974 c 128,-1,60
 434 925 434 925 469.5 886 c 128,-1,61
 505 847 505 847 552.5 818 c 128,-1,62
 600 789 600 789 654 773 c 1,40,41
348 324 m 0,63,64
 348 260 348 260 369.5 214.5 c 128,-1,65
 391 169 391 169 430 139.5 c 128,-1,66
 469 110 469 110 525 96 c 128,-1,67
 581 82 581 82 650 82 c 0,68,69
 716 82 716 82 769.5 102.5 c 128,-1,70
 823 123 823 123 855 158 c 1,71,72
 869 182 869 182 880 215.5 c 128,-1,73
 891 249 891 249 891 279 c 0,74,75
 891 343 891 343 858 391.5 c 128,-1,76
 825 440 825 440 775.5 478.5 c 128,-1,77
 726 517 726 517 668 546 c 128,-1,78
 610 575 610 575 560 600 c 1,79,80
 528 581 528 581 490.5 559 c 128,-1,81
 453 537 453 537 421.5 506 c 128,-1,82
 390 475 390 475 369 431 c 128,-1,83
 348 387 348 387 348 324 c 0,63,64
EndSplineSet
EndChar

StartChar: nine
Encoding: 57 57 41
Width: 1193
Flags: W
LayerCount: 2
Fore
SplineSet
301 -20 m 1,0,1
 427 33 427 33 532.5 118.5 c 128,-1,2
 638 204 638 204 714.5 314.5 c 128,-1,3
 791 425 791 425 834 556 c 128,-1,4
 877 687 877 687 877 832 c 0,5,6
 877 872 877 872 873 914.5 c 128,-1,7
 869 957 869 957 860 998.5 c 128,-1,8
 851 1040 851 1040 836 1078.5 c 128,-1,9
 821 1117 821 1117 799 1150 c 0,10,11
 763 1204 763 1204 712.5 1236 c 128,-1,12
 662 1268 662 1268 582 1267 c 1,13,14
 514 1265 514 1265 466.5 1243.5 c 128,-1,15
 419 1222 419 1222 389 1181 c 128,-1,16
 359 1140 359 1140 345.5 1080.5 c 128,-1,17
 332 1021 332 1021 332 945 c 0,18,19
 332 905 332 905 338 859 c 128,-1,20
 344 813 344 813 355 770 c 128,-1,21
 366 727 366 727 381 691 c 128,-1,22
 396 655 396 655 413 636 c 1,23,24
 438 613 438 613 479 602.5 c 128,-1,25
 520 592 520 592 564 592 c 0,26,27
 595 592 595 592 625.5 598 c 128,-1,28
 656 604 656 604 682 613 c 128,-1,29
 708 622 708 622 727 631.5 c 128,-1,30
 746 641 746 641 755 648 c 1,31,-1
 755 537 l 1,32,33
 725 524 725 524 690 509 c 128,-1,34
 655 494 655 494 617.5 480.5 c 128,-1,35
 580 467 580 467 542 458 c 128,-1,36
 504 449 504 449 469 449 c 0,37,38
 389 449 389 449 324.5 483.5 c 128,-1,39
 260 518 260 518 215 577 c 128,-1,40
 170 636 170 636 145.5 715 c 128,-1,41
 121 794 121 794 121 883 c 0,42,43
 121 977 121 977 155.5 1066.5 c 128,-1,44
 190 1156 190 1156 253 1226 c 128,-1,45
 316 1296 316 1296 404.5 1338.5 c 128,-1,46
 493 1381 493 1381 601 1381 c 0,47,48
 686 1381 686 1381 756 1359.5 c 128,-1,49
 826 1338 826 1338 881 1301 c 128,-1,50
 936 1264 936 1264 976.5 1214 c 128,-1,51
 1017 1164 1017 1164 1043.5 1107.5 c 128,-1,52
 1070 1051 1070 1051 1083 990 c 128,-1,53
 1096 929 1096 929 1096 871 c 0,54,55
 1096 704 1096 704 1047 550.5 c 128,-1,56
 998 397 998 397 902 267.5 c 128,-1,57
 806 138 806 138 664 37.5 c 128,-1,58
 522 -63 522 -63 336 -124 c 1,59,-1
 301 -20 l 1,60,-1
 301 -20 l 1,0,1
EndSplineSet
EndChar

StartChar: less
Encoding: 60 60 44
Width: 1362
Flags: W
LayerCount: 2
Fore
SplineSet
151 634 m 1,0,-1
 1196 1098 l 1,1,-1
 1196 965 l 1,2,-1
 284 568 l 1,3,-1
 1196 171 l 1,4,-1
 1196 37 l 1,5,-1
 151 502 l 1,6,-1
 151 634 l 1,0,-1
EndSplineSet
EndChar

StartChar: equal
Encoding: 61 61 45
Width: 1195
Flags: W
LayerCount: 2
Fore
SplineSet
158 899 m 1,0,-1
 1037 899 l 1,1,-1
 1037 777 l 1,2,-1
 158 777 l 1,3,-1
 158 899 l 1,0,-1
158 464 m 1,4,-1
 1037 464 l 1,5,-1
 1037 341 l 1,6,-1
 158 341 l 1,7,-1
 158 464 l 1,4,-1
EndSplineSet
EndChar

StartChar: question
Encoding: 63 63 47
Width: 1126
Flags: W
LayerCount: 2
Fore
SplineSet
622 480 m 1,0,1
 573 495 573 495 531 512 c 128,-1,2
 489 529 489 529 457.5 554 c 128,-1,3
 426 579 426 579 408 614.5 c 128,-1,4
 390 650 390 650 390 701 c 0,5,6
 390 731 390 731 402 762.5 c 128,-1,7
 414 794 414 794 434 826 c 1,8,9
 458 860 458 860 493.5 902.5 c 128,-1,10
 529 945 529 945 569 993 c 128,-1,11
 609 1041 609 1041 648 1091.5 c 128,-1,12
 687 1142 687 1142 719 1191.5 c 128,-1,13
 751 1241 751 1241 770.5 1287.5 c 128,-1,14
 790 1334 790 1334 790 1373 c 0,15,16
 790 1417 790 1417 767 1458.5 c 128,-1,17
 744 1500 744 1500 704.5 1529 c 128,-1,18
 665 1558 665 1558 613 1569 c 128,-1,19
 561 1580 561 1580 503 1563 c 1,20,21
 462 1543 462 1543 421.5 1521 c 128,-1,22
 381 1499 381 1499 344 1477 c 128,-1,23
 307 1455 307 1455 275 1434.5 c 128,-1,24
 243 1414 243 1414 218 1396 c 1,25,-1
 156 1490 l 1,26,27
 178 1508 178 1508 206.5 1533 c 128,-1,28
 235 1558 235 1558 267 1584.5 c 128,-1,29
 299 1611 299 1611 332.5 1636.5 c 128,-1,30
 366 1662 366 1662 398 1682 c 1,31,32
 467 1708 467 1708 529.5 1721.5 c 128,-1,33
 592 1735 592 1735 640 1735 c 0,34,35
 710 1735 710 1735 776.5 1711 c 128,-1,36
 843 1687 843 1687 895.5 1643 c 128,-1,37
 948 1599 948 1599 980 1536 c 128,-1,38
 1012 1473 1012 1473 1012 1394 c 0,39,40
 1012 1345 1012 1345 986 1290.5 c 128,-1,41
 960 1236 960 1236 922 1183 c 128,-1,42
 884 1130 884 1130 840.5 1083 c 128,-1,43
 797 1036 797 1036 761 1002 c 0,44,45
 731 974 731 974 698.5 938.5 c 128,-1,46
 666 903 666 903 638.5 866.5 c 128,-1,47
 611 830 611 830 593.5 796 c 128,-1,48
 576 762 576 762 576 737 c 0,49,50
 576 718 576 718 584 699 c 128,-1,51
 592 680 592 680 614.5 667 c 128,-1,52
 637 654 637 654 677 650.5 c 128,-1,53
 717 647 717 647 782 660 c 1,54,-1
 813 580 l 1,55,-1
 622 480 l 1,0,1
449 115 m 256,56,57
 449 144 449 144 460 170.5 c 128,-1,58
 471 197 471 197 491 217.5 c 128,-1,59
 511 238 511 238 538 250 c 128,-1,60
 565 262 565 262 597 262 c 0,61,62
 630 262 630 262 657 249.5 c 128,-1,63
 684 237 684 237 703.5 216.5 c 128,-1,64
 723 196 723 196 734 169.5 c 128,-1,65
 745 143 745 143 745 115 c 0,66,67
 745 86 745 86 734 60 c 128,-1,68
 723 34 723 34 703.5 14 c 128,-1,69
 684 -6 684 -6 656.5 -18 c 128,-1,70
 629 -30 629 -30 597 -30 c 256,71,72
 565 -30 565 -30 538 -18 c 128,-1,73
 511 -6 511 -6 491 14 c 128,-1,74
 471 34 471 34 460 60 c 128,-1,75
 449 86 449 86 449 115 c 256,56,57
EndSplineSet
EndChar

StartChar: at
Encoding: 64 64 48
Width: 1830
Flags: W
LayerCount: 2
Fore
SplineSet
123 558 m 0,0,1
 123 696 123 696 157.5 819 c 128,-1,2
 192 942 192 942 254.5 1046.5 c 128,-1,3
 317 1151 317 1151 405 1234.5 c 128,-1,4
 493 1318 493 1318 600 1376 c 128,-1,5
 707 1434 707 1434 829.5 1465.5 c 128,-1,6
 952 1497 952 1497 1085 1497 c 0,7,8
 1230 1497 1230 1497 1360 1462.5 c 128,-1,9
 1490 1428 1490 1428 1589 1354 c 128,-1,10
 1688 1280 1688 1280 1746.5 1162.5 c 128,-1,11
 1805 1045 1805 1045 1806 879 c 0,12,13
 1807 748 1807 748 1766 632.5 c 128,-1,14
 1725 517 1725 517 1652 428 c 128,-1,15
 1579 339 1579 339 1478 283 c 128,-1,16
 1377 227 1377 227 1257 215 c 0,17,18
 1236 213 1236 213 1220 212.5 c 128,-1,19
 1204 212 1204 212 1189.5 211 c 128,-1,20
 1175 210 1175 210 1159 210 c 128,-1,21
 1143 210 1143 210 1121 210 c 0,22,23
 1086 210 1086 210 1069.5 224 c 128,-1,24
 1053 238 1053 238 1051 258 c 0,25,26
 1048 280 1048 280 1049 299 c 128,-1,27
 1050 318 1050 318 1053.5 337 c 128,-1,28
 1057 356 1057 356 1062.5 375.5 c 128,-1,29
 1068 395 1068 395 1074 418 c 1,30,31
 1054 402 1054 402 1022.5 379.5 c 128,-1,32
 991 357 991 357 953.5 332.5 c 128,-1,33
 916 308 916 308 876 284.5 c 128,-1,34
 836 261 836 261 800 242.5 c 128,-1,35
 764 224 764 224 735 212.5 c 128,-1,36
 706 201 706 201 691 201 c 0,37,38
 650 201 650 201 619.5 225 c 128,-1,39
 589 249 589 249 569 286.5 c 128,-1,40
 549 324 549 324 539 370 c 128,-1,41
 529 416 529 416 529 461 c 0,42,43
 530 551 530 551 550.5 636 c 128,-1,44
 571 721 571 721 608 796 c 128,-1,45
 645 871 645 871 696 934 c 128,-1,46
 747 997 747 997 808 1042.5 c 128,-1,47
 869 1088 869 1088 939 1113 c 128,-1,48
 1009 1138 1009 1138 1084 1138 c 0,49,50
 1103 1138 1103 1138 1126 1132 c 128,-1,51
 1149 1126 1149 1126 1173 1116 c 0,52,53
 1188 1109 1188 1109 1204.5 1101 c 128,-1,54
 1221 1093 1221 1093 1237 1088 c 1,55,-1
 1297 1151 l 1,56,-1
 1389 1137 l 1,57,58
 1366 1036 1366 1036 1343 948 c 128,-1,59
 1320 860 1320 860 1300 774 c 128,-1,60
 1280 688 1280 688 1263.5 599.5 c 128,-1,61
 1247 511 1247 511 1236 410 c 0,62,63
 1234 391 1234 391 1241 379.5 c 128,-1,64
 1248 368 1248 368 1259 361.5 c 128,-1,65
 1270 355 1270 355 1283.5 352.5 c 128,-1,66
 1297 350 1297 350 1308 350 c 0,67,68
 1403 350 1403 350 1471 395 c 128,-1,69
 1539 440 1539 440 1583 512.5 c 128,-1,70
 1627 585 1627 585 1647.5 676 c 128,-1,71
 1668 767 1668 767 1668 859 c 0,72,73
 1668 988 1668 988 1621.5 1089.5 c 128,-1,74
 1575 1191 1575 1191 1495 1260.5 c 128,-1,75
 1415 1330 1415 1330 1308.5 1366.5 c 128,-1,76
 1202 1403 1202 1403 1083 1403 c 0,77,78
 967 1403 967 1403 862 1373.5 c 128,-1,79
 757 1344 757 1344 667 1290.5 c 128,-1,80
 577 1237 577 1237 504.5 1163 c 128,-1,81
 432 1089 432 1089 381 1000 c 128,-1,82
 330 911 330 911 302.5 809.5 c 128,-1,83
 275 708 275 708 275 601 c 0,84,85
 275 427 275 427 327 302 c 128,-1,86
 379 177 379 177 472.5 96.5 c 128,-1,87
 566 16 566 16 696 -21.5 c 128,-1,88
 826 -59 826 -59 983 -59 c 0,89,90
 1087 -59 1087 -59 1191.5 -43.5 c 128,-1,91
 1296 -28 1296 -28 1393 6 c 1,92,-1
 1399 -76 l 1,93,94
 1284 -130 1284 -130 1158 -153 c 128,-1,95
 1032 -176 1032 -176 904 -176 c 0,96,97
 796 -176 796 -176 695.5 -156.5 c 128,-1,98
 595 -137 595 -137 508.5 -97 c 128,-1,99
 422 -57 422 -57 351 3.5 c 128,-1,100
 280 64 280 64 229 145.5 c 128,-1,101
 178 227 178 227 150.5 330 c 128,-1,102
 123 433 123 433 123 558 c 0,0,1
707 527 m 0,103,104
 707 495 707 495 712 472 c 128,-1,105
 717 449 717 449 729 434 c 128,-1,106
 741 419 741 419 761.5 412 c 128,-1,107
 782 405 782 405 813 405 c 0,108,109
 837 405 837 405 874 419.5 c 128,-1,110
 911 434 911 434 949.5 455 c 128,-1,111
 988 476 988 476 1021.5 499 c 128,-1,112
 1055 522 1055 522 1070 538 c 1,113,114
 1079 582 1079 582 1086.5 614 c 128,-1,115
 1094 646 1094 646 1100.5 671.5 c 128,-1,116
 1107 697 1107 697 1112.5 719.5 c 128,-1,117
 1118 742 1118 742 1124 768 c 128,-1,118
 1130 794 1130 794 1136.5 826 c 128,-1,119
 1143 858 1143 858 1151 903 c 1,120,121
 1129 927 1129 927 1109.5 945 c 128,-1,122
 1090 963 1090 963 1067 978 c 1,123,124
 1015 1016 1015 1016 968.5 1008.5 c 128,-1,125
 922 1001 922 1001 882 964.5 c 128,-1,126
 842 928 842 928 809.5 870 c 128,-1,127
 777 812 777 812 754.5 749.5 c 128,-1,128
 732 687 732 687 719.5 627 c 128,-1,129
 707 567 707 567 707 527 c 0,103,104
EndSplineSet
EndChar

StartChar: A
Encoding: 65 65 49
Width: 1535
Flags: W
LayerCount: 2
Fore
SplineSet
-42 82 m 1,0,1
 9 96 9 96 49.5 107 c 128,-1,2
 90 118 90 118 119 138 c 1,3,-1
 630 1424 l 1,4,-1
 543 1456 l 1,5,-1
 542 1506 l 1,6,7
 585 1516 585 1516 614.5 1523 c 128,-1,8
 644 1530 644 1530 672 1537.5 c 128,-1,9
 700 1545 700 1545 733 1554 c 128,-1,10
 766 1563 766 1563 817 1578 c 1,11,12
 830 1543 830 1543 841.5 1516 c 128,-1,13
 853 1489 853 1489 867 1457.5 c 128,-1,14
 881 1426 881 1426 900 1383.5 c 128,-1,15
 919 1341 919 1341 947 1276 c 128,-1,16
 975 1211 975 1211 1014.5 1117 c 128,-1,17
 1054 1023 1054 1023 1110 887 c 128,-1,18
 1166 751 1166 751 1240.5 567.5 c 128,-1,19
 1315 384 1315 384 1413 141 c 1,20,-1
 1402 137 l 1,21,-1
 1568 82 l 1,22,-1
 1568 0 l 1,23,-1
 972 0 l 1,24,-1
 972 82 l 1,25,26
 1007 91 1007 91 1036 99 c 128,-1,27
 1065 107 1065 107 1087.5 117 c 128,-1,28
 1110 127 1110 127 1127 140.5 c 128,-1,29
 1144 154 1144 154 1155 174 c 1,30,31
 1138 219 1138 219 1107 299.5 c 128,-1,32
 1076 380 1076 380 1025 510 c 1,33,-1
 425 510 l 1,34,-1
 287 129 l 1,35,-1
 490 82 l 1,36,-1
 490 0 l 1,37,-1
 -42 0 l 1,38,-1
 -42 82 l 1,0,1
978 631 m 1,39,-1
 713 1297 l 1,40,41
 701 1274 701 1274 688 1235 c 1,42,-1
 469 631 l 1,43,-1
 978 631 l 1,39,-1
EndSplineSet
EndChar

StartChar: B
Encoding: 66 66 50
Width: 1374
Flags: W
LayerCount: 2
Fore
SplineSet
110 78 m 1,0,1
 160 92 160 92 192 103.5 c 128,-1,2
 224 115 224 115 242.5 135 c 128,-1,3
 261 155 261 155 268 188.5 c 128,-1,4
 275 222 275 222 275 279 c 2,5,-1
 275 1397 l 1,6,-1
 110 1451 l 1,7,-1
 110 1530 l 1,8,-1
 313 1530 l 2,9,10
 355 1530 355 1530 404 1532 c 128,-1,11
 453 1534 453 1534 501 1536 c 128,-1,12
 549 1538 549 1538 593 1540 c 128,-1,13
 637 1542 637 1542 670 1542 c 0,14,15
 730 1542 730 1542 790.5 1536.5 c 128,-1,16
 851 1531 851 1531 907 1517.5 c 128,-1,17
 963 1504 963 1504 1012 1480.5 c 128,-1,18
 1061 1457 1061 1457 1097 1421 c 128,-1,19
 1133 1385 1133 1385 1154 1335 c 128,-1,20
 1175 1285 1175 1285 1175 1218 c 0,21,22
 1175 1134 1175 1134 1153 1068.5 c 128,-1,23
 1131 1003 1131 1003 1098.5 952.5 c 128,-1,24
 1066 902 1066 902 1028 866.5 c 128,-1,25
 990 831 990 831 957 809 c 1,26,27
 1024 790 1024 790 1085.5 758.5 c 128,-1,28
 1147 727 1147 727 1193 679.5 c 128,-1,29
 1239 632 1239 632 1266.5 566.5 c 128,-1,30
 1294 501 1294 501 1294 415 c 0,31,32
 1294 332 1294 332 1270.5 267 c 128,-1,33
 1247 202 1247 202 1207.5 152.5 c 128,-1,34
 1168 103 1168 103 1115 68.5 c 128,-1,35
 1062 34 1062 34 1003.5 12 c 128,-1,36
 945 -10 945 -10 884.5 -20 c 128,-1,37
 824 -30 824 -30 768 -30 c 0,38,39
 735 -30 735 -30 683 -25.5 c 128,-1,40
 631 -21 631 -21 572 -15 c 128,-1,41
 513 -9 513 -9 453 -4.5 c 128,-1,42
 393 0 393 0 345 0 c 2,43,-1
 110 0 l 1,44,-1
 110 78 l 1,0,1
491 837 m 1,45,46
 518 840 518 840 562.5 843 c 128,-1,47
 607 846 607 846 667 846 c 0,48,49
 706 846 706 846 748.5 843.5 c 128,-1,50
 791 841 791 841 835 834 c 1,51,52
 855 853 855 853 877 881 c 128,-1,53
 899 909 899 909 917 946 c 128,-1,54
 935 983 935 983 947 1028.5 c 128,-1,55
 959 1074 959 1074 959 1130 c 0,56,57
 959 1220 959 1220 934 1278.5 c 128,-1,58
 909 1337 909 1337 865.5 1370.5 c 128,-1,59
 822 1404 822 1404 763 1417.5 c 128,-1,60
 704 1431 704 1431 636 1431 c 0,61,62
 595 1431 595 1431 557.5 1427.5 c 128,-1,63
 520 1424 520 1424 491 1420 c 1,64,-1
 491 837 l 1,45,46
491 121 m 1,65,66
 546 110 546 110 579 104 c 128,-1,67
 612 98 612 98 638 95 c 128,-1,68
 664 92 664 92 690 91.5 c 128,-1,69
 716 91 716 91 758 91 c 0,70,71
 791 91 791 91 824.5 93.5 c 128,-1,72
 858 96 858 96 889.5 101.5 c 128,-1,73
 921 107 921 107 947.5 114.5 c 128,-1,74
 974 122 974 122 993 132 c 1,75,76
 1010 153 1010 153 1024.5 175 c 128,-1,77
 1039 197 1039 197 1050 225.5 c 128,-1,78
 1061 254 1061 254 1067.5 291 c 128,-1,79
 1074 328 1074 328 1074 379 c 0,80,81
 1074 445 1074 445 1051.5 507.5 c 128,-1,82
 1029 570 1029 570 983 618.5 c 128,-1,83
 937 667 937 667 867 696 c 128,-1,84
 797 725 797 725 703 725 c 0,85,86
 616 725 616 725 567.5 723 c 128,-1,87
 519 721 519 721 491 718 c 1,88,-1
 491 121 l 1,65,66
EndSplineSet
EndChar

StartChar: C
Encoding: 67 67 51
Width: 1511
Flags: W
LayerCount: 2
Fore
SplineSet
100 737 m 0,0,1
 100 838 100 838 122 937.5 c 128,-1,2
 144 1037 144 1037 187 1127.5 c 128,-1,3
 230 1218 230 1218 294 1295 c 128,-1,4
 358 1372 358 1372 443 1428.5 c 128,-1,5
 528 1485 528 1485 632.5 1517 c 128,-1,6
 737 1549 737 1549 862 1549 c 0,7,8
 968 1549 968 1549 1063.5 1534 c 128,-1,9
 1159 1519 1159 1519 1233 1502 c 0,10,11
 1319 1482 1319 1482 1394 1456 c 1,12,-1
 1346 1080 l 1,13,-1
 1233 1080 l 1,14,-1
 1186 1298 l 1,15,16
 1147 1328 1147 1328 1101 1347 c 128,-1,17
 1055 1366 1055 1366 1004 1377.5 c 128,-1,18
 953 1389 953 1389 898 1393.5 c 128,-1,19
 843 1398 843 1398 786 1398 c 0,20,21
 699 1398 699 1398 616.5 1374 c 128,-1,22
 534 1350 534 1350 471 1307 c 1,23,24
 431 1260 431 1260 401.5 1203 c 128,-1,25
 372 1146 372 1146 353 1085 c 128,-1,26
 334 1024 334 1024 324.5 961.5 c 128,-1,27
 315 899 315 899 315 841 c 0,28,29
 315 694 315 694 351.5 568.5 c 128,-1,30
 388 443 388 443 466.5 350.5 c 128,-1,31
 545 258 545 258 669 205.5 c 128,-1,32
 793 153 793 153 968 153 c 0,33,34
 983 153 983 153 1028 167 c 128,-1,35
 1073 181 1073 181 1131.5 202 c 128,-1,36
 1190 223 1190 223 1252.5 247 c 128,-1,37
 1315 271 1315 271 1364 291 c 1,38,-1
 1403 209 l 1,39,40
 1267 120 1267 120 1169.5 73 c 128,-1,41
 1072 26 1072 26 1007.5 5 c 128,-1,42
 943 -16 943 -16 907 -18.5 c 128,-1,43
 871 -21 871 -21 858 -21 c 0,44,45
 730 -21 730 -21 624.5 8.5 c 128,-1,46
 519 38 519 38 434.5 90 c 128,-1,47
 350 142 350 142 287.5 214 c 128,-1,48
 225 286 225 286 183 370 c 128,-1,49
 141 454 141 454 120.5 547.5 c 128,-1,50
 100 641 100 641 100 737 c 0,0,1
EndSplineSet
EndChar

StartChar: D
Encoding: 68 68 52
Width: 1701
Flags: W
LayerCount: 2
Fore
SplineSet
102 82 m 1,0,1
 154 96 154 96 188 108 c 128,-1,2
 222 120 222 120 241 141 c 128,-1,3
 260 162 260 162 267.5 197 c 128,-1,4
 275 232 275 232 275 292 c 2,5,-1
 275 1392 l 1,6,-1
 102 1448 l 1,7,-1
 102 1530 l 1,8,-1
 380 1530 l 2,9,10
 440 1530 440 1530 492.5 1532 c 128,-1,11
 545 1534 545 1534 595.5 1536 c 128,-1,12
 646 1538 646 1538 698.5 1540 c 128,-1,13
 751 1542 751 1542 811 1542 c 0,14,15
 1002 1542 1002 1542 1147 1489.5 c 128,-1,16
 1292 1437 1292 1437 1390 1345.5 c 128,-1,17
 1488 1254 1488 1254 1537.5 1129.5 c 128,-1,18
 1587 1005 1587 1005 1587 861 c 0,19,20
 1587 743 1587 743 1563.5 631.5 c 128,-1,21
 1540 520 1540 520 1493.5 422.5 c 128,-1,22
 1447 325 1447 325 1378.5 243.5 c 128,-1,23
 1310 162 1310 162 1220 104 c 128,-1,24
 1130 46 1130 46 1019 13.5 c 128,-1,25
 908 -19 908 -19 778 -19 c 0,26,27
 731 -19 731 -19 657.5 -13.5 c 128,-1,28
 584 -8 584 -8 507 0 c 1,29,-1
 102 0 l 1,30,-1
 102 82 l 1,0,1
491 177 m 1,31,32
 507 169 507 169 535 159.5 c 128,-1,33
 563 150 563 150 601 141 c 128,-1,34
 639 132 639 132 685 126 c 128,-1,35
 731 120 731 120 783 120 c 0,36,37
 823 120 823 120 870.5 125 c 128,-1,38
 918 130 918 130 966 139 c 128,-1,39
 1014 148 1014 148 1057.5 161 c 128,-1,40
 1101 174 1101 174 1133 191 c 1,41,42
 1168 221 1168 221 1208.5 268 c 128,-1,43
 1249 315 1249 315 1283.5 383 c 128,-1,44
 1318 451 1318 451 1341 543.5 c 128,-1,45
 1364 636 1364 636 1364 757 c 0,46,47
 1364 923 1364 923 1320.5 1048 c 128,-1,48
 1277 1173 1277 1173 1194 1256 c 128,-1,49
 1111 1339 1111 1339 989.5 1381 c 128,-1,50
 868 1423 868 1423 712 1423 c 0,51,52
 697 1423 697 1423 655 1421.5 c 128,-1,53
 613 1420 613 1420 559 1415 c 1,54,55
 541 1408 541 1408 528.5 1397.5 c 128,-1,56
 516 1387 516 1387 507.5 1370.5 c 128,-1,57
 499 1354 499 1354 495 1329 c 128,-1,58
 491 1304 491 1304 491 1268 c 2,59,-1
 491 177 l 1,31,32
EndSplineSet
EndChar

StartChar: E
Encoding: 69 69 53
Width: 1366
Flags: W
LayerCount: 2
Fore
SplineSet
115 80 m 1,0,1
 165 94 165 94 196.5 105.5 c 128,-1,2
 228 117 228 117 245.5 137 c 128,-1,3
 263 157 263 157 269 190.5 c 128,-1,4
 275 224 275 224 275 281 c 2,5,-1
 275 1396 l 1,6,-1
 110 1450 l 1,7,-1
 110 1530 l 1,8,-1
 1005 1530 l 1,9,-1
 1147 1549 l 1,10,-1
 1147 1137 l 1,11,-1
 1043 1135 l 1,12,-1
 971 1384 l 1,13,14
 823 1390 823 1390 730.5 1393 c 128,-1,15
 638 1396 638 1396 584 1398 c 0,16,17
 522 1400 522 1400 491 1399 c 1,18,-1
 491 834 l 1,19,-1
 933 863 l 1,20,-1
 933 673 l 1,21,-1
 491 704 l 1,22,-1
 491 119 l 1,23,-1
 1072 143 l 1,24,-1
 1164 430 l 1,25,-1
 1272 430 l 1,26,-1
 1253 -18 l 1,27,-1
 1112 0 l 1,28,-1
 115 0 l 1,29,-1
 115 80 l 1,0,1
EndSplineSet
EndChar

StartChar: F
Encoding: 70 70 54
Width: 1355
Flags: W
LayerCount: 2
Fore
SplineSet
123 82 m 1,0,1
 175 96 175 96 205.5 108 c 128,-1,2
 236 120 236 120 251.5 141 c 128,-1,3
 267 162 267 162 271 197 c 128,-1,4
 275 232 275 232 275 292 c 2,5,-1
 275 1396 l 1,6,-1
 110 1450 l 1,7,-1
 110 1528 l 1,8,-1
 1133 1529 l 1,9,-1
 1275 1549 l 1,10,-1
 1255 1157 l 1,11,-1
 1150 1155 l 1,12,-1
 1080 1376 l 1,13,-1
 639 1394 l 2,14,15
 553 1398 553 1398 491 1399 c 1,16,-1
 491 834 l 1,17,-1
 1061 863 l 1,18,-1
 1060 673 l 1,19,-1
 491 704 l 1,20,-1
 491 137 l 1,21,-1
 819 89 l 1,22,-1
 819 0 l 1,23,-1
 123 0 l 1,24,-1
 123 82 l 1,0,1
EndSplineSet
EndChar

StartChar: G
Encoding: 71 71 55
Width: 1573
Flags: W
LayerCount: 2
Fore
SplineSet
100 736 m 0,0,1
 100 836 100 836 124 935.5 c 128,-1,2
 148 1035 148 1035 194 1125.5 c 128,-1,3
 240 1216 240 1216 307.5 1293.5 c 128,-1,4
 375 1371 375 1371 462 1428 c 128,-1,5
 549 1485 549 1485 654 1517.5 c 128,-1,6
 759 1550 759 1550 881 1550 c 0,7,8
 987 1550 987 1550 1080.5 1535.5 c 128,-1,9
 1174 1521 1174 1521 1246 1504 c 0,10,11
 1330 1484 1330 1484 1401 1458 c 1,12,-1
 1363 1080 l 1,13,-1
 1260 1080 l 1,14,-1
 1210 1297 l 1,15,16
 1169 1330 1169 1330 1119 1350 c 128,-1,17
 1069 1370 1069 1370 1013.5 1381 c 128,-1,18
 958 1392 958 1392 900 1395.5 c 128,-1,19
 842 1399 842 1399 787 1399 c 0,20,21
 746 1399 746 1399 702 1390.5 c 128,-1,22
 658 1382 658 1382 616 1366.5 c 128,-1,23
 574 1351 574 1351 538 1330.5 c 128,-1,24
 502 1310 502 1310 477 1286 c 1,25,26
 444 1243 444 1243 415.5 1192.5 c 128,-1,27
 387 1142 387 1142 366 1083.5 c 128,-1,28
 345 1025 345 1025 333 959.5 c 128,-1,29
 321 894 321 894 321 822 c 0,30,31
 321 731 321 731 337 644 c 128,-1,32
 353 557 353 557 384.5 480 c 128,-1,33
 416 403 416 403 464 337.5 c 128,-1,34
 512 272 512 272 575 225 c 128,-1,35
 638 178 638 178 716.5 151.5 c 128,-1,36
 795 125 795 125 889 125 c 0,37,38
 941 125 941 125 979.5 127 c 128,-1,39
 1018 129 1018 129 1049.5 133.5 c 128,-1,40
 1081 138 1081 138 1109.5 146 c 128,-1,41
 1138 154 1138 154 1170 166 c 1,42,-1
 1170 569 l 1,43,-1
 983 624 l 1,44,-1
 983 707 l 1,45,-1
 1484 707 l 1,46,-1
 1484 624 l 1,47,48
 1461 618 1461 618 1442 610.5 c 128,-1,49
 1423 603 1423 603 1409.5 592 c 128,-1,50
 1396 581 1396 581 1388 565.5 c 128,-1,51
 1380 550 1380 550 1380 528 c 2,52,-1
 1380 319 l 1,53,-1
 1388 119 l 1,54,55
 1287 62 1287 62 1190.5 33.5 c 128,-1,56
 1094 5 1094 5 1015.5 -7 c 128,-1,57
 937 -19 937 -19 883.5 -19.5 c 128,-1,58
 830 -20 830 -20 817 -20 c 0,59,60
 699 -20 699 -20 600 9.5 c 128,-1,61
 501 39 501 39 421.5 91 c 128,-1,62
 342 143 342 143 282 214.5 c 128,-1,63
 222 286 222 286 181.5 370 c 128,-1,64
 141 454 141 454 120.5 547 c 128,-1,65
 100 640 100 640 100 736 c 0,0,1
EndSplineSet
EndChar

StartChar: H
Encoding: 72 72 56
Width: 1706
Flags: W
LayerCount: 2
Fore
SplineSet
102 82 m 1,0,1
 154 96 154 96 188 108 c 128,-1,2
 222 120 222 120 241 141 c 128,-1,3
 260 162 260 162 267.5 197 c 128,-1,4
 275 232 275 232 275 292 c 2,5,-1
 275 1392 l 1,6,-1
 102 1448 l 1,7,-1
 102 1530 l 1,8,-1
 675 1530 l 1,9,-1
 675 1448 l 1,10,11
 623 1434 623 1434 587.5 1422 c 128,-1,12
 552 1410 552 1410 530.5 1389 c 128,-1,13
 509 1368 509 1368 500 1333 c 128,-1,14
 491 1298 491 1298 491 1238 c 2,15,-1
 491 849 l 1,16,-1
 1215 849 l 1,17,-1
 1215 1392 l 1,18,-1
 1042 1448 l 1,19,-1
 1042 1530 l 1,20,-1
 1616 1530 l 1,21,-1
 1616 1448 l 1,22,23
 1563 1434 1563 1434 1528 1422 c 128,-1,24
 1493 1410 1493 1410 1471 1389 c 128,-1,25
 1449 1368 1449 1368 1440 1333 c 128,-1,26
 1431 1298 1431 1298 1431 1238 c 2,27,-1
 1431 137 l 1,28,-1
 1628 82 l 1,29,-1
 1628 0 l 1,30,-1
 1042 0 l 1,31,-1
 1042 82 l 1,32,33
 1094 96 1094 96 1128 108 c 128,-1,34
 1162 120 1162 120 1181 141 c 128,-1,35
 1200 162 1200 162 1207.5 197 c 128,-1,36
 1215 232 1215 232 1215 292 c 2,37,-1
 1215 729 l 1,38,-1
 491 729 l 1,39,-1
 491 137 l 1,40,-1
 687 82 l 1,41,-1
 687 0 l 1,42,-1
 102 0 l 1,43,-1
 102 82 l 1,0,1
EndSplineSet
EndChar

StartChar: I
Encoding: 73 73 57
Width: 724
Flags: W
LayerCount: 2
Fore
SplineSet
104 82 m 1,0,1
 156 96 156 96 186 108 c 128,-1,2
 216 120 216 120 231 141 c 128,-1,3
 246 162 246 162 249.5 197 c 128,-1,4
 253 232 253 232 253 292 c 2,5,-1
 253 1390 l 1,6,-1
 109 1446 l 1,7,-1
 109 1528 l 1,8,-1
 626 1528 l 1,9,-1
 626 1446 l 1,10,11
 573 1432 573 1432 542 1420 c 128,-1,12
 511 1408 511 1408 495 1387 c 128,-1,13
 479 1366 479 1366 474 1331 c 128,-1,14
 469 1296 469 1296 469 1236 c 2,15,-1
 469 137 l 1,16,-1
 626 82 l 1,17,-1
 626 0 l 1,18,-1
 104 0 l 1,19,-1
 104 82 l 1,0,1
EndSplineSet
EndChar

StartChar: J
Encoding: 74 74 58
Width: 704
Flags: W
LayerCount: 2
Fore
SplineSet
265 1390 m 1,0,-1
 103 1446 l 1,1,-1
 103 1530 l 1,2,-1
 644 1530 l 1,3,-1
 644 1446 l 1,4,5
 595 1432 595 1432 563.5 1420 c 128,-1,6
 532 1408 532 1408 513.5 1387 c 128,-1,7
 495 1366 495 1366 488 1331 c 128,-1,8
 481 1296 481 1296 481 1236 c 2,9,-1
 481 464 l 2,10,11
 481 334 481 334 480.5 236 c 128,-1,12
 480 138 480 138 477 64 c 128,-1,13
 474 -10 474 -10 468.5 -62.5 c 128,-1,14
 463 -115 463 -115 454 -153.5 c 128,-1,15
 445 -192 445 -192 431 -220 c 128,-1,16
 417 -248 417 -248 397 -272 c 0,17,18
 346 -335 346 -335 302 -374 c 128,-1,19
 258 -413 258 -413 220.5 -437 c 128,-1,20
 183 -461 183 -461 152.5 -475 c 128,-1,21
 122 -489 122 -489 97 -502 c 1,22,-1
 38 -447 l 1,23,24
 91 -398 91 -398 133 -344 c 128,-1,25
 175 -290 175 -290 204.5 -227 c 128,-1,26
 234 -164 234 -164 249.5 -88.5 c 128,-1,27
 265 -13 265 -13 265 80 c 2,28,-1
 265 1390 l 1,0,-1
EndSplineSet
EndChar

StartChar: K
Encoding: 75 75 59
Width: 1500
Flags: W
LayerCount: 2
Fore
SplineSet
597 686 m 0,0,1
 580 712 580 712 565.5 738 c 128,-1,2
 551 764 551 764 546 779 c 1,3,-1
 1016 1396 l 1,4,-1
 864 1446 l 1,5,-1
 864 1530 l 1,6,-1
 1425 1530 l 1,7,-1
 1425 1446 l 1,8,9
 1389 1436 1389 1436 1361.5 1428.5 c 128,-1,10
 1334 1421 1334 1421 1308 1415.5 c 128,-1,11
 1282 1410 1282 1410 1256 1406 c 128,-1,12
 1230 1402 1230 1402 1197 1399 c 1,13,-1
 724 823 l 1,14,15
 735 808 735 808 752 784 c 128,-1,16
 769 760 769 760 799.5 720.5 c 128,-1,17
 830 681 830 681 878 621 c 128,-1,18
 926 561 926 561 998 473 c 0,19,20
 1031 433 1031 433 1070 389 c 128,-1,21
 1109 345 1109 345 1151.5 301.5 c 128,-1,22
 1194 258 1194 258 1237.5 217.5 c 128,-1,23
 1281 177 1281 177 1322.5 144 c 128,-1,24
 1364 111 1364 111 1402 87 c 128,-1,25
 1440 63 1440 63 1470 54 c 1,26,-1
 1469 -22 l 1,27,28
 1394 -22 1394 -22 1320 -20 c 128,-1,29
 1246 -18 1246 -18 1175 6 c 1,30,31
 1090 51 1090 51 1017 119 c 128,-1,32
 944 187 944 187 875.5 274.5 c 128,-1,33
 807 362 807 362 739 466 c 128,-1,34
 671 570 671 570 597 686 c 0,0,1
103 82 m 1,35,36
 155 96 155 96 188.5 108 c 128,-1,37
 222 120 222 120 241.5 141 c 128,-1,38
 261 162 261 162 268 197 c 128,-1,39
 275 232 275 232 275 292 c 2,40,-1
 275 1390 l 1,41,-1
 103 1446 l 1,42,-1
 103 1530 l 1,43,-1
 664 1530 l 1,44,-1
 664 1446 l 1,45,46
 611 1432 611 1432 577.5 1420 c 128,-1,47
 544 1408 544 1408 525 1387 c 128,-1,48
 506 1366 506 1366 498.5 1331 c 128,-1,49
 491 1296 491 1296 491 1236 c 2,50,-1
 491 137 l 1,51,-1
 664 82 l 1,52,-1
 664 0 l 1,53,-1
 103 0 l 1,54,-1
 103 82 l 1,35,36
EndSplineSet
EndChar

StartChar: L
Encoding: 76 76 60
Width: 1357
Flags: W
LayerCount: 2
Fore
SplineSet
113 82 m 1,0,1
 165 96 165 96 197 108 c 128,-1,2
 229 120 229 120 246.5 141 c 128,-1,3
 264 162 264 162 269.5 197 c 128,-1,4
 275 232 275 232 275 292 c 2,5,-1
 275 1390 l 1,6,-1
 103 1446 l 1,7,-1
 103 1530 l 1,8,-1
 684 1530 l 1,9,-1
 684 1446 l 1,10,11
 631 1433 631 1433 594.5 1421 c 128,-1,12
 558 1409 558 1409 535 1388 c 128,-1,13
 512 1367 512 1367 501.5 1331.5 c 128,-1,14
 491 1296 491 1296 491 1236 c 2,15,-1
 491 112 l 1,16,-1
 1072 143 l 1,17,-1
 1165 466 l 1,18,-1
 1278 466 l 1,19,-1
 1236 -18 l 1,20,-1
 1095 0 l 1,21,-1
 113 0 l 1,22,-1
 113 82 l 1,0,1
EndSplineSet
EndChar

StartChar: M
Encoding: 77 77 61
Width: 2043
Flags: W
LayerCount: 2
Fore
SplineSet
11 82 m 1,0,1
 63 96 63 96 91 109 c 128,-1,2
 119 122 119 122 134 143 c 128,-1,3
 149 164 149 164 158.5 198.5 c 128,-1,4
 168 233 168 233 183 292 c 2,5,-1
 196 344 l 1,6,-1
 329 1323 l 1,7,8
 324 1353 324 1353 314 1372.5 c 128,-1,9
 304 1392 304 1392 285.5 1405 c 128,-1,10
 267 1418 267 1418 239 1427.5 c 128,-1,11
 211 1437 211 1437 170 1448 c 1,12,-1
 170 1530 l 1,13,-1
 572 1530 l 1,14,-1
 572 1491 l 1,15,-1
 1025 355 l 1,16,-1
 1452 1504 l 1,17,-1
 1449 1530 l 1,18,-1
 1854 1530 l 1,19,-1
 1854 1446 l 1,20,21
 1801 1432 1801 1432 1767.5 1421.5 c 128,-1,22
 1734 1411 1734 1411 1715 1392 c 128,-1,23
 1696 1373 1696 1373 1688.5 1340 c 128,-1,24
 1681 1307 1681 1307 1681 1247 c 1,25,-1
 1848 138 l 1,26,-1
 2031 83 l 1,27,-1
 2031 0 l 1,28,-1
 1460 0 l 1,29,-1
 1460 83 l 1,30,31
 1512 97 1512 97 1544 109 c 128,-1,32
 1576 121 1576 121 1593.5 142 c 128,-1,33
 1611 163 1611 163 1616.5 198 c 128,-1,34
 1622 233 1622 233 1622 293 c 1,35,-1
 1491 1236 l 2,36,37
 1491 1238 1491 1238 1490.5 1240.5 c 128,-1,38
 1490 1243 1490 1243 1490 1245 c 2,39,-1
 1047 54 l 1,40,41
 1047 46 1047 46 1045 38 c 128,-1,42
 1043 30 1043 30 1038 25 c 1,43,-1
 946 -10 l 1,44,-1
 455 1250 l 1,45,-1
 344 384 l 1,46,-1
 339 137 l 1,47,-1
 512 82 l 1,48,-1
 512 0 l 1,49,-1
 11 0 l 1,50,-1
 11 82 l 1,0,1
EndSplineSet
EndChar

StartChar: N
Encoding: 78 78 62
Width: 1706
Flags: W
LayerCount: 2
Fore
SplineSet
81 82 m 1,0,1
 133 96 133 96 166 108 c 128,-1,2
 199 120 199 120 219 141 c 128,-1,3
 239 162 239 162 249 197 c 128,-1,4
 259 232 259 232 266 292 c 2,5,-1
 273 353 l 1,6,-1
 273 1315 l 1,7,8
 268 1348 268 1348 257 1368.5 c 128,-1,9
 246 1389 246 1389 226 1403 c 128,-1,10
 206 1417 206 1417 176 1426.5 c 128,-1,11
 146 1436 146 1436 104 1448 c 1,12,-1
 104 1530 l 1,13,-1
 423 1530 l 1,14,-1
 1343 367 l 1,15,-1
 1336 866 l 1,16,-1
 1327 1390 l 1,17,-1
 1155 1446 l 1,18,-1
 1155 1530 l 1,19,-1
 1637 1530 l 1,20,-1
 1637 1446 l 1,21,22
 1584 1432 1584 1432 1550.5 1420 c 128,-1,23
 1517 1408 1517 1408 1498 1387 c 128,-1,24
 1479 1366 1479 1366 1471.5 1331 c 128,-1,25
 1464 1296 1464 1296 1464 1236 c 2,26,-1
 1464 0 l 1,27,-1
 1348 0 l 1,28,-1
 1347 13 l 1,29,-1
 1344 0 l 1,30,-1
 413 1200 l 1,31,-1
 427 140 l 1,32,-1
 429 137 l 1,33,-1
 622 82 l 1,34,-1
 622 0 l 1,35,-1
 81 0 l 1,36,-1
 81 82 l 1,0,1
EndSplineSet
EndChar

StartChar: O
Encoding: 79 79 63
Width: 1706
Flags: W
LayerCount: 2
Fore
SplineSet
100 732 m 0,0,1
 100 833 100 833 122 933 c 128,-1,2
 144 1033 144 1033 187.5 1124 c 128,-1,3
 231 1215 231 1215 295.5 1293 c 128,-1,4
 360 1371 360 1371 445.5 1428 c 128,-1,5
 531 1485 531 1485 637.5 1517.5 c 128,-1,6
 744 1550 744 1550 870 1550 c 0,7,8
 994 1550 994 1550 1097.5 1521 c 128,-1,9
 1201 1492 1201 1492 1282.5 1440 c 128,-1,10
 1364 1388 1364 1388 1425 1317 c 128,-1,11
 1486 1246 1486 1246 1526.5 1162 c 128,-1,12
 1567 1078 1567 1078 1587 985 c 128,-1,13
 1607 892 1607 892 1607 796 c 0,14,15
 1607 695 1607 695 1585 595 c 128,-1,16
 1563 495 1563 495 1519.5 404.5 c 128,-1,17
 1476 314 1476 314 1411 236 c 128,-1,18
 1346 158 1346 158 1260.5 101.5 c 128,-1,19
 1175 45 1175 45 1068.5 12.5 c 128,-1,20
 962 -20 962 -20 836 -20 c 0,21,22
 712 -20 712 -20 609 9 c 128,-1,23
 506 38 506 38 424 89.5 c 128,-1,24
 342 141 342 141 281 212 c 128,-1,25
 220 283 220 283 180 366.5 c 128,-1,26
 140 450 140 450 120 543 c 128,-1,27
 100 636 100 636 100 732 c 0,0,1
323 836 m 0,28,29
 323 748 323 748 338.5 661 c 128,-1,30
 354 574 354 574 385.5 495 c 128,-1,31
 417 416 417 416 465.5 348 c 128,-1,32
 514 280 514 280 580 230.5 c 128,-1,33
 646 181 646 181 731 153 c 128,-1,34
 816 125 816 125 920 125 c 0,35,36
 1007 125 1007 125 1084.5 148 c 128,-1,37
 1162 171 1162 171 1225 208 c 1,38,39
 1265 263 1265 263 1295 323.5 c 128,-1,40
 1325 384 1325 384 1344.5 446.5 c 128,-1,41
 1364 509 1364 509 1374 571 c 128,-1,42
 1384 633 1384 633 1384 692 c 0,43,44
 1384 780 1384 780 1368.5 867 c 128,-1,45
 1353 954 1353 954 1321.5 1033.5 c 128,-1,46
 1290 1113 1290 1113 1241.5 1180.5 c 128,-1,47
 1193 1248 1193 1248 1126.5 1298 c 128,-1,48
 1060 1348 1060 1348 975 1376 c 128,-1,49
 890 1404 890 1404 786 1404 c 0,50,51
 699 1404 699 1404 621.5 1379.5 c 128,-1,52
 544 1355 544 1355 481 1315 c 1,53,54
 441 1260 441 1260 411 1200.5 c 128,-1,55
 381 1141 381 1141 361.5 1079.5 c 128,-1,56
 342 1018 342 1018 332.5 956 c 128,-1,57
 323 894 323 894 323 836 c 0,28,29
EndSplineSet
EndChar

StartChar: P
Encoding: 80 80 64
Width: 1379
Flags: W
LayerCount: 2
Fore
SplineSet
103 82 m 1,0,1
 155 96 155 96 188.5 108 c 128,-1,2
 222 120 222 120 241.5 141 c 128,-1,3
 261 162 261 162 268 197 c 128,-1,4
 275 232 275 232 275 292 c 2,5,-1
 275 1390 l 1,6,-1
 103 1456 l 1,7,-1
 103 1538 l 1,8,9
 184 1531 184 1531 247 1530.5 c 128,-1,10
 310 1530 310 1530 362 1530 c 0,11,12
 435 1530 435 1530 491 1533.5 c 128,-1,13
 547 1537 547 1537 600.5 1541.5 c 128,-1,14
 654 1546 654 1546 712 1550 c 128,-1,15
 770 1554 770 1554 847 1554 c 0,16,17
 958 1554 958 1554 1041.5 1519.5 c 128,-1,18
 1125 1485 1125 1485 1181.5 1425 c 128,-1,19
 1238 1365 1238 1365 1266 1282.5 c 128,-1,20
 1294 1200 1294 1200 1294 1104 c 0,21,22
 1294 1025 1294 1025 1272.5 954.5 c 128,-1,23
 1251 884 1251 884 1213 824.5 c 128,-1,24
 1175 765 1175 765 1122.5 717.5 c 128,-1,25
 1070 670 1070 670 1008 636.5 c 128,-1,26
 946 603 946 603 876.5 585 c 128,-1,27
 807 567 807 567 735 567 c 0,28,29
 711 567 711 567 679.5 568.5 c 128,-1,30
 648 570 648 570 614 573.5 c 128,-1,31
 580 577 580 577 548 582.5 c 128,-1,32
 516 588 516 588 491 595 c 1,33,-1
 491 137 l 1,34,-1
 704 82 l 1,35,-1
 704 0 l 1,36,-1
 103 0 l 1,37,-1
 103 82 l 1,0,1
491 740 m 1,38,39
 533 724 533 724 586.5 713.5 c 128,-1,40
 640 703 640 703 699.5 700 c 128,-1,41
 759 697 759 697 821 702.5 c 128,-1,42
 883 708 883 708 943 725 c 1,43,44
 973 753 973 753 997.5 781 c 128,-1,45
 1022 809 1022 809 1039.5 846 c 128,-1,46
 1057 883 1057 883 1066 934.5 c 128,-1,47
 1075 986 1075 986 1075 1060 c 0,48,49
 1075 1140 1075 1140 1054 1210 c 128,-1,50
 1033 1280 1033 1280 989.5 1331.5 c 128,-1,51
 946 1383 946 1383 880 1413 c 128,-1,52
 814 1443 814 1443 724 1443 c 0,53,54
 667 1443 667 1443 623.5 1435.5 c 128,-1,55
 580 1428 580 1428 550.5 1406 c 128,-1,56
 521 1384 521 1384 506 1343.5 c 128,-1,57
 491 1303 491 1303 491 1236 c 2,58,-1
 491 740 l 1,38,39
EndSplineSet
EndChar

StartChar: Q
Encoding: 81 81 65
Width: 1706
Flags: W
LayerCount: 2
Fore
SplineSet
100 732 m 0,0,1
 100 833 100 833 122 933 c 128,-1,2
 144 1033 144 1033 187.5 1124 c 128,-1,3
 231 1215 231 1215 295.5 1293 c 128,-1,4
 360 1371 360 1371 445.5 1428 c 128,-1,5
 531 1485 531 1485 637.5 1517.5 c 128,-1,6
 744 1550 744 1550 870 1550 c 0,7,8
 994 1550 994 1550 1097.5 1521 c 128,-1,9
 1201 1492 1201 1492 1282.5 1440 c 128,-1,10
 1364 1388 1364 1388 1425 1317 c 128,-1,11
 1486 1246 1486 1246 1526.5 1162 c 128,-1,12
 1567 1078 1567 1078 1587 985 c 128,-1,13
 1607 892 1607 892 1607 796 c 0,14,15
 1607 698 1607 698 1586.5 601 c 128,-1,16
 1566 504 1566 504 1525 415.5 c 128,-1,17
 1484 327 1484 327 1423 250.5 c 128,-1,18
 1362 174 1362 174 1282 116 c 1,19,20
 1309 88 1309 88 1338 61.5 c 128,-1,21
 1367 35 1367 35 1399 9 c 0,22,23
 1464 -44 1464 -44 1528 -91.5 c 128,-1,24
 1592 -139 1592 -139 1652.5 -176.5 c 128,-1,25
 1713 -214 1713 -214 1768.5 -239.5 c 128,-1,26
 1824 -265 1824 -265 1872 -274 c 1,27,-1
 1881 -325 l 1,28,29
 1846 -329 1846 -329 1803.5 -334 c 128,-1,30
 1761 -339 1761 -339 1726 -342 c 1,31,32
 1691 -347 1691 -347 1656.5 -348 c 128,-1,33
 1622 -349 1622 -349 1588 -347 c 0,34,35
 1532 -343 1532 -343 1480 -322 c 128,-1,36
 1428 -301 1428 -301 1380 -268 c 128,-1,37
 1332 -235 1332 -235 1288.5 -193 c 128,-1,38
 1245 -151 1245 -151 1206 -105 c 0,39,40
 1178 -72 1178 -72 1153.5 -40 c 128,-1,41
 1129 -8 1129 -8 1106 25 c 1,42,43
 1045 3 1045 3 978 -8.5 c 128,-1,44
 911 -20 911 -20 836 -20 c 0,45,46
 712 -20 712 -20 609 9 c 128,-1,47
 506 38 506 38 424 89.5 c 128,-1,48
 342 141 342 141 281 212 c 128,-1,49
 220 283 220 283 180 366.5 c 128,-1,50
 140 450 140 450 120 543 c 128,-1,51
 100 636 100 636 100 732 c 0,0,1
323 836 m 0,52,53
 323 748 323 748 338.5 661 c 128,-1,54
 354 574 354 574 385.5 495 c 128,-1,55
 417 416 417 416 465.5 348 c 128,-1,56
 514 280 514 280 580 230.5 c 128,-1,57
 646 181 646 181 731 153 c 128,-1,58
 816 125 816 125 920 125 c 0,59,60
 1007 125 1007 125 1084.5 148 c 128,-1,61
 1162 171 1162 171 1225 208 c 1,62,63
 1265 263 1265 263 1295 323.5 c 128,-1,64
 1325 384 1325 384 1344.5 446.5 c 128,-1,65
 1364 509 1364 509 1374 571 c 128,-1,66
 1384 633 1384 633 1384 692 c 0,67,68
 1384 780 1384 780 1368.5 867 c 128,-1,69
 1353 954 1353 954 1321.5 1033.5 c 128,-1,70
 1290 1113 1290 1113 1241.5 1180.5 c 128,-1,71
 1193 1248 1193 1248 1126.5 1298 c 128,-1,72
 1060 1348 1060 1348 975 1376 c 128,-1,73
 890 1404 890 1404 786 1404 c 0,74,75
 699 1404 699 1404 621.5 1379.5 c 128,-1,76
 544 1355 544 1355 481 1315 c 1,77,78
 441 1260 441 1260 411 1200.5 c 128,-1,79
 381 1141 381 1141 361.5 1079.5 c 128,-1,80
 342 1018 342 1018 332.5 956 c 128,-1,81
 323 894 323 894 323 836 c 0,52,53
EndSplineSet
EndChar

StartChar: R
Encoding: 82 82 66
Width: 1462
Flags: W
LayerCount: 2
Fore
SplineSet
110 80 m 1,0,1
 160 93 160 93 192 104.5 c 128,-1,2
 224 116 224 116 242.5 136 c 128,-1,3
 261 156 261 156 268 189.5 c 128,-1,4
 275 223 275 223 275 280 c 2,5,-1
 275 1396 l 1,6,-1
 110 1449 l 1,7,-1
 110 1530 l 1,8,-1
 386 1530 l 2,9,10
 420 1530 420 1530 448 1531.5 c 128,-1,11
 476 1533 476 1533 503 1535 c 128,-1,12
 530 1537 530 1537 558.5 1540 c 128,-1,13
 587 1543 587 1543 624 1545 c 128,-1,14
 661 1547 661 1547 708.5 1548.5 c 128,-1,15
 756 1550 756 1550 821 1550 c 0,16,17
 914 1550 914 1550 992.5 1526.5 c 128,-1,18
 1071 1503 1071 1503 1127.5 1456 c 128,-1,19
 1184 1409 1184 1409 1216 1337.5 c 128,-1,20
 1248 1266 1248 1266 1248 1170 c 0,21,22
 1248 1093 1248 1093 1221 1016 c 128,-1,23
 1194 939 1194 939 1146.5 874 c 128,-1,24
 1099 809 1099 809 1035 762.5 c 128,-1,25
 971 716 971 716 896 700 c 1,26,27
 908 672 908 672 926.5 634 c 128,-1,28
 945 596 945 596 969 553 c 128,-1,29
 993 510 993 510 1022.5 465.5 c 128,-1,30
 1052 421 1052 421 1086 379 c 0,31,32
 1134 319 1134 319 1185 264.5 c 128,-1,33
 1236 210 1236 210 1286 166 c 128,-1,34
 1336 122 1336 122 1385.5 90 c 128,-1,35
 1435 58 1435 58 1480 44 c 1,36,-1
 1479 -7 l 1,37,38
 1444 -7 1444 -7 1401 -7 c 128,-1,39
 1358 -7 1358 -7 1323 -6 c 0,40,41
 1288 -6 1288 -6 1253 -3.5 c 128,-1,42
 1218 -1 1218 -1 1185 6 c 0,43,44
 1131 16 1131 16 1088.5 44 c 128,-1,45
 1046 72 1046 72 1010.5 112 c 128,-1,46
 975 152 975 152 943.5 200.5 c 128,-1,47
 912 249 912 249 878 301 c 0,48,49
 851 344 851 344 827.5 388.5 c 128,-1,50
 804 433 804 433 782 479.5 c 128,-1,51
 760 526 760 526 738 574.5 c 128,-1,52
 716 623 716 623 692 673 c 1,53,54
 656 674 656 674 608 678 c 128,-1,55
 560 682 560 682 491 691 c 1,56,-1
 491 132 l 1,57,-1
 679 80 l 1,58,-1
 679 1 l 1,59,-1
 110 1 l 1,60,-1
 110 80 l 1,0,1
491 796 m 1,61,62
 544 786 544 786 602 782.5 c 128,-1,63
 660 779 660 779 716.5 783.5 c 128,-1,64
 773 788 773 788 824.5 800 c 128,-1,65
 876 812 876 812 916 834 c 1,66,67
 939 856 939 856 960 883 c 128,-1,68
 981 910 981 910 997 945 c 128,-1,69
 1013 980 1013 980 1022.5 1024.5 c 128,-1,70
 1032 1069 1032 1069 1032 1126 c 0,71,72
 1032 1202 1032 1202 1005.5 1262 c 128,-1,73
 979 1322 979 1322 932 1363.5 c 128,-1,74
 885 1405 885 1405 820 1427 c 128,-1,75
 755 1449 755 1449 678 1449 c 0,76,77
 612 1449 612 1449 574.5 1439.5 c 128,-1,78
 537 1430 537 1430 518.5 1405 c 128,-1,79
 500 1380 500 1380 495.5 1336.5 c 128,-1,80
 491 1293 491 1293 491 1226 c 2,81,-1
 491 796 l 1,61,62
EndSplineSet
EndChar

StartChar: S
Encoding: 83 83 67
Width: 1334
Flags: W
LayerCount: 2
Fore
SplineSet
203 499 m 1,0,-1
 317 497 l 1,1,-1
 359 267 l 1,2,3
 365 245 365 245 371 231.5 c 128,-1,4
 377 218 377 218 383.5 210 c 128,-1,5
 390 202 390 202 396 197.5 c 128,-1,6
 402 193 402 193 407 190 c 0,7,8
 429 179 429 179 468 165.5 c 128,-1,9
 507 152 507 152 555 140 c 128,-1,10
 603 128 603 128 655 120 c 128,-1,11
 707 112 707 112 757 112 c 0,12,13
 800 112 800 112 835 122 c 128,-1,14
 870 132 870 132 898 147 c 128,-1,15
 926 162 926 162 947.5 180.5 c 128,-1,16
 969 199 969 199 986 216 c 1,17,18
 991 225 991 225 997 239.5 c 128,-1,19
 1003 254 1003 254 1008.5 271.5 c 128,-1,20
 1014 289 1014 289 1018 309 c 128,-1,21
 1022 329 1022 329 1022 348 c 0,22,23
 1022 426 1022 426 986 478.5 c 128,-1,24
 950 531 950 531 890.5 568 c 128,-1,25
 831 605 831 605 755.5 632.5 c 128,-1,26
 680 660 680 660 601 688 c 128,-1,27
 522 716 522 716 446.5 750.5 c 128,-1,28
 371 785 371 785 311.5 836 c 128,-1,29
 252 887 252 887 216 959.5 c 128,-1,30
 180 1032 180 1032 180 1138 c 0,31,32
 180 1212 180 1212 204 1271 c 128,-1,33
 228 1330 228 1330 270 1376 c 128,-1,34
 312 1422 312 1422 368.5 1455 c 128,-1,35
 425 1488 425 1488 490.5 1509 c 128,-1,36
 556 1530 556 1530 627 1540 c 128,-1,37
 698 1550 698 1550 769 1550 c 0,38,39
 827 1550 827 1550 872 1545.5 c 128,-1,40
 917 1541 917 1541 959 1533.5 c 128,-1,41
 1001 1526 1001 1526 1046 1517 c 128,-1,42
 1091 1508 1091 1508 1148 1500 c 1,43,-1
 1119 1104 l 1,44,-1
 1012 1104 l 1,45,-1
 972 1271 l 2,46,47
 967 1294 967 1294 960.5 1309.5 c 128,-1,48
 954 1325 954 1325 945 1336.5 c 128,-1,49
 936 1348 936 1348 925 1355.5 c 128,-1,50
 914 1363 914 1363 900 1370 c 1,51,52
 858 1387 858 1387 799.5 1400 c 128,-1,53
 741 1413 741 1413 669 1413 c 0,54,55
 609 1413 609 1413 559.5 1405.5 c 128,-1,56
 510 1398 510 1398 475 1378 c 1,57,58
 464 1364 464 1364 448.5 1350 c 128,-1,59
 433 1336 433 1336 419.5 1316 c 128,-1,60
 406 1296 406 1296 396.5 1267.5 c 128,-1,61
 387 1239 387 1239 387 1197 c 0,62,63
 387 1115 387 1115 423 1060.5 c 128,-1,64
 459 1006 459 1006 518 968.5 c 128,-1,65
 577 931 577 931 652 905 c 128,-1,66
 727 879 727 879 805.5 853 c 128,-1,67
 884 827 884 827 959 795.5 c 128,-1,68
 1034 764 1034 764 1093 717 c 128,-1,69
 1152 670 1152 670 1188 601 c 128,-1,70
 1224 532 1224 532 1224 431 c 0,71,72
 1224 303 1224 303 1173 215.5 c 128,-1,73
 1122 128 1122 128 1035 75 c 128,-1,74
 948 22 948 22 833.5 -1 c 128,-1,75
 719 -24 719 -24 592 -24 c 0,76,77
 541 -24 541 -24 484.5 -14 c 128,-1,78
 428 -4 428 -4 371.5 13 c 128,-1,79
 315 30 315 30 261 52.5 c 128,-1,80
 207 75 207 75 159 100 c 1,81,-1
 203 499 l 1,0,-1
EndSplineSet
EndChar

StartChar: T
Encoding: 84 84 68
Width: 1364
Flags: W
LayerCount: 2
Fore
SplineSet
354 82 m 1,0,1
 410 92 410 92 452.5 103.5 c 128,-1,2
 495 115 495 115 523 137 c 128,-1,3
 551 159 551 159 565 195.5 c 128,-1,4
 579 232 579 232 579 292 c 2,5,-1
 579 1398 l 1,6,7
 529 1396 529 1396 443.5 1393 c 128,-1,8
 358 1390 358 1390 223 1384 c 1,9,-1
 131 1136 l 1,10,-1
 37 1136 l 1,11,-1
 57 1549 l 1,12,-1
 189 1530 l 1,13,-1
 1181 1530 l 1,14,-1
 1313 1549 l 1,15,-1
 1287 1136 l 1,16,-1
 1193 1136 l 1,17,-1
 1147 1384 l 1,18,19
 1026 1389 1026 1389 945 1392 c 128,-1,20
 864 1395 864 1395 812 1397 c 1,21,22
 802 1383 802 1383 798.5 1358 c 128,-1,23
 795 1333 795 1333 795 1289 c 2,24,-1
 795 137 l 1,25,-1
 1028 82 l 1,26,-1
 1028 0 l 1,27,-1
 354 0 l 1,28,-1
 354 82 l 1,0,1
EndSplineSet
EndChar

StartChar: U
Encoding: 85 85 69
Width: 1665
Flags: W
LayerCount: 2
Fore
SplineSet
218 1390 m 1,0,-1
 67 1446 l 1,1,-1
 67 1530 l 1,2,-1
 458 1530 l 1,3,4
 451 1504 451 1504 446.5 1475.5 c 128,-1,5
 442 1447 442 1447 439 1409.5 c 128,-1,6
 436 1372 436 1372 435 1322 c 128,-1,7
 434 1272 434 1272 433.5 1202 c 128,-1,8
 433 1132 433 1132 433 1039 c 128,-1,9
 433 946 433 946 433 823 c 2,10,-1
 433 570 l 2,11,12
 433 464 433 464 445.5 388.5 c 128,-1,13
 458 313 458 313 490 264.5 c 128,-1,14
 522 216 522 216 578.5 193.5 c 128,-1,15
 635 171 635 171 724 171 c 0,16,17
 791 171 791 171 851 181.5 c 128,-1,18
 911 192 911 192 965.5 213.5 c 128,-1,19
 1020 235 1020 235 1071.5 267.5 c 128,-1,20
 1123 300 1123 300 1173 344 c 1,21,-1
 1173 1390 l 1,22,-1
 1060 1446 l 1,23,-1
 1060 1530 l 1,24,-1
 1542 1530 l 1,25,-1
 1542 1446 l 1,26,27
 1516 1435 1516 1435 1488.5 1428 c 128,-1,28
 1461 1421 1461 1421 1439 1405 c 128,-1,29
 1417 1389 1417 1389 1403 1357.5 c 128,-1,30
 1389 1326 1389 1326 1389 1266 c 2,31,-1
 1389 752 l 1,32,33
 1390 654 1390 654 1391 581 c 128,-1,34
 1392 508 1392 508 1392.5 452.5 c 128,-1,35
 1393 397 1393 397 1394.5 354.5 c 128,-1,36
 1396 312 1396 312 1397.5 276.5 c 128,-1,37
 1399 241 1399 241 1402 208 c 128,-1,38
 1405 175 1405 175 1409 137 c 1,39,-1
 1555 82 l 1,40,-1
 1555 0 l 1,41,-1
 1195 0 l 1,42,43
 1193 38 1193 38 1192 77 c 1,44,45
 1190 110 1190 110 1189.5 147.5 c 128,-1,46
 1189 185 1189 185 1188 217 c 1,47,48
 1170 197 1170 197 1140.5 171.5 c 128,-1,49
 1111 146 1111 146 1072.5 120 c 128,-1,50
 1034 94 1034 94 987.5 68.5 c 128,-1,51
 941 43 941 43 889.5 23.5 c 128,-1,52
 838 4 838 4 783 -8 c 128,-1,53
 728 -20 728 -20 673 -20 c 0,54,55
 624 -20 624 -20 571.5 -16 c 128,-1,56
 519 -12 519 -12 468.5 3 c 128,-1,57
 418 18 418 18 372.5 48 c 128,-1,58
 327 78 327 78 292.5 129.5 c 128,-1,59
 258 181 258 181 238 257.5 c 128,-1,60
 218 334 218 334 218 443 c 2,61,-1
 218 1390 l 1,0,-1
EndSplineSet
EndChar

StartChar: V
Encoding: 86 86 70
Width: 1535
Flags: W
LayerCount: 2
Fore
SplineSet
188 1237 m 1,0,-1
 186 1238 l 1,1,-1
 122 1400 l 1,2,-1
 -41 1448 l 1,3,-1
 -41 1530 l 1,4,-1
 553 1530 l 1,5,-1
 553 1448 l 1,6,7
 514 1437 514 1437 486.5 1428.5 c 128,-1,8
 459 1420 459 1420 439.5 1408 c 128,-1,9
 420 1396 420 1396 407 1379.5 c 128,-1,10
 394 1363 394 1363 386 1337 c 1,11,-1
 803 219 l 1,12,-1
 1201 1403 l 1,13,-1
 1016 1448 l 1,14,-1
 1016 1530 l 1,15,-1
 1565 1530 l 1,16,-1
 1565 1448 l 1,17,18
 1513 1434 1513 1434 1467.5 1425 c 128,-1,19
 1422 1416 1422 1416 1385 1399 c 1,20,-1
 885 30 l 1,21,-1
 692 -24 l 1,22,-1
 188 1237 l 1,0,-1
EndSplineSet
EndChar

StartChar: W
Encoding: 87 87 71
Width: 2214
Flags: W
LayerCount: 2
Fore
SplineSet
154 1393 m 1,0,-1
 -10 1448 l 1,1,-1
 -10 1530 l 1,2,-1
 565 1530 l 1,3,-1
 565 1448 l 1,4,5
 523 1436 523 1436 494.5 1426.5 c 128,-1,6
 466 1417 466 1417 447 1403 c 128,-1,7
 428 1389 428 1389 417.5 1369 c 128,-1,8
 407 1349 407 1349 400 1316 c 1,9,-1
 763 219 l 1,10,-1
 1059 1156 l 1,11,-1
 1026 1251 l 1,12,-1
 970 1393 l 1,13,-1
 817 1448 l 1,14,-1
 817 1530 l 1,15,-1
 1429 1530 l 1,16,-1
 1429 1448 l 1,17,18
 1378 1434 1378 1434 1338.5 1424 c 128,-1,19
 1299 1414 1299 1414 1273 1400.5 c 128,-1,20
 1247 1387 1247 1387 1233 1367 c 128,-1,21
 1219 1347 1219 1347 1219 1313 c 1,22,-1
 1573 233 l 1,23,-1
 1915 1368 l 1,24,-1
 1915 1393 l 1,25,-1
 1742 1448 l 1,26,-1
 1742 1530 l 1,27,-1
 2267 1530 l 1,28,-1
 2267 1448 l 1,29,30
 2219 1435 2219 1435 2174 1426.5 c 128,-1,31
 2129 1418 2129 1418 2091 1404 c 1,32,-1
 1647 20 l 1,33,-1
 1468 -34 l 1,34,-1
 1129 952 l 1,35,-1
 829 20 l 1,36,-1
 658 -34 l 1,37,-1
 154 1393 l 1,0,-1
EndSplineSet
EndChar

StartChar: X
Encoding: 88 88 72
Width: 1532
Flags: W
LayerCount: 2
Fore
SplineSet
42 82 m 1,0,-1
 187 137 l 1,1,-1
 273 228 l 1,2,-1
 653 742 l 1,3,-1
 207 1382 l 1,4,-1
 198 1393 l 1,5,-1
 44 1448 l 1,6,-1
 44 1530 l 1,7,-1
 625 1530 l 1,8,-1
 625 1448 l 1,9,10
 532 1448 532 1448 501 1418.5 c 128,-1,11
 470 1389 470 1389 491 1338 c 1,12,-1
 790 893 l 1,13,-1
 1137 1396 l 1,14,-1
 988 1448 l 1,15,-1
 988 1530 l 1,16,-1
 1490 1530 l 1,17,-1
 1490 1448 l 1,18,19
 1442 1443 1442 1443 1404.5 1431.5 c 128,-1,20
 1367 1420 1367 1420 1334.5 1399 c 128,-1,21
 1302 1378 1302 1378 1272 1346 c 128,-1,22
 1242 1314 1242 1314 1210 1269 c 1,23,-1
 1205 1265 l 1,24,-1
 865 784 l 1,25,-1
 1326 139 l 1,26,27
 1363 128 1363 128 1404 112 c 128,-1,28
 1445 96 1445 96 1497 82 c 1,29,-1
 1497 0 l 1,30,-1
 1006 0 l 1,31,-1
 1006 82 l 1,32,-1
 1085 104 l 1,33,-1
 729 631 l 1,34,-1
 459 248 l 1,35,36
 438 211 438 211 432.5 183.5 c 128,-1,37
 427 156 427 156 443.5 136 c 128,-1,38
 460 116 460 116 501.5 103 c 128,-1,39
 543 90 543 90 615 82 c 1,40,-1
 615 0 l 1,41,-1
 42 0 l 1,42,-1
 42 82 l 1,0,-1
EndSplineSet
EndChar

StartChar: Y
Encoding: 89 89 73
Width: 1474
Flags: W
LayerCount: 2
Fore
SplineSet
407 83 m 1,0,1
 471 93 471 93 516.5 104.5 c 128,-1,2
 562 116 562 116 591.5 138 c 128,-1,3
 621 160 621 160 635 196.5 c 128,-1,4
 649 233 649 233 649 293 c 2,5,-1
 649 597 l 1,6,-1
 164 1370 l 1,7,-1
 143 1393 l 1,8,-1
 12 1448 l 1,9,-1
 12 1530 l 1,10,-1
 577 1530 l 1,11,-1
 577 1448 l 1,12,13
 481 1437 481 1437 443 1414 c 128,-1,14
 405 1391 405 1391 417 1339 c 1,15,-1
 782 710 l 1,16,-1
 1160 1401 l 1,17,-1
 995 1448 l 1,18,-1
 995 1530 l 1,19,-1
 1463 1530 l 1,20,-1
 1463 1448 l 1,21,22
 1424 1437 1424 1437 1391.5 1428 c 128,-1,23
 1359 1419 1359 1419 1333 1408 c 1,24,-1
 865 597 l 1,25,-1
 865 138 l 1,26,-1
 1108 83 l 1,27,-1
 1108 1 l 1,28,-1
 407 1 l 1,29,-1
 407 83 l 1,0,1
EndSplineSet
EndChar

StartChar: Z
Encoding: 90 90 74
Width: 1366
Flags: W
LayerCount: 2
Fore
SplineSet
78 87 m 1,0,-1
 992 1421 l 1,1,2
 913 1414 913 1414 839.5 1408 c 128,-1,3
 766 1402 766 1402 688 1396 c 128,-1,4
 610 1390 610 1390 524 1384.5 c 128,-1,5
 438 1379 438 1379 333 1375 c 1,6,-1
 261 1135 l 1,7,-1
 167 1137 l 1,8,-1
 167 1549 l 1,9,-1
 299 1530 l 1,10,-1
 1254 1530 l 1,11,-1
 1274 1444 l 1,12,-1
 358 118 l 1,13,14
 461 125 461 125 567.5 132 c 128,-1,15
 674 139 674 139 770.5 145.5 c 128,-1,16
 867 152 867 152 946.5 156.5 c 128,-1,17
 1026 161 1026 161 1076 163 c 1,18,-1
 1188 420 l 1,19,-1
 1286 420 l 1,20,-1
 1257 -18 l 1,21,-1
 1126 0 l 1,22,-1
 100 0 l 1,23,-1
 78 87 l 1,0,-1
EndSplineSet
EndChar

StartChar: bracketleft
Encoding: 91 91 75
Width: 683
Flags: W
LayerCount: 2
Fore
SplineSet
170 1798 m 1,0,-1
 515 1798 l 1,1,-1
 515 1678 l 1,2,-1
 325 1640 l 1,3,-1
 325 -228 l 1,4,-1
 515 -242 l 1,5,-1
 515 -355 l 1,6,-1
 170 -355 l 1,7,-1
 170 1798 l 1,0,-1
EndSplineSet
EndChar

StartChar: asciicircum
Encoding: 94 94 78
Width: 1193
Flags: W
LayerCount: 2
Fore
SplineSet
502 1530 m 1,0,-1
 695 1530 l 1,1,-1
 1057 510 l 1,2,-1
 907 510 l 1,3,-1
 596 1311 l 1,4,-1
 296 510 l 1,5,-1
 136 510 l 1,6,-1
 502 1530 l 1,0,-1
EndSplineSet
EndChar

StartChar: underscore
Encoding: 95 95 79
Width: 1327
Flags: W
LayerCount: 2
Fore
SplineSet
1337 -177 m 1,0,-1
 1337 -340 l 1,1,-1
 -10 -340 l 1,2,-1
 -10 -177 l 1,3,-1
 1337 -177 l 1,0,-1
EndSplineSet
EndChar

StartChar: grave
Encoding: 96 96 80
Width: 0
Flags: W
LayerCount: 2
Fore
SplineSet
-247 1519 m 1,0,1
 -229 1538 -229 1538 -204.5 1558.5 c 128,-1,2
 -180 1579 -180 1579 -154 1597 c 128,-1,3
 -128 1615 -128 1615 -102 1628 c 128,-1,4
 -76 1641 -76 1641 -55 1645 c 1,5,6
 22 1539 22 1539 95.5 1434 c 128,-1,7
 169 1329 169 1329 248 1229 c 1,8,-1
 158 1164 l 1,9,-1
 -247 1519 l 1,0,1
EndSplineSet
EndChar

StartChar: a
Encoding: 97 97 81
Width: 1098
Flags: W
LayerCount: 2
Fore
SplineSet
103 254 m 0,0,1
 103 296 103 296 110.5 331 c 128,-1,2
 118 366 118 366 140.5 396.5 c 128,-1,3
 163 427 163 427 204.5 454.5 c 128,-1,4
 246 482 246 482 313.5 509 c 128,-1,5
 381 536 381 536 478 564 c 128,-1,6
 575 592 575 592 710 624 c 1,7,-1
 710 777 l 2,8,9
 710 805 710 805 706.5 830.5 c 128,-1,10
 703 856 703 856 685 875.5 c 128,-1,11
 667 895 667 895 629.5 907.5 c 128,-1,12
 592 920 592 920 525 921 c 0,13,14
 477 921 477 921 445 907.5 c 128,-1,15
 413 894 413 894 390.5 866 c 128,-1,16
 368 838 368 838 351.5 796.5 c 128,-1,17
 335 755 335 755 318 700 c 1,18,-1
 158 700 l 1,19,-1
 179 906 l 1,20,21
 212 920 212 920 251 936 c 128,-1,22
 290 952 290 952 330.5 967 c 128,-1,23
 371 982 371 982 411 995.5 c 128,-1,24
 451 1009 451 1009 485.5 1019.5 c 128,-1,25
 520 1030 520 1030 547 1036 c 128,-1,26
 574 1042 574 1042 589 1042 c 0,27,28
 679 1042 679 1042 741.5 1028 c 128,-1,29
 804 1014 804 1014 844 980.5 c 128,-1,30
 884 947 884 947 902 891.5 c 128,-1,31
 920 836 920 836 920 754 c 2,32,-1
 920 179 l 2,33,34
 920 152 920 152 944 140 c 128,-1,35
 968 128 968 128 996.5 124 c 128,-1,36
 1025 120 1025 120 1049 120 c 128,-1,37
 1073 120 1073 120 1073 118 c 2,38,-1
 1073 35 l 1,39,40
 1053 27 1053 27 1026.5 17.5 c 128,-1,41
 1000 8 1000 8 970 0 c 128,-1,42
 940 -8 940 -8 909.5 -14 c 128,-1,43
 879 -20 879 -20 851 -20 c 0,44,45
 780 -20 780 -20 750 17 c 128,-1,46
 720 54 720 54 720 130 c 1,47,48
 672 90 672 90 635.5 61.5 c 128,-1,49
 599 33 599 33 564.5 15 c 128,-1,50
 530 -3 530 -3 491 -11.5 c 128,-1,51
 452 -20 452 -20 400 -20 c 256,52,53
 348 -20 348 -20 295 -4 c 128,-1,54
 242 12 242 12 199.5 45.5 c 128,-1,55
 157 79 157 79 130 131 c 128,-1,56
 103 183 103 183 103 254 c 0,0,1
323 279 m 0,57,58
 323 239 323 239 337.5 210.5 c 128,-1,59
 352 182 352 182 377 163.5 c 128,-1,60
 402 145 402 145 436.5 136.5 c 128,-1,61
 471 128 471 128 510 128 c 0,62,63
 564 128 564 128 616 156.5 c 128,-1,64
 668 185 668 185 710 225 c 1,65,-1
 710 522 l 1,66,67
 674 509 674 509 631 498.5 c 128,-1,68
 588 488 588 488 545 476.5 c 128,-1,69
 502 465 502 465 462 450 c 128,-1,70
 422 435 422 435 391 412.5 c 128,-1,71
 360 390 360 390 341.5 357.5 c 128,-1,72
 323 325 323 325 323 279 c 0,57,58
EndSplineSet
Substitution2: "Single Substitution lookup 4 subtable" ordfeminine
Substitution2: "'aalt' Access All Alternates in Latin lookup 0 subtable" ordfeminine
EndChar

StartChar: b
Encoding: 98 98 82
Width: 1219
Flags: W
LayerCount: 2
Fore
SplineSet
181 1303 m 2,0,1
 181 1357 181 1357 167 1386.5 c 128,-1,2
 153 1416 153 1416 130 1432 c 128,-1,3
 107 1448 107 1448 76.5 1455 c 128,-1,4
 46 1462 46 1462 13 1471 c 1,5,-1
 13 1543 l 1,6,7
 58 1554 58 1554 93 1562.5 c 128,-1,8
 128 1571 128 1571 157 1578.5 c 128,-1,9
 186 1586 186 1586 210 1593.5 c 128,-1,10
 234 1601 234 1601 259 1610.5 c 128,-1,11
 284 1620 284 1620 310.5 1632.5 c 128,-1,12
 337 1645 337 1645 371 1662 c 1,13,-1
 408 1641 l 1,14,15
 407 1630 407 1630 406 1595.5 c 128,-1,16
 405 1561 405 1561 403.5 1510 c 128,-1,17
 402 1459 402 1459 401 1397 c 128,-1,18
 400 1335 400 1335 399 1270.5 c 128,-1,19
 398 1206 398 1206 397.5 1143.5 c 128,-1,20
 397 1081 397 1081 396 1029.5 c 128,-1,21
 395 978 395 978 394.5 941 c 128,-1,22
 394 904 394 904 393 891 c 1,23,24
 421 909 421 909 460 935 c 128,-1,25
 499 961 499 961 543 985 c 128,-1,26
 587 1009 587 1009 632 1025.5 c 128,-1,27
 677 1042 677 1042 718 1042 c 0,28,29
 736 1042 736 1042 775 1037.5 c 128,-1,30
 814 1033 814 1033 861 1014.5 c 128,-1,31
 908 996 908 996 957.5 960 c 128,-1,32
 1007 924 1007 924 1047 862 c 1,33,34
 1079 808 1079 808 1104 732.5 c 128,-1,35
 1129 657 1129 657 1129 553 c 0,36,37
 1129 427 1129 427 1100 335.5 c 128,-1,38
 1071 244 1071 244 1025 180 c 128,-1,39
 979 116 979 116 921.5 77 c 128,-1,40
 864 38 864 38 808 16.5 c 128,-1,41
 752 -5 752 -5 702.5 -12.5 c 128,-1,42
 653 -20 653 -20 623 -20 c 0,43,44
 565 -20 565 -20 493 -13.5 c 128,-1,45
 421 -7 421 -7 355 1.5 c 128,-1,46
 289 10 289 10 240.5 16.5 c 128,-1,47
 192 23 192 23 181 23 c 2,48,-1
 179 23 l 1,49,-1
 181 1303 l 2,0,1
393 168 m 1,50,51
 453 137 453 137 518.5 119.5 c 128,-1,52
 584 102 584 102 657 102 c 0,53,54
 728 102 728 102 777.5 132 c 128,-1,55
 827 162 827 162 857.5 214 c 128,-1,56
 888 266 888 266 901.5 334 c 128,-1,57
 915 402 915 402 915 479 c 0,58,59
 915 560 915 560 898.5 633 c 128,-1,60
 882 706 882 706 852.5 761 c 128,-1,61
 823 816 823 816 782.5 848.5 c 128,-1,62
 742 881 742 881 694 881 c 0,63,64
 658 881 658 881 613.5 870 c 128,-1,65
 569 859 569 859 527 843 c 128,-1,66
 485 827 485 827 449 810.5 c 128,-1,67
 413 794 413 794 393 784 c 1,68,-1
 393 168 l 1,50,51
EndSplineSet
EndChar

StartChar: c
Encoding: 99 99 83
Width: 1026
Flags: W
LayerCount: 2
Fore
SplineSet
90 461 m 0,0,1
 90 600 90 600 136 708.5 c 128,-1,2
 182 817 182 817 259.5 891 c 128,-1,3
 337 965 337 965 438.5 1003.5 c 128,-1,4
 540 1042 540 1042 650 1042 c 0,5,6
 720 1042 720 1042 797 1028 c 128,-1,7
 874 1014 874 1014 944 986 c 1,8,9
 943 979 943 979 940 954.5 c 128,-1,10
 937 930 937 930 933 896.5 c 128,-1,11
 929 863 929 863 924.5 826 c 128,-1,12
 920 789 920 789 916 757.5 c 128,-1,13
 912 726 912 726 909.5 705.5 c 128,-1,14
 907 685 907 685 906 685 c 2,15,-1
 812 685 l 1,16,17
 799 739 799 739 790.5 774 c 128,-1,18
 782 809 782 809 776 830 c 128,-1,19
 770 851 770 851 765.5 860 c 128,-1,20
 761 869 761 869 755 871 c 0,21,22
 706 882 706 882 658 888.5 c 128,-1,23
 610 895 610 895 558 895 c 0,24,25
 525 895 525 895 488 889.5 c 128,-1,26
 451 884 451 884 416 874 c 1,27,28
 396 861 396 861 379 837 c 128,-1,29
 362 813 362 813 348 784 c 128,-1,30
 334 755 334 755 323.5 723 c 128,-1,31
 313 691 313 691 305.5 660.5 c 128,-1,32
 298 630 298 630 294.5 604 c 128,-1,33
 291 578 291 578 291 562 c 0,34,35
 291 482 291 482 309.5 408 c 128,-1,36
 328 334 328 334 368.5 277 c 128,-1,37
 409 220 409 220 474 186 c 128,-1,38
 539 152 539 152 633 152 c 0,39,40
 648 152 648 152 682 158.5 c 128,-1,41
 716 165 716 165 757.5 174.5 c 128,-1,42
 799 184 799 184 841 195.5 c 128,-1,43
 883 207 883 207 915 218 c 1,44,-1
 948 134 l 1,45,46
 892 100 892 100 834.5 72 c 128,-1,47
 777 44 777 44 728 23.5 c 128,-1,48
 679 3 679 3 644.5 -8.5 c 128,-1,49
 610 -20 610 -20 602 -20 c 0,50,51
 494 -20 494 -20 400.5 10.5 c 128,-1,52
 307 41 307 41 238 101.5 c 128,-1,53
 169 162 169 162 129.5 252 c 128,-1,54
 90 342 90 342 90 461 c 0,0,1
EndSplineSet
EndChar

StartChar: d
Encoding: 100 100 84
Width: 1183
Flags: W
LayerCount: 2
Fore
SplineSet
90 464 m 0,0,1
 90 579 90 579 118 671.5 c 128,-1,2
 146 764 146 764 199 833 c 1,3,4
 237 885 237 885 286.5 924 c 128,-1,5
 336 963 336 963 390.5 989 c 128,-1,6
 445 1015 445 1015 503 1028.5 c 128,-1,7
 561 1042 561 1042 616 1042 c 0,8,9
 673 1042 673 1042 727.5 1033.5 c 128,-1,10
 782 1025 782 1025 826 1017 c 1,11,-1
 826 1219 l 2,12,13
 826 1254 826 1254 826 1284.5 c 128,-1,14
 826 1315 826 1315 819 1341 c 128,-1,15
 812 1367 812 1367 795.5 1388.5 c 128,-1,16
 779 1410 779 1410 745 1427 c 0,17,18
 725 1438 725 1438 703.5 1443 c 128,-1,19
 682 1448 682 1448 652 1454 c 1,20,-1
 652 1527 l 1,21,22
 718 1542 718 1542 766.5 1554.5 c 128,-1,23
 815 1567 815 1567 855.5 1580.5 c 128,-1,24
 896 1594 896 1594 933.5 1609.5 c 128,-1,25
 971 1625 971 1625 1015 1645 c 1,26,-1
 1053 1624 l 1,27,28
 1048 1570 1048 1570 1045 1531 c 128,-1,29
 1042 1492 1042 1492 1040.5 1456.5 c 128,-1,30
 1039 1421 1039 1421 1038 1382.5 c 128,-1,31
 1037 1344 1037 1344 1036 1290 c 1,32,-1
 1036 182 l 2,33,34
 1036 174 1036 174 1039 162 c 128,-1,35
 1042 150 1042 150 1047 142 c 1,36,37
 1053 135 1053 135 1066.5 126.5 c 128,-1,38
 1080 118 1080 118 1096.5 110 c 128,-1,39
 1113 102 1113 102 1132 94.5 c 128,-1,40
 1151 87 1151 87 1168 82 c 1,41,-1
 1168 0 l 1,42,-1
 841 0 l 1,43,44
 838 21 838 21 836 46 c 0,45,46
 834 66 834 66 833 92.5 c 128,-1,47
 832 119 832 119 832 147 c 1,48,49
 723 59 723 59 638.5 20 c 128,-1,50
 554 -19 554 -19 501 -19 c 0,51,52
 428 -19 428 -19 368.5 2 c 128,-1,53
 309 23 309 23 263.5 58.5 c 128,-1,54
 218 94 218 94 185 142 c 128,-1,55
 152 190 152 190 131 243.5 c 128,-1,56
 110 297 110 297 100 353.5 c 128,-1,57
 90 410 90 410 90 464 c 0,0,1
525 142 m 0,58,59
 553 142 553 142 592.5 152 c 128,-1,60
 632 162 632 162 674 177.5 c 128,-1,61
 716 193 716 193 756 212 c 128,-1,62
 796 231 796 231 826 249 c 1,63,-1
 826 850 l 1,64,65
 780 876 780 876 710.5 894.5 c 128,-1,66
 641 913 641 913 562 915 c 0,67,68
 512 916 512 916 465.5 896.5 c 128,-1,69
 419 877 419 877 383 832.5 c 128,-1,70
 347 788 347 788 325.5 715.5 c 128,-1,71
 304 643 304 643 304 538 c 0,72,73
 304 451 304 451 322 378 c 128,-1,74
 340 305 340 305 370 252.5 c 128,-1,75
 400 200 400 200 440 171 c 128,-1,76
 480 142 480 142 525 142 c 0,58,59
EndSplineSet
EndChar

StartChar: e
Encoding: 101 101 85
Width: 1039
Flags: W
LayerCount: 2
Fore
SplineSet
91 496 m 0,0,1
 93 606 93 606 129.5 705 c 128,-1,2
 166 804 166 804 232.5 879 c 128,-1,3
 299 954 299 954 393 998 c 128,-1,4
 487 1042 487 1042 605 1042 c 0,5,6
 701 1042 701 1042 768.5 1012.5 c 128,-1,7
 836 983 836 983 879 928.5 c 128,-1,8
 922 874 922 874 941 797.5 c 128,-1,9
 960 721 960 721 958 627 c 0,10,11
 957 613 957 613 956.5 594.5 c 128,-1,12
 956 576 956 576 955 559 c 0,13,14
 954 540 954 540 952 519 c 1,15,-1
 299 519 l 1,16,17
 297 433 297 433 312.5 371.5 c 128,-1,18
 328 310 328 310 354.5 267 c 128,-1,19
 381 224 381 224 416 198 c 128,-1,20
 451 172 451 172 487.5 158 c 128,-1,21
 524 144 524 144 560 139.5 c 128,-1,22
 596 135 596 135 626 135 c 1,23,24
 670 146 670 146 718 159 c 0,25,26
 760 170 760 170 811 186 c 128,-1,27
 862 202 862 202 915 222 c 1,28,-1
 949 136 l 1,29,30
 894 105 894 105 846 79.5 c 128,-1,31
 798 54 798 54 753.5 33.5 c 128,-1,32
 709 13 709 13 667.5 -2.5 c 128,-1,33
 626 -18 626 -18 584 -29 c 1,34,35
 456 -29 456 -29 362.5 7 c 128,-1,36
 269 43 269 43 207.5 110.5 c 128,-1,37
 146 178 146 178 117 275.5 c 128,-1,38
 88 373 88 373 91 496 c 0,0,1
299 623 m 1,39,40
 398 624 398 624 468 627 c 128,-1,41
 538 630 538 630 584.5 633 c 128,-1,42
 631 636 631 636 658 638.5 c 128,-1,43
 685 641 685 641 697 643 c 0,44,45
 714 645 714 645 723.5 669 c 128,-1,46
 733 693 733 693 733 719 c 0,47,48
 733 787 733 787 710 834 c 128,-1,49
 687 881 687 881 647 906 c 128,-1,50
 607 931 607 931 553.5 932.5 c 128,-1,51
 500 934 500 934 440 912 c 0,52,53
 428 908 428 908 405.5 891 c 128,-1,54
 383 874 383 874 360 840 c 128,-1,55
 337 806 337 806 319 752.5 c 128,-1,56
 301 699 301 699 299 623 c 1,39,40
EndSplineSet
EndChar

StartChar: f
Encoding: 102 102 86
Width: 809
Flags: W
LayerCount: 2
Fore
SplineSet
94 82 m 1,0,1
 157 96 157 96 193.5 108 c 128,-1,2
 230 120 230 120 248.5 141 c 128,-1,3
 267 162 267 162 272 197 c 128,-1,4
 277 232 277 232 277 292 c 2,5,-1
 279 885 l 1,6,-1
 119 885 l 1,7,-1
 119 1000 l 1,8,-1
 279 1020 l 1,9,-1
 279 1210 l 2,10,11
 279 1310 279 1310 319.5 1390 c 128,-1,12
 360 1470 360 1470 429.5 1525.5 c 128,-1,13
 499 1581 499 1581 592.5 1610.5 c 128,-1,14
 686 1640 686 1640 791 1640 c 0,15,16
 808 1640 808 1640 831 1637 c 128,-1,17
 854 1634 854 1634 874 1631 c 0,18,19
 898 1627 898 1627 921 1622 c 1,20,-1
 885 1342 l 1,21,-1
 798 1342 l 1,22,-1
 768 1459 l 1,23,24
 763 1473 763 1473 744 1481 c 128,-1,25
 725 1489 725 1489 698.5 1492 c 128,-1,26
 672 1495 672 1495 641.5 1494 c 128,-1,27
 611 1493 611 1493 583.5 1489 c 128,-1,28
 556 1485 556 1485 535 1478.5 c 128,-1,29
 514 1472 514 1472 506 1465 c 1,30,31
 502 1453 502 1453 499 1421.5 c 128,-1,32
 496 1390 496 1390 494 1347 c 128,-1,33
 492 1304 492 1304 491 1255.5 c 128,-1,34
 490 1207 490 1207 489.5 1161.5 c 128,-1,35
 489 1116 489 1116 489 1078 c 128,-1,36
 489 1040 489 1040 489 1020 c 1,37,-1
 770 1020 l 1,38,-1
 770 885 l 1,39,-1
 489 885 l 1,40,41
 489 796 489 796 489 726.5 c 128,-1,42
 489 657 489 657 488.5 598 c 128,-1,43
 488 539 488 539 488 485 c 128,-1,44
 488 431 488 431 488 372 c 256,45,46
 488 313 488 313 490 255.5 c 128,-1,47
 492 198 492 198 496 137 c 1,48,-1
 709 82 l 1,49,-1
 709 0 l 1,50,-1
 94 0 l 1,51,-1
 94 82 l 1,0,1
EndSplineSet
EndChar

StartChar: g
Encoding: 103 103 87
Width: 1173
Flags: W
LayerCount: 2
Fore
SplineSet
148 156 m 1,0,1
 146 168 146 168 149 185.5 c 128,-1,2
 152 203 152 203 161 214 c 0,3,4
 202 259 202 259 242.5 306.5 c 128,-1,5
 283 354 283 354 332 403 c 1,6,7
 242 440 242 440 187.5 511 c 128,-1,8
 133 582 133 582 133 687 c 0,9,10
 133 772 133 772 167 838 c 128,-1,11
 201 904 201 904 259.5 949.5 c 128,-1,12
 318 995 318 995 396.5 1018.5 c 128,-1,13
 475 1042 475 1042 564 1042 c 0,14,15
 664 1042 664 1042 744.5 1022.5 c 128,-1,16
 825 1003 825 1003 883 963 c 1,17,18
 950 973 950 973 1010.5 992.5 c 128,-1,19
 1071 1012 1071 1012 1135 1039 c 1,20,21
 1153 1022 1153 1022 1160.5 1000.5 c 128,-1,22
 1168 979 1168 979 1168 963 c 0,23,24
 1168 931 1168 931 1162.5 906 c 128,-1,25
 1157 881 1157 881 1148 866 c 1,26,27
 1104 854 1104 854 1062 851.5 c 128,-1,28
 1020 849 1020 849 978 851 c 1,29,30
 1004 794 1004 794 1004 723 c 0,31,32
 1004 637 1004 637 970 569 c 128,-1,33
 936 501 936 501 877.5 454.5 c 128,-1,34
 819 408 819 408 741 383.5 c 128,-1,35
 663 359 663 359 574 359 c 0,36,37
 539 359 539 359 505.5 362.5 c 128,-1,38
 472 366 472 366 440 371 c 1,39,40
 427 357 427 357 412.5 341.5 c 128,-1,41
 398 326 398 326 386 310.5 c 128,-1,42
 374 295 374 295 367 279 c 128,-1,43
 360 263 360 263 362 250 c 0,44,45
 365 224 365 224 389 209 c 128,-1,46
 413 194 413 194 446.5 185.5 c 128,-1,47
 480 177 480 177 518.5 174 c 128,-1,48
 557 171 557 171 589 169 c 0,49,50
 647 166 647 166 709.5 162.5 c 128,-1,51
 772 159 772 159 832 150.5 c 128,-1,52
 892 142 892 142 946 127 c 128,-1,53
 1000 112 1000 112 1041.5 86 c 128,-1,54
 1083 60 1083 60 1109 22 c 128,-1,55
 1135 -16 1135 -16 1139 -71 c 0,56,57
 1143 -137 1143 -137 1109.5 -212 c 128,-1,58
 1076 -287 1076 -287 999 -351.5 c 128,-1,59
 922 -416 922 -416 798.5 -458.5 c 128,-1,60
 675 -501 675 -501 501 -501 c 0,61,62
 396 -501 396 -501 323.5 -483.5 c 128,-1,63
 251 -466 251 -466 204.5 -436 c 128,-1,64
 158 -406 158 -406 135 -366.5 c 128,-1,65
 112 -327 112 -327 105 -284 c 1,66,67
 101 -252 101 -252 104 -232 c 0,68,69
 107 -210 107 -210 133 -170.5 c 128,-1,70
 159 -131 159 -131 207 -88 c 0,71,72
 233 -65 233 -65 261.5 -46 c 128,-1,73
 290 -27 290 -27 316 2 c 0,74,75
 324 10 324 10 321.5 15 c 128,-1,76
 319 20 319 20 311 23 c 0,77,78
 300 26 300 26 292 29.5 c 128,-1,79
 284 33 284 33 277.5 36 c 128,-1,80
 271 39 271 39 263 42.5 c 128,-1,81
 255 46 255 46 244 51 c 0,82,83
 230 57 230 57 213.5 67.5 c 128,-1,84
 197 78 197 78 183 91.5 c 128,-1,85
 169 105 169 105 159 121.5 c 128,-1,86
 149 138 149 138 148 156 c 1,0,1
610 461 m 0,87,88
 664 464 664 464 698 484.5 c 128,-1,89
 732 505 732 505 751.5 536.5 c 128,-1,90
 771 568 771 568 778.5 605.5 c 128,-1,91
 786 643 786 643 786 680 c 0,92,93
 786 734 786 734 773 782 c 128,-1,94
 760 830 760 830 728.5 865.5 c 128,-1,95
 697 901 697 901 645.5 920.5 c 128,-1,96
 594 940 594 940 517 936 c 0,97,98
 471 934 471 934 439 914 c 128,-1,99
 407 894 407 894 387.5 863.5 c 128,-1,100
 368 833 368 833 359 795.5 c 128,-1,101
 350 758 350 758 350 721 c 0,102,103
 350 667 350 667 361.5 618.5 c 128,-1,104
 373 570 373 570 402.5 533.5 c 128,-1,105
 432 497 432 497 482.5 477 c 128,-1,106
 533 457 533 457 610 461 c 0,87,88
448 -37 m 0,107,108
 366 -93 366 -93 341 -152 c 128,-1,109
 316 -211 316 -211 335.5 -259.5 c 128,-1,110
 355 -308 355 -308 413 -339 c 128,-1,111
 471 -370 471 -370 556 -370 c 0,112,113
 649 -370 649 -370 722 -359.5 c 128,-1,114
 795 -349 795 -349 845 -323 c 128,-1,115
 895 -297 895 -297 919.5 -252.5 c 128,-1,116
 944 -208 944 -208 941 -140 c 0,117,118
 939 -106 939 -106 925 -81.5 c 128,-1,119
 911 -57 911 -57 869 -41 c 128,-1,120
 827 -25 827 -25 748.5 -16.5 c 128,-1,121
 670 -8 670 -8 540 -4 c 0,122,123
 521 -3 521 -3 507 -6 c 128,-1,124
 493 -9 493 -9 482.5 -14 c 128,-1,125
 472 -19 472 -19 464 -25 c 128,-1,126
 456 -31 456 -31 448 -37 c 0,107,108
EndSplineSet
EndChar

StartChar: h
Encoding: 104 104 88
Width: 1336
Flags: W
LayerCount: 2
Fore
SplineSet
60 82 m 1,0,1
 112 96 112 96 144.5 108 c 128,-1,2
 177 120 177 120 194 141 c 128,-1,3
 211 162 211 162 217 197 c 128,-1,4
 223 232 223 232 223 292 c 2,5,-1
 223 1287 l 2,6,7
 223 1341 223 1341 209 1370.5 c 128,-1,8
 195 1400 195 1400 171.5 1416 c 128,-1,9
 148 1432 148 1432 117.5 1439 c 128,-1,10
 87 1446 87 1446 54 1454 c 1,11,-1
 54 1527 l 1,12,13
 100 1536 100 1536 134 1543 c 128,-1,14
 168 1550 168 1550 195 1557 c 128,-1,15
 222 1564 222 1564 245.5 1571.5 c 128,-1,16
 269 1579 269 1579 293.5 1589 c 128,-1,17
 318 1599 318 1599 346 1612.5 c 128,-1,18
 374 1626 374 1626 411 1645 c 1,19,-1
 448 1624 l 1,20,21
 441 1554 441 1554 438 1478.5 c 128,-1,22
 435 1403 435 1403 434 1314.5 c 128,-1,23
 433 1226 433 1226 433 1119.5 c 128,-1,24
 433 1013 433 1013 433 881 c 1,25,26
 467 901 467 901 505 922 c 0,27,28
 537 940 537 940 576.5 962.5 c 128,-1,29
 616 985 616 985 655 1007 c 1,30,31
 664 1009 664 1009 684 1015 c 128,-1,32
 704 1021 704 1021 731 1027 c 128,-1,33
 758 1033 758 1033 789.5 1037.5 c 128,-1,34
 821 1042 821 1042 853 1042 c 0,35,36
 926 1042 926 1042 975.5 1027.5 c 128,-1,37
 1025 1013 1025 1013 1056.5 986.5 c 128,-1,38
 1088 960 1088 960 1104.5 923 c 128,-1,39
 1121 886 1121 886 1128 842 c 128,-1,40
 1135 798 1135 798 1135.5 748.5 c 128,-1,41
 1136 699 1136 699 1137 646 c 2,42,-1
 1139 137 l 1,43,44
 1173 122 1173 122 1204 111 c 0,45,46
 1230 101 1230 101 1257 92 c 128,-1,47
 1284 83 1284 83 1300 80 c 1,48,-1
 1300 0 l 1,49,-1
 756 0 l 1,50,-1
 756 82 l 1,51,52
 810 96 810 96 843.5 108 c 128,-1,53
 877 120 877 120 895.5 141 c 128,-1,54
 914 162 914 162 921 197.5 c 128,-1,55
 928 233 928 233 928 294 c 2,56,-1
 928 747 l 2,57,58
 928 787 928 787 910.5 812 c 128,-1,59
 893 837 893 837 865.5 850.5 c 128,-1,60
 838 864 838 864 803.5 869 c 128,-1,61
 769 874 769 874 735 874 c 0,62,63
 688 874 688 874 643 866 c 128,-1,64
 598 858 598 858 559 846 c 128,-1,65
 520 834 520 834 487.5 819 c 128,-1,66
 455 804 455 804 433 790 c 1,67,-1
 433 137 l 1,68,-1
 609 82 l 1,69,-1
 609 0 l 1,70,-1
 60 0 l 1,71,-1
 60 82 l 1,0,1
EndSplineSet
EndChar

StartChar: k
Encoding: 107 107 91
Width: 1203
Flags: W
LayerCount: 2
Fore
SplineSet
61 82 m 1,0,1
 113 96 113 96 145 108 c 128,-1,2
 177 120 177 120 194.5 141 c 128,-1,3
 212 162 212 162 217.5 197 c 128,-1,4
 223 232 223 232 223 292 c 2,5,-1
 223 1287 l 2,6,7
 223 1341 223 1341 209 1370.5 c 128,-1,8
 195 1400 195 1400 171.5 1416 c 128,-1,9
 148 1432 148 1432 118 1439 c 128,-1,10
 88 1446 88 1446 55 1454 c 1,11,-1
 55 1527 l 1,12,13
 100 1536 100 1536 134 1543 c 128,-1,14
 168 1550 168 1550 195.5 1557 c 128,-1,15
 223 1564 223 1564 246 1571.5 c 128,-1,16
 269 1579 269 1579 293.5 1589 c 128,-1,17
 318 1599 318 1599 346 1612.5 c 128,-1,18
 374 1626 374 1626 411 1645 c 1,19,-1
 448 1624 l 1,20,21
 441 1554 441 1554 437.5 1466.5 c 128,-1,22
 434 1379 434 1379 433 1283.5 c 128,-1,23
 432 1188 432 1188 432.5 1090 c 128,-1,24
 433 992 433 992 433 900 c 2,25,-1
 433 137 l 1,26,-1
 593 82 l 1,27,-1
 593 0 l 1,28,-1
 61 0 l 1,29,-1
 61 82 l 1,0,1
490 527 m 1,30,31
 513 542 513 542 544 569.5 c 128,-1,32
 575 597 575 597 608.5 631 c 128,-1,33
 642 665 642 665 674.5 701.5 c 128,-1,34
 707 738 707 738 732.5 771 c 128,-1,35
 758 804 758 804 774 830 c 128,-1,36
 790 856 790 856 790 868 c 0,37,38
 790 883 790 883 778.5 894.5 c 128,-1,39
 767 906 767 906 750 914.5 c 128,-1,40
 733 923 733 923 712 928.5 c 128,-1,41
 691 934 691 934 673 938 c 1,42,-1
 673 1020 l 1,43,-1
 1194 1020 l 1,44,-1
 1194 938 l 1,45,46
 1141 929 1141 929 1107 921.5 c 128,-1,47
 1073 914 1073 914 1051 905.5 c 128,-1,48
 1029 897 1029 897 1014.5 886.5 c 128,-1,49
 1000 876 1000 876 987 863 c 0,50,51
 956 832 956 832 921.5 791 c 128,-1,52
 887 750 887 750 850.5 707 c 128,-1,53
 814 664 814 664 776.5 622.5 c 128,-1,54
 739 581 739 581 703 549 c 1,55,56
 782 458 782 458 859 377 c 0,57,58
 891 342 891 342 926 306.5 c 128,-1,59
 961 271 961 271 994.5 238 c 128,-1,60
 1028 205 1028 205 1059.5 177 c 128,-1,61
 1091 149 1091 149 1116 131 c 0,62,63
 1136 117 1136 117 1167 103.5 c 128,-1,64
 1198 90 1198 90 1223 82 c 1,65,-1
 1223 0 l 1,66,-1
 942 -22 l 1,67,-1
 813 123 l 1,68,-1
 490 527 l 1,30,31
EndSplineSet
EndChar

StartChar: l
Encoding: 108 108 92
Width: 676
Flags: W
LayerCount: 2
Fore
SplineSet
96 82 m 1,0,1
 148 96 148 96 180 108 c 128,-1,2
 212 120 212 120 229 141 c 128,-1,3
 246 162 246 162 251.5 197 c 128,-1,4
 257 232 257 232 257 292 c 2,5,-1
 257 1287 l 2,6,7
 257 1341 257 1341 243 1370.5 c 128,-1,8
 229 1400 229 1400 206 1416 c 128,-1,9
 183 1432 183 1432 153 1439 c 128,-1,10
 123 1446 123 1446 90 1454 c 1,11,-1
 90 1527 l 1,12,13
 135 1536 135 1536 169 1543 c 128,-1,14
 203 1550 203 1550 230 1557 c 128,-1,15
 257 1564 257 1564 280 1571.5 c 128,-1,16
 303 1579 303 1579 327 1589 c 128,-1,17
 351 1599 351 1599 379 1612.5 c 128,-1,18
 407 1626 407 1626 444 1645 c 1,19,-1
 481 1624 l 1,20,21
 474 1554 474 1554 471 1466.5 c 128,-1,22
 468 1379 468 1379 467 1283.5 c 128,-1,23
 466 1188 466 1188 466.5 1090 c 128,-1,24
 467 992 467 992 467 900 c 2,25,-1
 467 137 l 1,26,-1
 639 82 l 1,27,-1
 639 0 l 1,28,-1
 96 0 l 1,29,-1
 96 82 l 1,0,1
EndSplineSet
EndChar

StartChar: m
Encoding: 109 109 93
Width: 2007
Flags: W
LayerCount: 2
Fore
SplineSet
97 82 m 1,0,1
 152 99 152 99 184.5 111.5 c 128,-1,2
 217 124 217 124 234 144.5 c 128,-1,3
 251 165 251 165 256 199 c 128,-1,4
 261 233 261 233 261 292 c 2,5,-1
 261 673 l 2,6,7
 261 726 261 726 246.5 758.5 c 128,-1,8
 232 791 232 791 208 809.5 c 128,-1,9
 184 828 184 828 153.5 838 c 128,-1,10
 123 848 123 848 91 856 c 1,11,-1
 91 928 l 1,12,13
 160 941 160 941 203 953 c 128,-1,14
 246 965 246 965 281.5 980 c 128,-1,15
 317 995 317 995 354 1014.5 c 128,-1,16
 391 1034 391 1034 447 1062 c 1,17,-1
 487 1041 l 1,18,-1
 474 881 l 1,19,20
 508 900 508 900 544 921 c 0,21,22
 575 939 575 939 613.5 961 c 128,-1,23
 652 983 652 983 691 1005 c 1,24,25
 701 1008 701 1008 718.5 1014 c 128,-1,26
 736 1020 736 1020 758.5 1026 c 128,-1,27
 781 1032 781 1032 808 1037 c 128,-1,28
 835 1042 835 1042 863 1042 c 0,29,30
 928 1042 928 1042 973.5 1030.5 c 128,-1,31
 1019 1019 1019 1019 1049.5 997 c 128,-1,32
 1080 975 1080 975 1097.5 944.5 c 128,-1,33
 1115 914 1115 914 1124 875 c 1,34,35
 1130 878 1130 878 1154 891 c 128,-1,36
 1178 904 1178 904 1212 922.5 c 128,-1,37
 1246 941 1246 941 1285 963 c 128,-1,38
 1324 985 1324 985 1360 1005 c 1,39,40
 1370 1008 1370 1008 1388 1014 c 128,-1,41
 1406 1020 1406 1020 1429 1026 c 128,-1,42
 1452 1032 1452 1032 1478.5 1037 c 128,-1,43
 1505 1042 1505 1042 1534 1042 c 0,44,45
 1607 1042 1607 1042 1656 1027 c 128,-1,46
 1705 1012 1705 1012 1735.5 985.5 c 128,-1,47
 1766 959 1766 959 1781.5 922 c 128,-1,48
 1797 885 1797 885 1803 842 c 128,-1,49
 1809 799 1809 799 1809 750.5 c 128,-1,50
 1809 702 1809 702 1810 652 c 2,51,-1
 1811 137 l 1,52,53
 1851 123 1851 123 1886 112 c 0,54,55
 1916 102 1916 102 1945.5 93.5 c 128,-1,56
 1975 85 1975 85 1991 82 c 1,57,-1
 1991 0 l 1,58,-1
 1446 0 l 1,59,-1
 1446 82 l 1,60,61
 1484 95 1484 95 1510.5 103 c 128,-1,62
 1537 111 1537 111 1554 119.5 c 128,-1,63
 1571 128 1571 128 1580.5 139 c 128,-1,64
 1590 150 1590 150 1594.5 169.5 c 128,-1,65
 1599 189 1599 189 1599.5 218.5 c 128,-1,66
 1600 248 1600 248 1600 294 c 2,67,-1
 1600 763 l 2,68,69
 1600 783 1600 783 1595 802 c 128,-1,70
 1590 821 1590 821 1581 830 c 0,71,72
 1570 841 1570 841 1557 849 c 128,-1,73
 1544 857 1544 857 1525 862 c 128,-1,74
 1506 867 1506 867 1479.5 869.5 c 128,-1,75
 1453 872 1453 872 1416 872 c 0,76,77
 1376 872 1376 872 1336 864 c 128,-1,78
 1296 856 1296 856 1259.5 843.5 c 128,-1,79
 1223 831 1223 831 1191.5 816.5 c 128,-1,80
 1160 802 1160 802 1137 789 c 1,81,82
 1139 754 1139 754 1139.5 716.5 c 128,-1,83
 1140 679 1140 679 1140 642 c 2,84,-1
 1141 137 l 1,85,86
 1181 123 1181 123 1216 112 c 0,87,88
 1246 102 1246 102 1275.5 93.5 c 128,-1,89
 1305 85 1305 85 1321 82 c 1,90,-1
 1321 0 l 1,91,-1
 775 0 l 1,92,-1
 775 82 l 1,93,94
 814 95 814 95 840.5 103 c 128,-1,95
 867 111 867 111 884 119.5 c 128,-1,96
 901 128 901 128 910.5 139 c 128,-1,97
 920 150 920 150 924.5 169.5 c 128,-1,98
 929 189 929 189 929.5 218.5 c 128,-1,99
 930 248 930 248 930 294 c 2,100,-1
 930 763 l 2,101,102
 930 783 930 783 924.5 802 c 128,-1,103
 919 821 919 821 911 830 c 0,104,105
 900 841 900 841 887.5 849 c 128,-1,106
 875 857 875 857 857 862 c 128,-1,107
 839 867 839 867 813.5 869.5 c 128,-1,108
 788 872 788 872 751 872 c 0,109,110
 709 872 709 872 668.5 864 c 128,-1,111
 628 856 628 856 591.5 843.5 c 128,-1,112
 555 831 555 831 524 816 c 128,-1,113
 493 801 493 801 471 787 c 1,114,-1
 471 137 l 1,115,-1
 644 82 l 1,116,-1
 644 0 l 1,117,-1
 97 0 l 1,118,-1
 97 82 l 1,0,1
EndSplineSet
EndChar

StartChar: n
Encoding: 110 110 94
Width: 1353
Flags: W
LayerCount: 2
Fore
SplineSet
99 82 m 1,0,1
 154 99 154 99 186.5 111.5 c 128,-1,2
 219 124 219 124 235.5 144.5 c 128,-1,3
 252 165 252 165 256.5 199 c 128,-1,4
 261 233 261 233 261 292 c 2,5,-1
 261 693 l 2,6,7
 261 746 261 746 246.5 778.5 c 128,-1,8
 232 811 232 811 208.5 829.5 c 128,-1,9
 185 848 185 848 155 858 c 128,-1,10
 125 868 125 868 93 876 c 1,11,-1
 93 948 l 1,12,13
 139 957 139 957 172.5 963.5 c 128,-1,14
 206 970 206 970 233 976.5 c 128,-1,15
 260 983 260 983 283 990.5 c 128,-1,16
 306 998 306 998 330 1007.5 c 128,-1,17
 354 1017 354 1017 382 1030 c 128,-1,18
 410 1043 410 1043 447 1062 c 1,19,-1
 487 1041 l 1,20,-1
 474 881 l 1,21,22
 508 900 508 900 545 921 c 0,23,24
 577 939 577 939 615.5 961 c 128,-1,25
 654 983 654 983 693 1005 c 1,26,27
 703 1008 703 1008 722 1014 c 128,-1,28
 741 1020 741 1020 765.5 1026 c 128,-1,29
 790 1032 790 1032 818.5 1037 c 128,-1,30
 847 1042 847 1042 875 1042 c 0,31,32
 951 1042 951 1042 1001.5 1027 c 128,-1,33
 1052 1012 1052 1012 1083 985.5 c 128,-1,34
 1114 959 1114 959 1129.5 922 c 128,-1,35
 1145 885 1145 885 1150.5 842 c 128,-1,36
 1156 799 1156 799 1156 750.5 c 128,-1,37
 1156 702 1156 702 1156 652 c 2,38,-1
 1157 137 l 1,39,40
 1195 123 1195 123 1228 112 c 0,41,42
 1257 102 1257 102 1285 93.5 c 128,-1,43
 1313 85 1313 85 1328 82 c 1,44,-1
 1328 0 l 1,45,-1
 787 0 l 1,46,-1
 787 82 l 1,47,48
 828 94 828 94 856 101.5 c 128,-1,49
 884 109 884 109 901.5 117.5 c 128,-1,50
 919 126 919 126 928.5 137.5 c 128,-1,51
 938 149 938 149 941.5 168.5 c 128,-1,52
 945 188 945 188 945.5 218 c 128,-1,53
 946 248 946 248 946 294 c 2,54,-1
 946 765 l 2,55,56
 946 785 946 785 940.5 804 c 128,-1,57
 935 823 935 823 927 832 c 1,58,59
 915 843 915 843 901.5 851 c 128,-1,60
 888 859 888 859 868 864 c 128,-1,61
 848 869 848 869 820 871.5 c 128,-1,62
 792 874 792 874 753 874 c 0,63,64
 711 874 711 874 670 865.5 c 128,-1,65
 629 857 629 857 592 844.5 c 128,-1,66
 555 832 555 832 524 816.5 c 128,-1,67
 493 801 493 801 471 787 c 1,68,-1
 471 137 l 1,69,-1
 644 82 l 1,70,-1
 644 0 l 1,71,-1
 99 0 l 1,72,-1
 99 82 l 1,0,1
EndSplineSet
EndChar

StartChar: o
Encoding: 111 111 95
Width: 1183
Flags: W
LayerCount: 2
Fore
SplineSet
90 476 m 0,0,1
 90 606 90 606 133 710.5 c 128,-1,2
 176 815 176 815 248.5 888.5 c 128,-1,3
 321 962 321 962 416 1002 c 128,-1,4
 511 1042 511 1042 615 1042 c 0,5,6
 728 1042 728 1042 817 1013 c 128,-1,7
 906 984 906 984 967.5 924 c 128,-1,8
 1029 864 1029 864 1061 773.5 c 128,-1,9
 1093 683 1093 683 1093 560 c 0,10,11
 1093 427 1093 427 1053 319.5 c 128,-1,12
 1013 212 1013 212 944 136 c 128,-1,13
 875 60 875 60 783 19 c 128,-1,14
 691 -22 691 -22 586 -22 c 0,15,16
 482 -22 482 -22 391.5 8.5 c 128,-1,17
 301 39 301 39 234 100.5 c 128,-1,18
 167 162 167 162 128.5 255.5 c 128,-1,19
 90 349 90 349 90 476 c 0,0,1
324 525 m 0,20,21
 324 432 324 432 338.5 349.5 c 128,-1,22
 353 267 353 267 389 206.5 c 128,-1,23
 425 146 425 146 486 113 c 128,-1,24
 547 80 547 80 641 86 c 0,25,26
 706 90 706 90 748.5 127.5 c 128,-1,27
 791 165 791 165 815.5 223 c 128,-1,28
 840 281 840 281 849.5 352 c 128,-1,29
 859 423 859 423 859 494 c 0,30,31
 859 587 859 587 844.5 669 c 128,-1,32
 830 751 830 751 794 810.5 c 128,-1,33
 758 870 758 870 697 902.5 c 128,-1,34
 636 935 636 935 543 930 c 0,35,36
 477 926 477 926 435 891 c 128,-1,37
 393 856 393 856 368 800 c 128,-1,38
 343 744 343 744 333.5 672.5 c 128,-1,39
 324 601 324 601 324 525 c 0,20,21
EndSplineSet
Substitution2: "Single Substitution lookup 4 subtable" ordmasculine
Substitution2: "'aalt' Access All Alternates in Latin lookup 0 subtable" ordmasculine
EndChar

StartChar: p
Encoding: 112 112 96
Width: 1253
Flags: W
LayerCount: 2
Fore
SplineSet
212 711 m 2,0,1
 212 765 212 765 201 795 c 128,-1,2
 190 825 190 825 170 841 c 128,-1,3
 150 857 150 857 123 864 c 128,-1,4
 96 871 96 871 63 879 c 1,5,-1
 63 951 l 1,6,7
 112 959 112 959 154 969.5 c 128,-1,8
 196 980 196 980 235.5 993.5 c 128,-1,9
 275 1007 275 1007 313 1024 c 128,-1,10
 351 1041 351 1041 392 1062 c 1,11,-1
 430 1042 l 1,12,13
 427 1004 427 1004 425.5 965 c 128,-1,14
 424 926 424 926 422 881 c 1,15,16
 450 900 450 900 490 928 c 128,-1,17
 530 956 530 956 574.5 981 c 128,-1,18
 619 1006 619 1006 665 1024 c 128,-1,19
 711 1042 711 1042 752 1042 c 0,20,21
 770 1042 770 1042 809 1037.5 c 128,-1,22
 848 1033 848 1033 895 1014.5 c 128,-1,23
 942 996 942 996 991.5 958.5 c 128,-1,24
 1041 921 1041 921 1081 855 c 0,25,26
 1113 801 1113 801 1138 726.5 c 128,-1,27
 1163 652 1163 652 1163 548 c 0,28,29
 1163 420 1163 420 1132.5 327.5 c 128,-1,30
 1102 235 1102 235 1053.5 171 c 128,-1,31
 1005 107 1005 107 945.5 68.5 c 128,-1,32
 886 30 886 30 827.5 9 c 128,-1,33
 769 -12 769 -12 718 -18.5 c 128,-1,34
 667 -25 667 -25 637 -25 c 0,35,36
 594 -25 594 -25 536.5 -17.5 c 128,-1,37
 479 -10 479 -10 422 0 c 1,38,-1
 422 -348 l 1,39,-1
 646 -404 l 1,40,-1
 646 -486 l 1,41,-1
 90 -486 l 1,42,-1
 90 -404 l 1,43,44
 129 -393 129 -393 153 -381.5 c 128,-1,45
 177 -370 177 -370 190 -350.5 c 128,-1,46
 203 -331 203 -331 207.5 -299 c 128,-1,47
 212 -267 212 -267 212 -214 c 2,48,-1
 212 711 l 2,0,1
422 172 m 1,49,50
 479 143 479 143 548.5 122.5 c 128,-1,51
 618 102 618 102 691 102 c 0,52,53
 762 102 762 102 811.5 130.5 c 128,-1,54
 861 159 861 159 891.5 209.5 c 128,-1,55
 922 260 922 260 935.5 328 c 128,-1,56
 949 396 949 396 949 474 c 0,57,58
 949 557 949 557 932.5 631 c 128,-1,59
 916 705 916 705 886.5 760.5 c 128,-1,60
 857 816 857 816 816.5 848.5 c 128,-1,61
 776 881 776 881 728 881 c 0,62,63
 692 881 692 881 647 868.5 c 128,-1,64
 602 856 602 856 558.5 839 c 128,-1,65
 515 822 515 822 478.5 804 c 128,-1,66
 442 786 442 786 422 775 c 1,67,-1
 422 172 l 1,49,50
EndSplineSet
EndChar

StartChar: q
Encoding: 113 113 97
Width: 1207
Flags: W
LayerCount: 2
Fore
SplineSet
90 477 m 0,0,1
 90 589 90 589 118 678.5 c 128,-1,2
 146 768 146 768 199 836 c 1,3,4
 237 888 237 888 286.5 927 c 128,-1,5
 336 966 336 966 390.5 992 c 128,-1,6
 445 1018 445 1018 503 1031.5 c 128,-1,7
 561 1045 561 1045 616 1045 c 0,8,9
 673 1045 673 1045 727.5 1033.5 c 128,-1,10
 782 1022 782 1022 826 1012 c 1,11,12
 862 1008 862 1008 889.5 1004 c 128,-1,13
 917 1000 917 1000 951.5 997 c 128,-1,14
 986 994 986 994 1035 991.5 c 128,-1,15
 1084 989 1084 989 1162 988 c 1,16,-1
 1162 916 l 1,17,-1
 1036 870 l 1,18,-1
 1036 -346 l 1,19,20
 1057 -358 1057 -358 1077 -369 c 0,21,22
 1094 -379 1094 -379 1114 -388.5 c 128,-1,23
 1134 -398 1134 -398 1150 -403 c 1,24,-1
 1150 -485 l 1,25,-1
 630 -485 l 1,26,-1
 630 -403 l 1,27,28
 685 -389 685 -389 722.5 -378.5 c 128,-1,29
 760 -368 760 -368 783 -351 c 128,-1,30
 806 -334 806 -334 816 -306 c 128,-1,31
 826 -278 826 -278 826 -229 c 2,32,-1
 826 147 l 1,33,34
 717 59 717 59 635.5 20 c 128,-1,35
 554 -19 554 -19 501 -19 c 0,36,37
 428 -19 428 -19 368.5 2.5 c 128,-1,38
 309 24 309 24 263.5 61 c 128,-1,39
 218 98 218 98 185 147 c 128,-1,40
 152 196 152 196 131 251 c 128,-1,41
 110 306 110 306 100 364 c 128,-1,42
 90 422 90 422 90 477 c 0,0,1
525 142 m 0,43,44
 553 142 553 142 592.5 152 c 128,-1,45
 632 162 632 162 674 177.5 c 128,-1,46
 716 193 716 193 756 212 c 128,-1,47
 796 231 796 231 826 249 c 1,48,-1
 826 848 l 1,49,50
 780 875 780 875 710.5 895.5 c 128,-1,51
 641 916 641 916 562 918 c 0,52,53
 512 919 512 919 465.5 900 c 128,-1,54
 419 881 419 881 383 837.5 c 128,-1,55
 347 794 347 794 325.5 723.5 c 128,-1,56
 304 653 304 653 304 551 c 0,57,58
 304 462 304 462 322 387 c 128,-1,59
 340 312 340 312 370 257.5 c 128,-1,60
 400 203 400 203 440 172.5 c 128,-1,61
 480 142 480 142 525 142 c 0,43,44
EndSplineSet
EndChar

StartChar: r
Encoding: 114 114 98
Width: 967
Flags: W
LayerCount: 2
Fore
SplineSet
96 82 m 1,0,1
 151 99 151 99 183.5 111.5 c 128,-1,2
 216 124 216 124 233.5 144.5 c 128,-1,3
 251 165 251 165 256 199 c 128,-1,4
 261 233 261 233 261 292 c 2,5,-1
 261 681 l 2,6,7
 261 734 261 734 246 766.5 c 128,-1,8
 231 799 231 799 207 817.5 c 128,-1,9
 183 836 183 836 152.5 846 c 128,-1,10
 122 856 122 856 91 864 c 1,11,-1
 91 936 l 1,12,13
 159 949 159 949 202.5 960 c 128,-1,14
 246 971 246 971 281.5 984.5 c 128,-1,15
 317 998 317 998 354 1016 c 128,-1,16
 391 1034 391 1034 447 1062 c 1,17,-1
 487 1041 l 1,18,-1
 474 869 l 1,19,20
 504 894 504 894 536 920 c 0,21,22
 563 942 563 942 596.5 967 c 128,-1,23
 630 992 630 992 664 1013 c 1,24,25
 706 1034 706 1034 753 1040.5 c 128,-1,26
 800 1047 800 1047 840 1046 c 0,27,28
 887 1045 887 1045 931 1036 c 1,29,-1
 905 680 l 1,30,-1
 793 680 l 1,31,-1
 772 824 l 1,32,33
 770 827 770 827 767 834 c 128,-1,34
 764 841 764 841 758.5 847.5 c 128,-1,35
 753 854 753 854 745.5 859.5 c 128,-1,36
 738 865 738 865 728 865 c 0,37,38
 692 864 692 864 654.5 855 c 128,-1,39
 617 846 617 846 583 832.5 c 128,-1,40
 549 819 549 819 520 803.5 c 128,-1,41
 491 788 491 788 471 775 c 1,42,-1
 471 137 l 1,43,-1
 707 82 l 1,44,-1
 707 0 l 1,45,-1
 96 0 l 1,46,-1
 96 82 l 1,0,1
EndSplineSet
EndChar

StartChar: s
Encoding: 115 115 99
Width: 1000
Flags: W
LayerCount: 2
Fore
SplineSet
174 325 m 1,0,-1
 278 323 l 1,1,-1
 316 214 l 2,2,3
 327 184 327 184 336 175 c 128,-1,4
 345 166 345 166 353 161 c 1,5,6
 386 146 386 146 418 137 c 128,-1,7
 450 128 450 128 483 122.5 c 128,-1,8
 516 117 516 117 551 115.5 c 128,-1,9
 586 114 586 114 624 114 c 0,10,11
 647 114 647 114 666 123.5 c 128,-1,12
 685 133 685 133 698 149.5 c 128,-1,13
 711 166 711 166 718 186.5 c 128,-1,14
 725 207 725 207 725 230 c 0,15,16
 725 282 725 282 700.5 316 c 128,-1,17
 676 350 676 350 636 373 c 128,-1,18
 596 396 596 396 544.5 412 c 128,-1,19
 493 428 493 428 440 443 c 128,-1,20
 387 458 387 458 335.5 477 c 128,-1,21
 284 496 284 496 244 524.5 c 128,-1,22
 204 553 204 553 179.5 595.5 c 128,-1,23
 155 638 155 638 155 702 c 0,24,25
 155 780 155 780 180.5 842.5 c 128,-1,26
 206 905 206 905 255.5 949 c 128,-1,27
 305 993 305 993 377.5 1016.5 c 128,-1,28
 450 1040 450 1040 544 1040 c 0,29,30
 627 1040 627 1040 704 1032.5 c 128,-1,31
 781 1025 781 1025 863 1014 c 1,32,-1
 837 745 l 1,33,-1
 739 745 l 1,34,-1
 709 820 l 2,35,36
 698 849 698 849 687 865.5 c 128,-1,37
 676 882 676 882 655 891 c 0,38,39
 613 909 613 909 556.5 920.5 c 128,-1,40
 500 932 500 932 444 932 c 0,41,42
 420 932 420 932 400 919 c 128,-1,43
 380 906 380 906 366.5 885.5 c 128,-1,44
 353 865 353 865 345.5 840.5 c 128,-1,45
 338 816 338 816 338 792 c 0,46,47
 338 743 338 743 362.5 711 c 128,-1,48
 387 679 387 679 427 657.5 c 128,-1,49
 467 636 467 636 518 621.5 c 128,-1,50
 569 607 569 607 622 592 c 128,-1,51
 675 577 675 577 726 558.5 c 128,-1,52
 777 540 777 540 817 510.5 c 128,-1,53
 857 481 857 481 881.5 437.5 c 128,-1,54
 906 394 906 394 906 329 c 0,55,56
 906 235 906 235 873.5 169.5 c 128,-1,57
 841 104 841 104 785 62.5 c 128,-1,58
 729 21 729 21 653.5 2 c 128,-1,59
 578 -17 578 -17 493 -17 c 0,60,61
 455 -17 455 -17 408 -10 c 128,-1,62
 361 -3 361 -3 313 8.5 c 128,-1,63
 265 20 265 20 220 35.5 c 128,-1,64
 175 51 175 51 140 68 c 1,65,-1
 174 325 l 1,0,-1
EndSplineSet
EndChar

StartChar: t
Encoding: 116 116 100
Width: 823
Flags: W
LayerCount: 2
Fore
SplineSet
226 885 m 1,0,-1
 68 885 l 1,1,-1
 68 986 l 1,2,-1
 166 1023 l 2,3,4
 195 1034 195 1034 215.5 1053.5 c 128,-1,5
 236 1073 236 1073 242 1088 c 2,6,-1
 319 1280 l 1,7,-1
 443 1280 l 1,8,-1
 436 1020 l 1,9,-1
 755 1020 l 1,10,-1
 755 885 l 1,11,-1
 436 885 l 1,12,-1
 436 240 l 2,13,14
 436 192 436 192 462.5 171.5 c 128,-1,15
 489 151 489 151 537 151 c 0,16,17
 564 151 564 151 597 157 c 128,-1,18
 630 163 630 163 663 172.5 c 128,-1,19
 696 182 696 182 727 193.5 c 128,-1,20
 758 205 758 205 781 216 c 1,21,-1
 819 120 l 1,22,23
 783 97 783 97 735.5 71 c 128,-1,24
 688 45 688 45 637 23 c 128,-1,25
 586 1 586 1 534.5 -13 c 128,-1,26
 483 -27 483 -27 438 -27 c 0,27,28
 362 -27 362 -27 319.5 -7.5 c 128,-1,29
 277 12 277 12 256 51.5 c 128,-1,30
 235 91 235 91 230.5 151 c 128,-1,31
 226 211 226 211 226 292 c 2,32,-1
 226 885 l 1,0,-1
EndSplineSet
EndChar

StartChar: u
Encoding: 117 117 101
Width: 1329
Flags: W
LayerCount: 2
Fore
SplineSet
237 795 m 1,0,1
 236 845 236 845 220.5 873 c 128,-1,2
 205 901 205 901 183.5 914.5 c 128,-1,3
 162 928 162 928 137.5 932.5 c 128,-1,4
 113 937 113 937 94 941 c 1,5,-1
 94 1017 l 1,6,-1
 461 1042 l 1,7,8
 458 1014 458 1014 456 988 c 128,-1,9
 454 962 454 962 452 931.5 c 128,-1,10
 450 901 450 901 449.5 865 c 128,-1,11
 449 829 449 829 448 781.5 c 128,-1,12
 447 734 447 734 447 673 c 128,-1,13
 447 612 447 612 447 533 c 2,14,-1
 447 268 l 2,15,16
 447 226 447 226 455.5 201.5 c 128,-1,17
 464 177 464 177 483.5 164.5 c 128,-1,18
 503 152 503 152 535.5 149 c 128,-1,19
 568 146 568 146 616 146 c 0,20,21
 656 146 656 146 697 153 c 128,-1,22
 738 160 738 160 776 171.5 c 128,-1,23
 814 183 814 183 846 197 c 128,-1,24
 878 211 878 211 901 225 c 1,25,-1
 901 783 l 2,26,27
 901 824 901 824 887 852.5 c 128,-1,28
 873 881 873 881 848 899 c 128,-1,29
 823 917 823 917 788.5 927 c 128,-1,30
 754 937 754 937 713 941 c 1,31,-1
 713 1017 l 1,32,-1
 1117 1042 l 1,33,34
 1115 989 1115 989 1113.5 925 c 128,-1,35
 1112 861 1112 861 1111.5 793.5 c 128,-1,36
 1111 726 1111 726 1111 659 c 128,-1,37
 1111 592 1111 592 1111 533 c 2,38,-1
 1111 265 l 2,39,40
 1111 212 1111 212 1122.5 185 c 128,-1,41
 1134 158 1134 158 1154 146 c 128,-1,42
 1174 134 1174 134 1201 131 c 128,-1,43
 1228 128 1228 128 1260 124 c 1,44,-1
 1260 52 l 1,45,46
 1207 41 1207 41 1171 33.5 c 128,-1,47
 1135 26 1135 26 1104 17.5 c 128,-1,48
 1073 9 1073 9 1042.5 -3 c 128,-1,49
 1012 -15 1012 -15 970 -34 c 1,50,-1
 930 -13 l 1,51,-1
 905 129 l 1,52,53
 873 107 873 107 837 85 c 0,54,55
 806 66 806 66 767.5 45.5 c 128,-1,56
 729 25 729 25 689 11 c 0,57,58
 680 8 680 8 662 1 c 128,-1,59
 644 -6 644 -6 621 -13 c 128,-1,60
 598 -20 598 -20 570.5 -25 c 128,-1,61
 543 -30 543 -30 515 -30 c 0,62,63
 442 -30 442 -30 392.5 -14.5 c 128,-1,64
 343 1 343 1 312 29 c 128,-1,65
 281 57 281 57 265.5 95 c 128,-1,66
 250 133 250 133 243.5 177.5 c 128,-1,67
 237 222 237 222 237 271 c 128,-1,68
 237 320 237 320 237 370 c 2,69,-1
 237 795 l 1,0,1
EndSplineSet
EndChar

StartChar: v
Encoding: 118 118 102
Width: 1163
Flags: W
LayerCount: 2
Fore
SplineSet
145 871 m 1,0,-1
 128 884 l 1,1,-1
 3 938 l 1,2,-1
 3 1020 l 1,3,-1
 505 1020 l 1,4,-1
 499 939 l 1,5,6
 451 924 451 924 420.5 912.5 c 128,-1,7
 390 901 390 901 373 885 c 1,8,-1
 602 315 l 2,9,10
 613 289 613 289 623.5 277 c 128,-1,11
 634 265 634 265 644 263 c 1,12,-1
 905 898 l 1,13,-1
 775 938 l 1,14,-1
 775 1020 l 1,15,-1
 1194 1020 l 1,16,-1
 1194 939 l 1,17,18
 1147 924 1147 924 1120 914.5 c 128,-1,19
 1093 905 1093 905 1075.5 891.5 c 128,-1,20
 1058 878 1058 878 1044.5 857 c 128,-1,21
 1031 836 1031 836 1013 798 c 1,22,-1
 684 50 l 1,23,-1
 683 50 l 1,24,-1
 647 -44 l 1,25,-1
 548 -27 l 1,26,-1
 489 131 l 1,27,-1
 145 871 l 1,0,-1
EndSplineSet
EndChar

StartChar: w
Encoding: 119 119 103
Width: 1710
Flags: W
LayerCount: 2
Fore
SplineSet
463 145 m 1,0,1
 428 220 428 220 387.5 313 c 128,-1,2
 347 406 347 406 305 504 c 128,-1,3
 263 602 263 602 222.5 700 c 128,-1,4
 182 798 182 798 147 883 c 1,5,-1
 16 937 l 1,6,-1
 13 1020 l 1,7,-1
 525 1020 l 1,8,-1
 519 938 l 1,9,10
 461 920 461 920 428.5 906.5 c 128,-1,11
 396 893 396 893 380 871 c 1,12,-1
 579 337 l 2,13,14
 586 317 586 317 594 309 c 128,-1,15
 602 301 602 301 611 301 c 1,16,-1
 814 794 l 1,17,18
 803 820 803 820 792.5 846 c 128,-1,19
 782 872 782 872 772 896 c 1,20,-1
 649 937 l 1,21,-1
 646 1020 l 1,22,-1
 1136 1020 l 1,23,-1
 1130 938 l 1,24,25
 1083 924 1083 924 1051 911.5 c 128,-1,26
 1019 899 1019 899 997 883 c 1,27,-1
 1205 328 l 2,28,29
 1215 301 1215 301 1229 296 c 1,30,-1
 1447 889 l 1,31,-1
 1285 937 l 1,32,-1
 1282 1020 l 1,33,-1
 1734 1020 l 1,34,-1
 1728 938 l 1,35,36
 1692 930 1692 930 1667.5 923 c 128,-1,37
 1643 916 1643 916 1625 904 c 128,-1,38
 1607 892 1607 892 1593.5 874 c 128,-1,39
 1580 856 1580 856 1566 826 c 1,40,-1
 1268 61 l 1,41,-1
 1239 -30 l 1,42,-1
 1145 -13 l 1,43,-1
 1084 145 l 2,44,45
 1064 197 1064 197 1040 256 c 128,-1,46
 1016 315 1016 315 990 378.5 c 128,-1,47
 964 442 964 442 936 507.5 c 128,-1,48
 908 573 908 573 881 638 c 1,49,-1
 670 135 l 1,50,51
 658 103 658 103 643 64.5 c 128,-1,52
 628 26 628 26 606 -30 c 1,53,-1
 512 -13 l 1,54,-1
 463 145 l 1,55,-1
 463 145 l 1,0,1
EndSplineSet
EndChar

StartChar: x
Encoding: 120 120 104
Width: 1164
Flags: W
LayerCount: 2
Fore
SplineSet
38 82 m 1,0,-1
 190 136 l 1,1,-1
 282 220 l 1,2,-1
 492 496 l 1,3,-1
 198 886 l 1,4,-1
 36 938 l 1,5,-1
 33 1020 l 1,6,-1
 546 1020 l 1,7,-1
 546 939 l 1,8,9
 508 932 508 932 478 925.5 c 128,-1,10
 448 919 448 919 426 909 c 1,11,-1
 635 630 l 1,12,-1
 827 903 l 1,13,-1
 718 938 l 1,14,-1
 717 1020 l 1,15,-1
 1147 1020 l 1,16,-1
 1141 939 l 1,17,18
 1110 929 1110 929 1086.5 922.5 c 128,-1,19
 1063 916 1063 916 1044 912 c 128,-1,20
 1025 908 1025 908 1009.5 905.5 c 128,-1,21
 994 903 994 903 979 901 c 1,22,-1
 713 540 l 1,23,-1
 1027 126 l 1,24,-1
 1156 81 l 1,25,-1
 1156 0 l 1,26,-1
 673 0 l 1,27,-1
 673 82 l 1,28,-1
 791 131 l 1,29,-1
 571 407 l 1,30,-1
 368 140 l 1,31,32
 377 130 377 130 391 123 c 128,-1,33
 405 116 405 116 425 110 c 128,-1,34
 445 104 445 104 471 97 c 128,-1,35
 497 90 497 90 531 81 c 1,36,-1
 532 0 l 1,37,-1
 35 0 l 1,38,-1
 38 82 l 1,0,-1
887 884 m 1,39,-1
 879 886 l 1,40,-1
 867 884 l 1,41,-1
 887 884 l 1,39,-1
EndSplineSet
EndChar

StartChar: y
Encoding: 121 121 105
Width: 1177
Flags: W
LayerCount: 2
Fore
SplineSet
202 -412 m 1,0,1
 268 -405 268 -405 322.5 -374.5 c 128,-1,2
 377 -344 377 -344 420 -301.5 c 128,-1,3
 463 -259 463 -259 495.5 -210 c 128,-1,4
 528 -161 528 -161 550.5 -117.5 c 128,-1,5
 573 -74 573 -74 585.5 -42 c 128,-1,6
 598 -10 598 -10 601 0 c 1,7,-1
 606 12 l 1,8,-1
 538 0 l 1,9,10
 485 132 485 132 429.5 257.5 c 128,-1,11
 374 383 374 383 321.5 497.5 c 128,-1,12
 269 612 269 612 221 713.5 c 128,-1,13
 173 815 173 815 136 899 c 1,14,-1
 7 938 l 1,15,-1
 4 1020 l 1,16,-1
 561 1020 l 1,17,-1
 555 939 l 1,18,19
 514 926 514 926 486.5 916 c 128,-1,20
 459 906 459 906 441 894 c 128,-1,21
 423 882 423 882 413.5 865.5 c 128,-1,22
 404 849 404 849 399 824 c 1,23,-1
 599 325 l 1,24,25
 612 289 612 289 624 268.5 c 128,-1,26
 636 248 636 248 647 238.5 c 128,-1,27
 658 229 658 229 669.5 229 c 128,-1,28
 681 229 681 229 693 235 c 1,29,-1
 900 885 l 1,30,-1
 721 938 l 1,31,-1
 718 1020 l 1,32,-1
 1220 1020 l 1,33,-1
 1214 939 l 1,34,35
 1154 925 1154 925 1112.5 907.5 c 128,-1,36
 1071 890 1071 890 1054 856 c 1,37,38
 981 658 981 658 925 508 c 128,-1,39
 869 358 869 358 826.5 244.5 c 128,-1,40
 784 131 784 131 752 48 c 128,-1,41
 720 -35 720 -35 695 -98 c 128,-1,42
 670 -161 670 -161 650 -210 c 128,-1,43
 630 -259 630 -259 610.5 -305.5 c 128,-1,44
 591 -352 591 -352 570 -401 c 128,-1,45
 549 -450 549 -450 522 -513 c 1,46,-1
 226 -513 l 1,47,-1
 202 -412 l 1,48,-1
 202 -412 l 1,0,1
EndSplineSet
EndChar

StartChar: z
Encoding: 122 122 106
Width: 1044
Flags: W
LayerCount: 2
Fore
SplineSet
95 99 m 1,0,-1
 654 850 l 1,1,-1
 718 922 l 1,2,3
 657 919 657 919 594.5 915 c 128,-1,4
 532 911 532 911 479.5 906.5 c 128,-1,5
 427 902 427 902 390.5 897.5 c 128,-1,6
 354 893 354 893 345 889 c 0,7,8
 334 884 334 884 324 876.5 c 128,-1,9
 314 869 314 869 301.5 850 c 128,-1,10
 289 831 289 831 272 797 c 128,-1,11
 255 763 255 763 230 705 c 1,12,-1
 140 705 l 1,13,-1
 151 1020 l 1,14,-1
 925 1020 l 1,15,-1
 959 925 l 1,16,-1
 401 170 l 1,17,-1
 341 104 l 1,18,19
 403 106 403 106 467.5 109.5 c 128,-1,20
 532 113 532 113 588 117.5 c 128,-1,21
 644 122 644 122 687 128.5 c 128,-1,22
 730 135 730 135 749 144 c 0,23,24
 753 146 753 146 760 150.5 c 128,-1,25
 767 155 767 155 781.5 175.5 c 128,-1,26
 796 196 796 196 819.5 240.5 c 128,-1,27
 843 285 843 285 881 367 c 1,28,-1
 977 367 l 1,29,-1
 952 0 l 1,30,-1
 132 0 l 1,31,-1
 95 99 l 1,0,-1
EndSplineSet
EndChar

StartChar: braceleft
Encoding: 123 123 107
Width: 853
Flags: W
LayerCount: 2
Fore
SplineSet
340 118 m 0,0,1
 340 193 340 193 342.5 261 c 128,-1,2
 345 329 345 329 342 387.5 c 128,-1,3
 339 446 339 446 325.5 494.5 c 128,-1,4
 312 543 312 543 280 578.5 c 128,-1,5
 248 614 248 614 193.5 636.5 c 128,-1,6
 139 659 139 659 53 667 c 1,7,-1
 53 784 l 1,8,9
 139 791 139 791 193.5 819 c 128,-1,10
 248 847 248 847 280 889 c 128,-1,11
 312 931 312 931 325.5 984.5 c 128,-1,12
 339 1038 339 1038 342 1096.5 c 128,-1,13
 345 1155 345 1155 342.5 1215.5 c 128,-1,14
 340 1276 340 1276 340 1333 c 0,15,16
 340 1452 340 1452 364.5 1536.5 c 128,-1,17
 389 1621 389 1621 441.5 1676.5 c 128,-1,18
 494 1732 494 1732 577 1761.5 c 128,-1,19
 660 1791 660 1791 778 1801 c 1,20,-1
 778 1704 l 1,21,22
 724 1692 724 1692 673 1667.5 c 128,-1,23
 622 1643 622 1643 568 1601 c 1,24,25
 554 1545 554 1545 547 1499.5 c 128,-1,26
 540 1454 540 1454 537.5 1411.5 c 128,-1,27
 535 1369 535 1369 535 1324 c 128,-1,28
 535 1279 535 1279 535 1225 c 0,29,30
 535 1196 535 1196 535 1174 c 128,-1,31
 535 1152 535 1152 534.5 1133 c 128,-1,32
 534 1114 534 1114 533 1096.5 c 128,-1,33
 532 1079 532 1079 531 1059 c 0,34,35
 528 1017 528 1017 521.5 985 c 128,-1,36
 515 953 515 953 501 930 c 1,37,38
 487 904 487 904 467.5 874.5 c 128,-1,39
 448 845 448 845 415.5 817.5 c 128,-1,40
 383 790 383 790 334 767 c 128,-1,41
 285 744 285 744 212 731 c 1,42,-1
 212 726 l 1,43,44
 285 712 285 712 334 688.5 c 128,-1,45
 383 665 383 665 415.5 636.5 c 128,-1,46
 448 608 448 608 467.5 577.5 c 128,-1,47
 487 547 487 547 501 521 c 1,48,49
 515 498 515 498 521.5 466 c 128,-1,50
 528 434 528 434 531 392 c 0,51,52
 534 352 534 352 534.5 303 c 128,-1,53
 535 254 535 254 535 196 c 0,54,55
 535 142 535 142 535 102 c 128,-1,56
 535 62 535 62 537.5 24.5 c 128,-1,57
 540 -13 540 -13 547 -53.5 c 128,-1,58
 554 -94 554 -94 568 -150 c 1,59,60
 622 -192 622 -192 673 -216.5 c 128,-1,61
 724 -241 724 -241 778 -253 c 1,62,-1
 778 -350 l 1,63,64
 660 -340 660 -340 577 -310.5 c 128,-1,65
 494 -281 494 -281 441.5 -225.5 c 128,-1,66
 389 -170 389 -170 364.5 -85.5 c 128,-1,67
 340 -1 340 -1 340 118 c 0,0,1
EndSplineSet
EndChar

StartChar: bar
Encoding: 124 124 108
Width: 513
Flags: W
LayerCount: 2
Fore
SplineSet
183 1734 m 1,0,-1
 329 1742 l 1,1,-1
 329 -360 l 1,2,-1
 183 -360 l 1,3,-1
 183 1734 l 1,0,-1
EndSplineSet
EndChar

StartChar: asciitilde
Encoding: 126 126 110
Width: 1193
Flags: W
LayerCount: 2
Fore
SplineSet
175 480 m 1,0,1
 187 529 187 529 211 578 c 128,-1,2
 235 627 235 627 269.5 666 c 128,-1,3
 304 705 304 705 347.5 729 c 128,-1,4
 391 753 391 753 441 753 c 0,5,6
 496 753 496 753 545.5 730.5 c 128,-1,7
 595 708 595 708 638.5 681 c 128,-1,8
 682 654 682 654 719.5 631.5 c 128,-1,9
 757 609 757 609 788 609 c 0,10,11
 812 609 812 609 833 624 c 128,-1,12
 854 639 854 639 871.5 660.5 c 128,-1,13
 889 682 889 682 902 705 c 128,-1,14
 915 728 915 728 924 745 c 1,15,-1
 1017 711 l 1,16,17
 1005 664 1005 664 982.5 617 c 128,-1,18
 960 570 960 570 928 532.5 c 128,-1,19
 896 495 896 495 855 471 c 128,-1,20
 814 447 814 447 765 447 c 0,21,22
 726 447 726 447 692.5 457 c 128,-1,23
 659 467 659 467 629.5 482 c 128,-1,24
 600 497 600 497 573.5 515 c 128,-1,25
 547 533 547 533 522 548 c 128,-1,26
 497 563 497 563 473 573.5 c 128,-1,27
 449 584 449 584 425 585 c 0,28,29
 387 586 387 586 363 571 c 128,-1,30
 339 556 339 556 322.5 534 c 128,-1,31
 306 512 306 512 294.5 488 c 128,-1,32
 283 464 283 464 272 446 c 1,33,-1
 175 480 l 1,34,-1
 175 480 l 1,0,1
EndSplineSet
EndChar

StartChar: dagger
Encoding: 8224 8224 115
Width: 1314
Flags: W
LayerCount: 2
Fore
SplineSet
160 1231 m 1,0,-1
 601 1189 l 1,1,-1
 556 1649 l 1,2,-1
 762 1649 l 1,3,-1
 717 1189 l 1,4,-1
 601 1189 l 1,5,-1
 601 1073 l 1,6,-1
 160 1027 l 1,7,-1
 160 1231 l 1,0,-1
717 1189 m 1,8,-1
 1155 1231 l 1,9,-1
 1155 1027 l 1,10,-1
 717 1073 l 1,11,-1
 717 1189 l 1,8,-1
601 1073 m 1,12,-1
 717 1073 l 1,13,-1
 761 -298 l 1,14,-1
 761 -303 l 1,15,-1
 556 -303 l 1,16,-1
 556 -298 l 1,17,-1
 601 1073 l 1,12,-1
EndSplineSet
EndChar

StartChar: degree
Encoding: 176 176 116
Width: 1023
Flags: W
LayerCount: 2
Fore
SplineSet
511 836 m 256,0,1
 429 836 429 836 361.5 865.5 c 128,-1,2
 294 895 294 895 245.5 945 c 128,-1,3
 197 995 197 995 170.5 1061.5 c 128,-1,4
 144 1128 144 1128 144 1202 c 256,5,6
 144 1276 144 1276 170.5 1342.5 c 128,-1,7
 197 1409 197 1409 245.5 1459.5 c 128,-1,8
 294 1510 294 1510 361.5 1539.5 c 128,-1,9
 429 1569 429 1569 511 1569 c 256,10,11
 593 1569 593 1569 660.5 1539.5 c 128,-1,12
 728 1510 728 1510 776.5 1460 c 128,-1,13
 825 1410 825 1410 851.5 1343.5 c 128,-1,14
 878 1277 878 1277 878 1203 c 256,15,16
 878 1129 878 1129 851.5 1062.5 c 128,-1,17
 825 996 825 996 776.5 945.5 c 128,-1,18
 728 895 728 895 660.5 865.5 c 128,-1,19
 593 836 593 836 511 836 c 256,0,1
511 968 m 256,20,21
 563 968 563 968 603.5 988 c 128,-1,22
 644 1008 644 1008 671.5 1041 c 128,-1,23
 699 1074 699 1074 713 1116 c 128,-1,24
 727 1158 727 1158 727 1203 c 256,25,26
 727 1248 727 1248 713 1290 c 128,-1,27
 699 1332 699 1332 671.5 1365 c 128,-1,28
 644 1398 644 1398 603.5 1418 c 128,-1,29
 563 1438 563 1438 511 1438 c 256,30,31
 459 1438 459 1438 418.5 1418 c 128,-1,32
 378 1398 378 1398 350.5 1365 c 128,-1,33
 323 1332 323 1332 309 1289.5 c 128,-1,34
 295 1247 295 1247 295 1202 c 256,35,36
 295 1157 295 1157 309 1115 c 128,-1,37
 323 1073 323 1073 350.5 1040.5 c 128,-1,38
 378 1008 378 1008 418.5 988 c 128,-1,39
 459 968 459 968 511 968 c 256,20,21
EndSplineSet
EndChar

StartChar: cent
Encoding: 162 162 117
Width: 1051
Flags: W
LayerCount: 2
Fore
SplineSet
463 -5 m 1,0,1
 382 13 382 13 314 52.5 c 128,-1,2
 246 92 246 92 197 152.5 c 128,-1,3
 148 213 148 213 120.5 294 c 128,-1,4
 93 375 93 375 93 476 c 0,5,6
 93 602 93 602 131 700.5 c 128,-1,7
 169 799 169 799 234.5 869.5 c 128,-1,8
 300 940 300 940 386.5 982 c 128,-1,9
 473 1024 473 1024 570 1036 c 1,10,-1
 596 1284 l 1,11,-1
 710 1284 l 1,12,-1
 685 1041 l 1,13,14
 748 1038 748 1038 811 1024.5 c 128,-1,15
 874 1011 874 1011 937 986 c 1,16,17
 936 979 936 979 933 954.5 c 128,-1,18
 930 930 930 930 926 896.5 c 128,-1,19
 922 863 922 863 917.5 826 c 128,-1,20
 913 789 913 789 909 757.5 c 128,-1,21
 905 726 905 726 902.5 705.5 c 128,-1,22
 900 685 900 685 899 685 c 2,23,-1
 815 685 l 1,24,25
 802 739 802 739 793.5 774 c 128,-1,26
 785 809 785 809 779 830 c 128,-1,27
 773 851 773 851 768.5 860 c 128,-1,28
 764 869 764 869 758 871 c 0,29,30
 735 876 735 876 713.5 880.5 c 128,-1,31
 692 885 692 885 669 888 c 1,32,-1
 593 154 l 1,33,34
 604 152 604 152 614.5 152 c 128,-1,35
 625 152 625 152 636 152 c 0,36,37
 651 152 651 152 685 158.5 c 128,-1,38
 719 165 719 165 760.5 174.5 c 128,-1,39
 802 184 802 184 844 195.5 c 128,-1,40
 886 207 886 207 918 218 c 1,41,-1
 951 134 l 1,42,43
 895 100 895 100 837.5 72 c 128,-1,44
 780 44 780 44 731 23.5 c 128,-1,45
 682 3 682 3 647.5 -8.5 c 128,-1,46
 613 -20 613 -20 605 -20 c 256,47,48
 597 -20 597 -20 590 -19.5 c 128,-1,49
 583 -19 583 -19 575 -19 c 1,50,-1
 552 -247 l 1,51,-1
 438 -247 l 1,52,-1
 463 -5 l 1,0,1
556 895 m 1,53,54
 523 895 523 895 486 889.5 c 128,-1,55
 449 884 449 884 415 874 c 1,56,57
 385 854 385 854 362.5 812.5 c 128,-1,58
 340 771 340 771 324.5 724.5 c 128,-1,59
 309 678 309 678 301.5 634 c 128,-1,60
 294 590 294 590 294 565 c 0,61,62
 294 503 294 503 304.5 444.5 c 128,-1,63
 315 386 315 386 337.5 336 c 128,-1,64
 360 286 360 286 395.5 246.5 c 128,-1,65
 431 207 431 207 482 183 c 1,66,-1
 556 895 l 1,53,54
EndSplineSet
EndChar

StartChar: sterling
Encoding: 163 163 118
Width: 1362
Flags: W
LayerCount: 2
Fore
SplineSet
158 123 m 1,0,1
 213 147 213 147 271.5 197 c 128,-1,2
 330 247 330 247 379 311 c 128,-1,3
 428 375 428 375 459.5 445 c 128,-1,4
 491 515 491 515 491 580 c 0,5,6
 491 610 491 610 485.5 637.5 c 128,-1,7
 480 665 480 665 470 691 c 1,8,-1
 204 691 l 1,9,-1
 234 811 l 1,10,-1
 407 811 l 1,11,12
 381 850 381 850 354.5 889.5 c 128,-1,13
 328 929 328 929 305.5 971 c 128,-1,14
 283 1013 283 1013 269 1059.5 c 128,-1,15
 255 1106 255 1106 255 1160 c 0,16,17
 255 1228 255 1228 277.5 1287 c 128,-1,18
 300 1346 300 1346 339 1394 c 128,-1,19
 378 1442 378 1442 431 1479 c 128,-1,20
 484 1516 484 1516 545 1541 c 128,-1,21
 606 1566 606 1566 672.5 1579 c 128,-1,22
 739 1592 739 1592 805 1592 c 0,23,24
 908 1592 908 1592 976 1578 c 128,-1,25
 1044 1564 1044 1564 1086 1543 c 128,-1,26
 1128 1522 1128 1522 1149 1497 c 128,-1,27
 1170 1472 1170 1472 1180 1450 c 1,28,29
 1175 1433 1175 1433 1170.5 1410 c 128,-1,30
 1166 1387 1166 1387 1160.5 1361.5 c 128,-1,31
 1155 1336 1155 1336 1150 1309 c 128,-1,32
 1145 1282 1145 1282 1141 1257 c 0,33,34
 1130 1197 1130 1197 1121 1133 c 1,35,-1
 1007 1133 l 1,36,37
 1010 1163 1010 1163 1010 1190 c 0,38,39
 1010 1260 1010 1260 1002.5 1310 c 128,-1,40
 995 1360 995 1360 964 1392 c 128,-1,41
 933 1424 933 1424 871 1438.5 c 128,-1,42
 809 1453 809 1453 701 1453 c 0,43,44
 659 1453 659 1453 622.5 1446.5 c 128,-1,45
 586 1440 586 1440 557 1430.5 c 128,-1,46
 528 1421 528 1421 507 1410 c 128,-1,47
 486 1399 486 1399 475 1390 c 1,48,49
 462 1364 462 1364 459 1339 c 128,-1,50
 456 1314 456 1314 456 1291 c 0,51,52
 456 1232 456 1232 479 1179 c 128,-1,53
 502 1126 502 1126 533.5 1070 c 128,-1,54
 565 1014 565 1014 599 951.5 c 128,-1,55
 633 889 633 889 655 811 c 1,56,-1
 1045 811 l 1,57,-1
 1015 691 l 1,58,-1
 678 691 l 1,59,60
 681 658 681 658 681 624 c 0,61,62
 681 548 681 548 663 485.5 c 128,-1,63
 645 423 645 423 618 373.5 c 128,-1,64
 591 324 591 324 559.5 288 c 128,-1,65
 528 252 528 252 502 228.5 c 128,-1,66
 476 205 476 205 458.5 193.5 c 128,-1,67
 441 182 441 182 443 182 c 0,68,69
 532 210 532 210 618 213 c 128,-1,70
 704 216 704 216 780 208.5 c 128,-1,71
 856 201 856 201 919 190 c 128,-1,72
 982 179 982 179 1025 179 c 0,73,74
 1064 179 1064 179 1085.5 193.5 c 128,-1,75
 1107 208 1107 208 1107 238 c 0,76,77
 1107 246 1107 246 1104 262 c 128,-1,78
 1101 278 1101 278 1096 295.5 c 128,-1,79
 1091 313 1091 313 1084 330 c 128,-1,80
 1077 347 1077 347 1069 358 c 1,81,-1
 1183 389 l 1,82,83
 1202 369 1202 369 1218.5 339.5 c 128,-1,84
 1235 310 1235 310 1247 277 c 128,-1,85
 1259 244 1259 244 1265.5 211.5 c 128,-1,86
 1272 179 1272 179 1272 152 c 0,87,88
 1272 116 1272 116 1266 83 c 128,-1,89
 1260 50 1260 50 1243 25 c 128,-1,90
 1226 0 1226 0 1195.5 -15 c 128,-1,91
 1165 -30 1165 -30 1116 -30 c 0,92,93
 1071 -30 1071 -30 1013.5 -14 c 128,-1,94
 956 2 956 2 880.5 21.5 c 128,-1,95
 805 41 805 41 708 57 c 128,-1,96
 611 73 611 73 488 73 c 0,97,98
 429 73 429 73 361.5 54 c 128,-1,99
 294 35 294 35 231 -7 c 1,100,-1
 158 123 l 1,101,-1
 158 123 l 1,0,1
EndSplineSet
EndChar

StartChar: section
Encoding: 167 167 119
Width: 1051
Flags: W
LayerCount: 2
Fore
SplineSet
195 324 m 1,0,-1
 299 322 l 1,1,-1
 337 190 l 1,2,3
 348 160 348 160 357 151 c 128,-1,4
 366 142 366 142 374 137 c 1,5,6
 440 107 440 107 504 96.5 c 128,-1,7
 568 86 568 86 645 86 c 0,8,9
 668 86 668 86 687 100 c 128,-1,10
 706 114 706 114 719 135 c 128,-1,11
 732 156 732 156 739 181 c 128,-1,12
 746 206 746 206 746 229 c 0,13,14
 746 281 746 281 721.5 315 c 128,-1,15
 697 349 697 349 657 372 c 128,-1,16
 617 395 617 395 565.5 410.5 c 128,-1,17
 514 426 514 426 461 441.5 c 128,-1,18
 408 457 408 457 356.5 476 c 128,-1,19
 305 495 305 495 265 525 c 128,-1,20
 225 555 225 555 200.5 600 c 128,-1,21
 176 645 176 645 176 711 c 0,22,23
 176 809 176 809 216 882 c 128,-1,24
 256 955 256 955 334 997 c 1,25,26
 300 1012 300 1012 270.5 1032 c 128,-1,27
 241 1052 241 1052 219.5 1079 c 128,-1,28
 198 1106 198 1106 185.5 1141.5 c 128,-1,29
 173 1177 173 1177 173 1223 c 0,30,31
 173 1301 173 1301 198.5 1363.5 c 128,-1,32
 224 1426 224 1426 273.5 1470 c 128,-1,33
 323 1514 323 1514 395.5 1537.5 c 128,-1,34
 468 1561 468 1561 562 1561 c 0,35,36
 645 1561 645 1561 722 1553.5 c 128,-1,37
 799 1546 799 1546 881 1535 c 1,38,-1
 855 1260 l 1,39,-1
 757 1272 l 1,40,-1
 727 1349 l 2,41,42
 716 1378 716 1378 705 1394.5 c 128,-1,43
 694 1411 694 1411 673 1420 c 0,44,45
 631 1438 631 1438 574.5 1451.5 c 128,-1,46
 518 1465 518 1465 462 1465 c 0,47,48
 438 1465 438 1465 418 1451 c 128,-1,49
 398 1437 398 1437 384.5 1415 c 128,-1,50
 371 1393 371 1393 363.5 1367.5 c 128,-1,51
 356 1342 356 1342 356 1318 c 0,52,53
 356 1269 356 1269 380.5 1237.5 c 128,-1,54
 405 1206 405 1206 445 1185 c 128,-1,55
 485 1164 485 1164 536 1150 c 128,-1,56
 587 1136 587 1136 640 1121 c 128,-1,57
 693 1106 693 1106 744 1087 c 128,-1,58
 795 1068 795 1068 835 1037 c 128,-1,59
 875 1006 875 1006 899.5 959.5 c 128,-1,60
 924 913 924 913 924 843 c 0,61,62
 924 740 924 740 886 670 c 128,-1,63
 848 600 848 600 782 558 c 1,64,65
 813 542 813 542 839.5 521.5 c 128,-1,66
 866 501 866 501 885.5 474 c 128,-1,67
 905 447 905 447 916 411.5 c 128,-1,68
 927 376 927 376 927 331 c 0,69,70
 927 237 927 237 894.5 170 c 128,-1,71
 862 103 862 103 806 60.5 c 128,-1,72
 750 18 750 18 674.5 -2 c 128,-1,73
 599 -22 599 -22 514 -22 c 0,74,75
 476 -22 476 -22 429 -15 c 128,-1,76
 382 -8 382 -8 334 3.5 c 128,-1,77
 286 15 286 15 241 30.5 c 128,-1,78
 196 46 196 46 161 63 c 1,79,-1
 195 324 l 1,0,-1
349 806 m 0,80,81
 349 753 349 753 377.5 720.5 c 128,-1,82
 406 688 406 688 451.5 667 c 128,-1,83
 497 646 497 646 554.5 631.5 c 128,-1,84
 612 617 612 617 670 600 c 1,85,86
 688 610 688 610 703.5 621.5 c 128,-1,87
 719 633 719 633 730 649.5 c 128,-1,88
 741 666 741 666 747 688 c 128,-1,89
 753 710 753 710 753 741 c 0,90,91
 753 796 753 796 725.5 830.5 c 128,-1,92
 698 865 698 865 653 888.5 c 128,-1,93
 608 912 608 912 552 927.5 c 128,-1,94
 496 943 496 943 439 960 c 1,95,96
 391 935 391 935 370 901 c 128,-1,97
 349 867 349 867 349 806 c 0,80,81
EndSplineSet
EndChar

StartChar: bullet
Encoding: 8226 8226 120
Width: 1023
Flags: W
LayerCount: 2
Fore
SplineSet
510 526 m 256,0,1
 460 526 460 526 417.5 545.5 c 128,-1,2
 375 565 375 565 343 597.5 c 128,-1,3
 311 630 311 630 293 673 c 128,-1,4
 275 716 275 716 275 763 c 256,5,6
 275 810 275 810 293 853.5 c 128,-1,7
 311 897 311 897 343 930 c 128,-1,8
 375 963 375 963 417.5 982.5 c 128,-1,9
 460 1002 460 1002 510 1002 c 256,10,11
 560 1002 560 1002 603.5 982.5 c 128,-1,12
 647 963 647 963 679 930 c 128,-1,13
 711 897 711 897 729 853.5 c 128,-1,14
 747 810 747 810 747 763 c 256,15,16
 747 716 747 716 729 673 c 128,-1,17
 711 630 711 630 679 597.5 c 128,-1,18
 647 565 647 565 603.5 545.5 c 128,-1,19
 560 526 560 526 510 526 c 256,0,1
EndSplineSet
EndChar

StartChar: paragraph
Encoding: 182 182 121
Width: 1323
Flags: W
LayerCount: 2
Fore
SplineSet
505 -51 m 1,0,1
 569 -51 569 -51 608 -46.5 c 128,-1,2
 647 -42 647 -42 668 -22 c 128,-1,3
 689 -2 689 -2 695.5 40.5 c 128,-1,4
 702 83 702 83 702 158 c 2,5,-1
 702 508 l 1,6,7
 621 483 621 483 550 483 c 0,8,9
 448 483 448 483 374 525 c 128,-1,10
 300 567 300 567 252 635 c 128,-1,11
 204 703 204 703 181 788.5 c 128,-1,12
 158 874 158 874 158 960 c 0,13,14
 158 1050 158 1050 197.5 1138.5 c 128,-1,15
 237 1227 237 1227 318 1298 c 128,-1,16
 399 1369 399 1369 521.5 1413 c 128,-1,17
 644 1457 644 1457 809 1457 c 2,18,-1
 1322 1457 l 1,19,-1
 1307 1340 l 1,20,21
 1263 1340 1263 1340 1235.5 1333 c 128,-1,22
 1208 1326 1208 1326 1191.5 1304 c 128,-1,23
 1175 1282 1175 1282 1169 1241 c 128,-1,24
 1163 1200 1163 1200 1163 1131 c 2,25,-1
 1163 -153 l 1,26,-1
 1025 -153 l 1,27,-1
 1024 1225 l 1,28,29
 1025 1263 1025 1263 1034 1291 c 128,-1,30
 1043 1319 1043 1319 1059 1340 c 1,31,-1
 854 1340 l 1,32,-1
 854 88 l 2,33,34
 854 21 854 21 840 -25.5 c 128,-1,35
 826 -72 826 -72 798 -100.5 c 128,-1,36
 770 -129 770 -129 728 -141 c 128,-1,37
 686 -153 686 -153 630 -153 c 1,38,-1
 630 -152 l 1,39,-1
 505 -153 l 1,40,-1
 505 -51 l 1,41,-1
 505 -51 l 1,0,1
EndSplineSet
EndChar

StartChar: germandbls
Encoding: 223 223 122
Width: 1359
Flags: W
LayerCount: 2
Fore
SplineSet
53 82 m 1,0,1
 95 91 95 91 125 99.5 c 128,-1,2
 155 108 155 108 175 117.5 c 128,-1,3
 195 127 195 127 207 140.5 c 128,-1,4
 219 154 219 154 225.5 174.5 c 128,-1,5
 232 195 232 195 234 223.5 c 128,-1,6
 236 252 236 252 236 292 c 2,7,-1
 238 885 l 1,8,-1
 78 885 l 1,9,-1
 78 1000 l 1,10,-1
 238 1020 l 1,11,-1
 238 1071 l 1,12,13
 245 1184 245 1184 277 1282.5 c 128,-1,14
 309 1381 309 1381 373 1453.5 c 128,-1,15
 437 1526 437 1526 536 1568 c 128,-1,16
 635 1610 635 1610 777 1610 c 0,17,18
 882 1610 882 1610 956 1587 c 128,-1,19
 1030 1564 1030 1564 1076.5 1523 c 128,-1,20
 1123 1482 1123 1482 1144.5 1425.5 c 128,-1,21
 1166 1369 1166 1369 1166 1301 c 0,22,23
 1166 1220 1166 1220 1143 1164 c 128,-1,24
 1120 1108 1120 1108 1084.5 1069 c 128,-1,25
 1049 1030 1049 1030 1007 1005 c 128,-1,26
 965 980 965 980 926.5 960 c 128,-1,27
 888 940 888 940 858.5 922.5 c 128,-1,28
 829 905 829 905 820 881 c 1,29,30
 820 835 820 835 842.5 803 c 128,-1,31
 865 771 865 771 901.5 747 c 128,-1,32
 938 723 938 723 984.5 703 c 128,-1,33
 1031 683 1031 683 1079.5 661.5 c 128,-1,34
 1128 640 1128 640 1174.5 614 c 128,-1,35
 1221 588 1221 588 1257.5 552 c 128,-1,36
 1294 516 1294 516 1316.5 466 c 128,-1,37
 1339 416 1339 416 1339 346 c 0,38,39
 1339 242 1339 242 1307 172 c 128,-1,40
 1275 102 1275 102 1220.5 60 c 128,-1,41
 1166 18 1166 18 1092.5 0.5 c 128,-1,42
 1019 -17 1019 -17 936 -17 c 0,43,44
 898 -17 898 -17 860 -10 c 128,-1,45
 822 -3 822 -3 787.5 8.5 c 128,-1,46
 753 20 753 20 724 35.5 c 128,-1,47
 695 51 695 51 674 68 c 1,48,-1
 700 327 l 1,49,-1
 812 327 l 1,50,-1
 861 156 l 1,51,52
 871 142 871 142 894 134 c 128,-1,53
 917 126 917 126 945 121.5 c 128,-1,54
 973 117 973 117 1003 115.5 c 128,-1,55
 1033 114 1033 114 1058 114 c 0,56,57
 1079 114 1079 114 1097.5 126 c 128,-1,58
 1116 138 1116 138 1129.5 157.5 c 128,-1,59
 1143 177 1143 177 1151 202.5 c 128,-1,60
 1159 228 1159 228 1159 254 c 0,61,62
 1159 306 1159 306 1137.5 343.5 c 128,-1,63
 1116 381 1116 381 1080.5 409.5 c 128,-1,64
 1045 438 1045 438 1000 460 c 128,-1,65
 955 482 955 482 907.5 503.5 c 128,-1,66
 860 525 860 525 815 549 c 128,-1,67
 770 573 770 573 734.5 604 c 128,-1,68
 699 635 699 635 677.5 677 c 128,-1,69
 656 719 656 719 656 777 c 0,70,71
 656 838 656 838 678 880.5 c 128,-1,72
 700 923 700 923 732.5 956.5 c 128,-1,73
 765 990 765 990 803.5 1019.5 c 128,-1,74
 842 1049 842 1049 874.5 1085.5 c 128,-1,75
 907 1122 907 1122 929 1170.5 c 128,-1,76
 951 1219 951 1219 951 1290 c 0,77,78
 951 1454 951 1454 703 1484 c 1,79,80
 664 1484 664 1484 629 1470 c 128,-1,81
 594 1456 594 1456 564 1435.5 c 128,-1,82
 534 1415 534 1415 509 1390.5 c 128,-1,83
 484 1366 484 1366 465 1345 c 1,84,85
 460 1336 460 1336 457 1289 c 128,-1,86
 454 1242 454 1242 452.5 1168.5 c 128,-1,87
 451 1095 451 1095 450.5 1002.5 c 128,-1,88
 450 910 450 910 450 809.5 c 128,-1,89
 450 709 450 709 451 607.5 c 128,-1,90
 452 506 452 506 453.5 416 c 128,-1,91
 455 326 455 326 456.5 253 c 128,-1,92
 458 180 458 180 459 137 c 1,93,-1
 566 82 l 1,94,-1
 566 0 l 1,95,-1
 53 0 l 1,96,-1
 53 82 l 1,0,1
EndSplineSet
EndChar

StartChar: registered
Encoding: 174 174 123
Width: 1818
Flags: W
LayerCount: 2
Fore
SplineSet
115 776 m 0,0,1
 115 887 115 887 143.5 990 c 128,-1,2
 172 1093 172 1093 223.5 1183 c 128,-1,3
 275 1273 275 1273 347.5 1347.5 c 128,-1,4
 420 1422 420 1422 508 1475 c 128,-1,5
 596 1528 596 1528 698 1557.5 c 128,-1,6
 800 1587 800 1587 910 1587 c 256,7,8
 1020 1587 1020 1587 1122 1559 c 128,-1,9
 1224 1531 1224 1531 1312 1480 c 128,-1,10
 1400 1429 1400 1429 1472.5 1356 c 128,-1,11
 1545 1283 1545 1283 1596.5 1193 c 128,-1,12
 1648 1103 1648 1103 1676.5 998 c 128,-1,13
 1705 893 1705 893 1705 778 c 0,14,15
 1705 667 1705 667 1676.5 564 c 128,-1,16
 1648 461 1648 461 1596.5 371 c 128,-1,17
 1545 281 1545 281 1472.5 206.5 c 128,-1,18
 1400 132 1400 132 1312 79 c 128,-1,19
 1224 26 1224 26 1122 -3.5 c 128,-1,20
 1020 -33 1020 -33 910 -33 c 256,21,22
 800 -33 800 -33 698 -5 c 128,-1,23
 596 23 596 23 508 74 c 128,-1,24
 420 125 420 125 347.5 198 c 128,-1,25
 275 271 275 271 223.5 361 c 128,-1,26
 172 451 172 451 143.5 555.5 c 128,-1,27
 115 660 115 660 115 776 c 0,0,1
513 409 m 1,28,29
 549 416 549 416 572 423 c 128,-1,30
 595 430 595 430 608 441 c 128,-1,31
 621 452 621 452 626 471.5 c 128,-1,32
 631 491 631 491 631 524 c 2,33,-1
 631 1110 l 1,34,-1
 513 1140 l 1,35,-1
 513 1216 l 1,36,-1
 710 1216 l 2,37,38
 747 1216 747 1216 774 1218 c 128,-1,39
 801 1220 801 1220 833 1222 c 128,-1,40
 865 1224 865 1224 908.5 1226 c 128,-1,41
 952 1228 952 1228 1021 1228 c 0,42,43
 1068 1228 1068 1228 1113 1214.5 c 128,-1,44
 1158 1201 1158 1201 1193 1174 c 128,-1,45
 1228 1147 1228 1147 1249.5 1106.5 c 128,-1,46
 1271 1066 1271 1066 1271 1011 c 0,47,48
 1271 967 1271 967 1255 923 c 128,-1,49
 1239 879 1239 879 1209 842 c 128,-1,50
 1179 805 1179 805 1136.5 778.5 c 128,-1,51
 1094 752 1094 752 1041 743 c 1,52,53
 1071 704 1071 704 1118 652 c 128,-1,54
 1165 600 1165 600 1221.5 549.5 c 128,-1,55
 1278 499 1278 499 1340.5 457 c 128,-1,56
 1403 415 1403 415 1465 395 c 1,57,58
 1514 480 1514 480 1540.5 577.5 c 128,-1,59
 1567 675 1567 675 1567 778 c 0,60,61
 1567 875 1567 875 1545 966 c 128,-1,62
 1523 1057 1523 1057 1482 1136.5 c 128,-1,63
 1441 1216 1441 1216 1382.5 1282 c 128,-1,64
 1324 1348 1324 1348 1251 1395 c 128,-1,65
 1178 1442 1178 1442 1092 1467.5 c 128,-1,66
 1006 1493 1006 1493 910 1493 c 256,67,68
 814 1493 814 1493 728 1466 c 128,-1,69
 642 1439 642 1439 569 1390 c 128,-1,70
 496 1341 496 1341 437.5 1274 c 128,-1,71
 379 1207 379 1207 338 1127.5 c 128,-1,72
 297 1048 297 1048 275 958.5 c 128,-1,73
 253 869 253 869 253 776 c 0,74,75
 253 678 253 678 275 587.5 c 128,-1,76
 297 497 297 497 338 417 c 128,-1,77
 379 337 379 337 437.5 271.5 c 128,-1,78
 496 206 496 206 569 159 c 128,-1,79
 642 112 642 112 728 86 c 128,-1,80
 814 60 814 60 910 60 c 0,81,82
 992 60 992 60 1067.5 80.5 c 128,-1,83
 1143 101 1143 101 1209 137.5 c 128,-1,84
 1275 174 1275 174 1330.5 225.5 c 128,-1,85
 1386 277 1386 277 1430 340 c 1,86,87
 1416 340 1416 340 1403 340 c 128,-1,88
 1390 340 1390 340 1378 341 c 1,89,90
 1327 341 1327 341 1279 347 c 1,91,92
 1240 353 1240 353 1210.5 369 c 128,-1,93
 1181 385 1181 385 1155.5 407.5 c 128,-1,94
 1130 430 1130 430 1107.5 458 c 128,-1,95
 1085 486 1085 486 1061 515 c 1,96,97
 1022 565 1022 565 977 617.5 c 128,-1,98
 932 670 932 670 896 728 c 1,99,100
 884 728 884 728 874 729 c 128,-1,101
 864 730 864 730 852.5 731 c 128,-1,102
 841 732 841 732 825 733.5 c 128,-1,103
 809 735 809 735 784 738 c 1,104,-1
 784 439 l 1,105,-1
 919 409 l 1,106,-1
 919 344 l 1,107,-1
 513 344 l 1,108,-1
 513 409 l 1,28,29
784 823 m 1,109,110
 850 816 850 816 910 815.5 c 128,-1,111
 970 815 970 815 1016 830.5 c 128,-1,112
 1062 846 1062 846 1089.5 882 c 128,-1,113
 1117 918 1117 918 1117 986 c 0,114,115
 1117 1029 1117 1029 1101.5 1059 c 128,-1,116
 1086 1089 1086 1089 1059 1107 c 128,-1,117
 1032 1125 1032 1125 995.5 1133 c 128,-1,118
 959 1141 959 1141 918 1141 c 0,119,120
 871 1141 871 1141 844 1135.5 c 128,-1,121
 817 1130 817 1130 803.5 1116 c 128,-1,122
 790 1102 790 1102 787 1077.5 c 128,-1,123
 784 1053 784 1053 784 1015 c 2,124,-1
 784 823 l 1,109,110
EndSplineSet
EndChar

StartChar: copyright
Encoding: 169 169 124
Width: 1809
Flags: W
LayerCount: 2
Fore
SplineSet
115 776 m 0,0,1
 115 887 115 887 143.5 990 c 128,-1,2
 172 1093 172 1093 223.5 1183 c 128,-1,3
 275 1273 275 1273 347.5 1347.5 c 128,-1,4
 420 1422 420 1422 508 1475 c 128,-1,5
 596 1528 596 1528 698 1557.5 c 128,-1,6
 800 1587 800 1587 910 1587 c 256,7,8
 1020 1587 1020 1587 1122 1559 c 128,-1,9
 1224 1531 1224 1531 1312 1480 c 128,-1,10
 1400 1429 1400 1429 1472.5 1356 c 128,-1,11
 1545 1283 1545 1283 1596.5 1193 c 128,-1,12
 1648 1103 1648 1103 1676.5 998 c 128,-1,13
 1705 893 1705 893 1705 778 c 0,14,15
 1705 667 1705 667 1676.5 564 c 128,-1,16
 1648 461 1648 461 1596.5 371 c 128,-1,17
 1545 281 1545 281 1472.5 206.5 c 128,-1,18
 1400 132 1400 132 1312 79 c 128,-1,19
 1224 26 1224 26 1122 -3.5 c 128,-1,20
 1020 -33 1020 -33 910 -33 c 256,21,22
 800 -33 800 -33 698 -5 c 128,-1,23
 596 23 596 23 508 74 c 128,-1,24
 420 125 420 125 347.5 198 c 128,-1,25
 275 271 275 271 223.5 361 c 128,-1,26
 172 451 172 451 143.5 555.5 c 128,-1,27
 115 660 115 660 115 776 c 0,0,1
253 776 m 0,28,29
 253 678 253 678 275 587.5 c 128,-1,30
 297 497 297 497 338 417 c 128,-1,31
 379 337 379 337 437.5 271.5 c 128,-1,32
 496 206 496 206 569 159 c 128,-1,33
 642 112 642 112 728 86 c 128,-1,34
 814 60 814 60 910 60 c 256,35,36
 1006 60 1006 60 1092 87.5 c 128,-1,37
 1178 115 1178 115 1251 163.5 c 128,-1,38
 1324 212 1324 212 1382.5 279 c 128,-1,39
 1441 346 1441 346 1482 426 c 128,-1,40
 1523 506 1523 506 1545 595.5 c 128,-1,41
 1567 685 1567 685 1567 778 c 0,42,43
 1567 875 1567 875 1545 966 c 128,-1,44
 1523 1057 1523 1057 1482 1136.5 c 128,-1,45
 1441 1216 1441 1216 1382.5 1282 c 128,-1,46
 1324 1348 1324 1348 1251 1395 c 128,-1,47
 1178 1442 1178 1442 1092 1467.5 c 128,-1,48
 1006 1493 1006 1493 910 1493 c 256,49,50
 814 1493 814 1493 728 1466 c 128,-1,51
 642 1439 642 1439 569 1390 c 128,-1,52
 496 1341 496 1341 437.5 1274 c 128,-1,53
 379 1207 379 1207 338 1127.5 c 128,-1,54
 297 1048 297 1048 275 958.5 c 128,-1,55
 253 869 253 869 253 776 c 0,28,29
456 755 m 0,56,57
 456 849 456 849 485.5 939 c 128,-1,58
 515 1029 515 1029 573.5 1099 c 128,-1,59
 632 1169 632 1169 719 1211.5 c 128,-1,60
 806 1254 806 1254 921 1254 c 0,61,62
 987 1254 987 1254 1046 1245 c 128,-1,63
 1105 1236 1105 1236 1151 1225 c 0,64,65
 1205 1212 1205 1212 1251 1196 c 1,66,-1
 1224 929 l 1,67,-1
 1153 929 l 1,68,-1
 1120 1096 l 1,69,70
 1084 1112 1084 1112 1040 1122.5 c 128,-1,71
 996 1133 996 1133 947 1137 c 128,-1,72
 898 1141 898 1141 845.5 1136.5 c 128,-1,73
 793 1132 793 1132 741 1118 c 1,74,75
 681 1060 681 1060 652.5 984.5 c 128,-1,76
 624 909 624 909 624 820 c 0,77,78
 624 729 624 729 652.5 658 c 128,-1,79
 681 587 681 587 730.5 538 c 128,-1,80
 780 489 780 489 847.5 463.5 c 128,-1,81
 915 438 915 438 993 438 c 0,82,83
 1002 438 1002 438 1023 445.5 c 128,-1,84
 1044 453 1044 453 1071.5 464.5 c 128,-1,85
 1099 476 1099 476 1130.5 489.5 c 128,-1,86
 1162 503 1162 503 1192 515 c 1,87,-1
 1230 440 l 1,88,89
 1147 384 1147 384 1094 354.5 c 128,-1,90
 1041 325 1041 325 1009 312 c 128,-1,91
 977 299 977 299 961.5 297 c 128,-1,92
 946 295 946 295 939 295 c 0,93,94
 819 295 819 295 728.5 333.5 c 128,-1,95
 638 372 638 372 577.5 436 c 128,-1,96
 517 500 517 500 486.5 583 c 128,-1,97
 456 666 456 666 456 755 c 0,56,57
EndSplineSet
EndChar

StartChar: trademark
Encoding: 8482 8482 125
Width: 2099
Flags: W
LayerCount: 2
Fore
SplineSet
261 735 m 1,0,1
 292 741 292 741 315.5 746.5 c 128,-1,2
 339 752 339 752 354.5 762 c 128,-1,3
 370 772 370 772 377.5 787.5 c 128,-1,4
 385 803 385 803 385 829 c 2,5,-1
 385 1390 l 1,6,-1
 218 1383 l 1,7,-1
 167 1253 l 1,8,-1
 80 1253 l 1,9,-1
 94 1511 l 1,10,-1
 185 1498 l 1,11,-1
 736 1498 l 1,12,-1
 833 1511 l 1,13,-1
 819 1253 l 1,14,-1
 734 1253 l 1,15,-1
 704 1383 l 1,16,17
 656 1385 656 1385 628 1386.5 c 128,-1,18
 600 1388 600 1388 584 1388.5 c 128,-1,19
 568 1389 568 1389 561 1389.5 c 128,-1,20
 554 1390 554 1390 547 1390 c 1,21,22
 545 1384 545 1384 545 1375 c 128,-1,23
 545 1366 545 1366 545 1352 c 2,24,-1
 545 765 l 1,25,-1
 675 734 l 1,26,-1
 675 657 l 1,27,-1
 261 657 l 1,28,-1
 261 735 l 1,0,1
869 733 m 1,29,30
 897 740 897 740 913 746.5 c 128,-1,31
 929 753 929 753 938 763 c 128,-1,32
 947 773 947 773 952.5 788 c 128,-1,33
 958 803 958 803 964 828 c 0,34,35
 964 830 964 830 965 834 c 128,-1,36
 966 838 966 838 968.5 854.5 c 128,-1,37
 971 871 971 871 975.5 904 c 128,-1,38
 980 937 980 937 988.5 996.5 c 128,-1,39
 997 1056 997 1056 1009.5 1146.5 c 128,-1,40
 1022 1237 1022 1237 1040 1368 c 1,41,42
 1035 1390 1035 1390 1015.5 1400 c 128,-1,43
 996 1410 996 1410 950 1421 c 1,44,-1
 950 1498 l 1,45,-1
 1214 1498 l 1,46,-1
 1214 1462 l 1,47,-1
 1450 912 l 1,48,-1
 1676 1468 l 1,49,50
 1676 1473 1676 1473 1675 1483.5 c 128,-1,51
 1674 1494 1674 1494 1674 1498 c 1,52,-1
 1940 1498 l 1,53,-1
 1940 1420 l 1,54,-1
 1914 1414 l 2,55,56
 1894 1409 1894 1409 1880.5 1404 c 128,-1,57
 1867 1399 1867 1399 1858.5 1390.5 c 128,-1,58
 1850 1382 1850 1382 1846.5 1369 c 128,-1,59
 1843 1356 1843 1356 1843 1334 c 1,60,61
 1852 1268 1852 1268 1862 1195.5 c 128,-1,62
 1872 1123 1872 1123 1882 1049 c 128,-1,63
 1892 975 1892 975 1902 902 c 128,-1,64
 1912 829 1912 829 1921 763 c 1,65,66
 1946 756 1946 756 1975 748.5 c 128,-1,67
 2004 741 2004 741 2026 734 c 1,68,-1
 2026 657 l 1,69,-1
 1663 657 l 1,70,-1
 1663 734 l 1,71,72
 1692 741 1692 741 1710.5 747.5 c 128,-1,73
 1729 754 1729 754 1740 763.5 c 128,-1,74
 1751 773 1751 773 1755 788 c 128,-1,75
 1759 803 1759 803 1759 828 c 1,76,77
 1745 931 1745 931 1731.5 1038 c 128,-1,78
 1718 1145 1718 1145 1706 1251 c 1,79,-1
 1482 699 l 1,80,81
 1482 695 1482 695 1480 691.5 c 128,-1,82
 1478 688 1478 688 1469.5 683 c 128,-1,83
 1461 678 1461 678 1443.5 669.5 c 128,-1,84
 1426 661 1426 661 1395 648 c 1,85,-1
 1143 1251 l 1,86,87
 1131 1126 1131 1126 1118 1008 c 128,-1,88
 1105 890 1105 890 1093 763 c 1,89,-1
 1187 733 l 1,90,-1
 1187 657 l 1,91,-1
 869 657 l 1,92,-1
 869 733 l 1,29,30
EndSplineSet
EndChar

StartChar: acute
Encoding: 180 180 126
Width: 0
Flags: W
LayerCount: 2
Fore
SplineSet
-247 1229 m 1,0,1
 -168 1329 -168 1329 -94.5 1434 c 128,-1,2
 -21 1539 -21 1539 56 1645 c 1,3,4
 77 1641 77 1641 103 1628 c 128,-1,5
 129 1615 129 1615 155 1597 c 128,-1,6
 181 1579 181 1579 205.5 1558.5 c 128,-1,7
 230 1538 230 1538 248 1519 c 1,8,-1
 -157 1164 l 1,9,-1
 -247 1229 l 1,0,1
EndSplineSet
EndChar

StartChar: dieresis
Encoding: 168 168 127
Width: 0
Flags: W
LayerCount: 2
Fore
SplineSet
251 1253 m 256,0,1
 220 1244 220 1244 193 1247.5 c 128,-1,2
 166 1251 166 1251 144.5 1264.5 c 128,-1,3
 123 1278 123 1278 108.5 1299 c 128,-1,4
 94 1320 94 1320 88 1346 c 0,5,6
 82 1373 82 1373 85 1400 c 128,-1,7
 88 1427 88 1427 100 1450.5 c 128,-1,8
 112 1474 112 1474 134 1492 c 128,-1,9
 156 1510 156 1510 188 1519 c 0,10,11
 249 1536 249 1536 293.5 1509.5 c 128,-1,12
 338 1483 338 1483 351 1426 c 0,13,14
 357 1401 357 1401 353.5 1374 c 128,-1,15
 350 1347 350 1347 338 1323 c 128,-1,16
 326 1299 326 1299 304 1280.5 c 128,-1,17
 282 1262 282 1262 251 1253 c 256,0,1
-187 1253 m 256,18,19
 -218 1244 -218 1244 -245 1247.5 c 128,-1,20
 -272 1251 -272 1251 -293.5 1264.5 c 128,-1,21
 -315 1278 -315 1278 -329.5 1299 c 128,-1,22
 -344 1320 -344 1320 -350 1346 c 0,23,24
 -356 1373 -356 1373 -353 1400 c 128,-1,25
 -350 1427 -350 1427 -338 1450.5 c 128,-1,26
 -326 1474 -326 1474 -304 1492 c 128,-1,27
 -282 1510 -282 1510 -250 1519 c 0,28,29
 -189 1536 -189 1536 -144.5 1509.5 c 128,-1,30
 -100 1483 -100 1483 -87 1426 c 0,31,32
 -81 1401 -81 1401 -84.5 1374 c 128,-1,33
 -88 1347 -88 1347 -100 1323 c 128,-1,34
 -112 1299 -112 1299 -134 1280.5 c 128,-1,35
 -156 1262 -156 1262 -187 1253 c 256,18,19
EndSplineSet
EndChar

StartChar: notequal
Encoding: 8800 8800 128
Width: 1195
Flags: W
LayerCount: 2
Fore
SplineSet
393 341 m 1,0,-1
 158 341 l 1,1,-1
 158 464 l 1,2,-1
 441 464 l 1,3,-1
 563 777 l 1,4,-1
 158 777 l 1,5,-1
 158 899 l 1,6,-1
 610 899 l 1,7,-1
 714 1164 l 1,8,-1
 867 1164 l 1,9,-1
 763 899 l 1,10,-1
 1037 899 l 1,11,-1
 1037 777 l 1,12,-1
 716 777 l 1,13,-1
 594 464 l 1,14,-1
 1037 464 l 1,15,-1
 1037 341 l 1,16,-1
 546 341 l 1,17,-1
 460 120 l 1,18,-1
 307 120 l 1,19,-1
 393 341 l 1,0,-1
EndSplineSet
EndChar

StartChar: AE
Encoding: 198 198 129
Width: 2023
Flags: W
LayerCount: 2
Fore
SplineSet
-60 82 m 1,0,1
 -32 90 -32 90 -3.5 96.5 c 128,-1,2
 25 103 25 103 52 110.5 c 128,-1,3
 79 118 79 118 103 126.5 c 128,-1,4
 127 135 127 135 147 147 c 1,5,-1
 693 1411 l 1,6,-1
 394 1431 l 1,7,-1
 394 1530 l 1,8,-1
 969 1530 l 1,9,-1
 1651 1529 l 1,10,-1
 1804 1549 l 1,11,-1
 1804 1137 l 1,12,-1
 1700 1135 l 1,13,-1
 1627 1384 l 1,14,15
 1480 1390 1480 1390 1387 1393 c 128,-1,16
 1294 1396 1294 1396 1241 1398 c 0,17,18
 1179 1400 1179 1400 1149 1399 c 1,19,-1
 1148 831 l 1,20,-1
 1590 860 l 1,21,-1
 1590 680 l 1,22,-1
 1148 715 l 1,23,-1
 1148 122 l 1,24,-1
 1729 143 l 1,25,-1
 1821 430 l 1,26,-1
 1929 430 l 1,27,-1
 1910 -18 l 1,28,-1
 1769 0 l 1,29,-1
 772 0 l 1,30,-1
 772 79 l 1,31,32
 822 93 822 93 853.5 104.5 c 128,-1,33
 885 116 885 116 902.5 136.5 c 128,-1,34
 920 157 920 157 926 190.5 c 128,-1,35
 932 224 932 224 932 281 c 2,36,-1
 932 561 l 1,37,-1
 497 561 l 1,38,-1
 325 123 l 1,39,-1
 522 82 l 1,40,-1
 522 0 l 1,41,-1
 -60 0 l 1,42,-1
 -60 82 l 1,0,1
932 675 m 1,43,-1
 932 1396 l 1,44,45
 918 1396 918 1396 899.5 1395.5 c 128,-1,46
 881 1395 881 1395 860.5 1385.5 c 128,-1,47
 840 1376 840 1376 820 1353.5 c 128,-1,48
 800 1331 800 1331 783 1288 c 2,49,-1
 542 675 l 1,50,-1
 932 675 l 1,43,-1
EndSplineSet
EndChar

StartChar: infinity
Encoding: 8734 8734 130
Width: 1876
Flags: W
LayerCount: 2
Fore
SplineSet
522 127 m 0,0,1
 432 127 432 127 366.5 158 c 128,-1,2
 301 189 301 189 258.5 243.5 c 128,-1,3
 216 298 216 298 195.5 372 c 128,-1,4
 175 446 175 446 175 531 c 0,5,6
 175 617 175 617 207.5 699 c 128,-1,7
 240 781 240 781 295.5 844.5 c 128,-1,8
 351 908 351 908 424.5 946.5 c 128,-1,9
 498 985 498 985 579 985 c 0,10,11
 647 985 647 985 704 965.5 c 128,-1,12
 761 946 761 946 809 911.5 c 128,-1,13
 857 877 857 877 896 830 c 128,-1,14
 935 783 935 783 968 728 c 1,15,-1
 974 714 l 1,16,17
 1014 764 1014 764 1051 812.5 c 128,-1,18
 1088 861 1088 861 1131 899.5 c 128,-1,19
 1174 938 1174 938 1227.5 961.5 c 128,-1,20
 1281 985 1281 985 1354 985 c 0,21,22
 1444 985 1444 985 1509.5 954 c 128,-1,23
 1575 923 1575 923 1617.5 868.5 c 128,-1,24
 1660 814 1660 814 1680.5 740 c 128,-1,25
 1701 666 1701 666 1701 581 c 0,26,27
 1701 523 1701 523 1686 467.5 c 128,-1,28
 1671 412 1671 412 1644 361.5 c 128,-1,29
 1617 311 1617 311 1580 268 c 128,-1,30
 1543 225 1543 225 1498 193.5 c 128,-1,31
 1453 162 1453 162 1402 144.5 c 128,-1,32
 1351 127 1351 127 1297 127 c 0,33,34
 1229 127 1229 127 1172 146.5 c 128,-1,35
 1115 166 1115 166 1067 200.5 c 128,-1,36
 1019 235 1019 235 980 282 c 128,-1,37
 941 329 941 329 908 384 c 1,38,-1
 902 398 l 1,39,40
 862 348 862 348 825 299 c 128,-1,41
 788 250 788 250 745 212 c 128,-1,42
 702 174 702 174 648.5 150.5 c 128,-1,43
 595 127 595 127 522 127 c 0,0,1
1024 621 m 1,44,45
 1041 560 1041 560 1074 505.5 c 128,-1,46
 1107 451 1107 451 1152 409.5 c 128,-1,47
 1197 368 1197 368 1251.5 344 c 128,-1,48
 1306 320 1306 320 1366 320 c 0,49,50
 1463 320 1463 320 1516 378.5 c 128,-1,51
 1569 437 1569 437 1569 546 c 0,52,53
 1569 602 1569 602 1550.5 647.5 c 128,-1,54
 1532 693 1532 693 1501.5 725 c 128,-1,55
 1471 757 1471 757 1431 774.5 c 128,-1,56
 1391 792 1391 792 1349 792 c 0,57,58
 1304 792 1304 792 1258 778.5 c 128,-1,59
 1212 765 1212 765 1169 741.5 c 128,-1,60
 1126 718 1126 718 1089 687 c 128,-1,61
 1052 656 1052 656 1024 621 c 1,44,45
527 320 m 0,62,63
 572 320 572 320 618 333.5 c 128,-1,64
 664 347 664 347 706.5 370 c 128,-1,65
 749 393 749 393 786.5 424.5 c 128,-1,66
 824 456 824 456 852 491 c 1,67,68
 835 552 835 552 802 606.5 c 128,-1,69
 769 661 769 661 724 702.5 c 128,-1,70
 679 744 679 744 624.5 768 c 128,-1,71
 570 792 570 792 510 792 c 0,72,73
 413 792 413 792 360 733.5 c 128,-1,74
 307 675 307 675 307 566 c 0,75,76
 307 510 307 510 325.5 464.5 c 128,-1,77
 344 419 344 419 374.5 387 c 128,-1,78
 405 355 405 355 445 337.5 c 128,-1,79
 485 320 485 320 527 320 c 0,62,63
EndSplineSet
EndChar

StartChar: plusminus
Encoding: 177 177 131
Width: 1303
Flags: W
LayerCount: 2
Fore
SplineSet
171 702 m 1,0,-1
 515 702 l 1,1,-1
 515 1057 l 1,2,-1
 678 1057 l 1,3,-1
 678 702 l 1,4,-1
 1021 702 l 1,5,-1
 1021 539 l 1,6,-1
 678 539 l 1,7,-1
 678 243 l 1,8,-1
 515 243 l 1,9,-1
 515 539 l 1,10,-1
 171 539 l 1,11,-1
 171 702 l 1,0,-1
171 132 m 1,12,-1
 1021 132 l 1,13,-1
 1021 -31 l 1,14,-1
 171 -31 l 1,15,-1
 171 132 l 1,12,-1
EndSplineSet
EndChar

StartChar: lessequal
Encoding: 8804 8804 132
Width: 1327
Flags: W
LayerCount: 2
Fore
SplineSet
219 740 m 1,0,-1
 1104 1048 l 1,1,-1
 1104 904 l 1,2,-1
 336 655 l 1,3,-1
 1104 401 l 1,4,-1
 1104 260 l 1,5,-1
 219 569 l 1,6,-1
 219 740 l 1,0,-1
216 158 m 1,7,-1
 1104 158 l 1,8,-1
 1104 43 l 1,9,-1
 219 43 l 1,10,-1
 216 158 l 1,7,-1
EndSplineSet
EndChar

StartChar: greaterequal
Encoding: 8805 8805 133
Width: 1306
Flags: W
LayerCount: 2
Fore
SplineSet
216 401 m 1,0,-1
 984 655 l 1,1,-1
 216 904 l 1,2,-1
 216 1048 l 1,3,-1
 1101 740 l 1,4,-1
 1101 569 l 1,5,-1
 216 260 l 1,6,-1
 216 401 l 1,0,-1
216 158 m 1,7,-1
 1104 158 l 1,8,-1
 1101 43 l 1,9,-1
 216 43 l 1,10,-1
 216 158 l 1,7,-1
EndSplineSet
EndChar

StartChar: yen
Encoding: 165 165 134
Width: 1532
Flags: W
LayerCount: 2
Fore
SplineSet
250 466 m 1,0,-1
 670 466 l 1,1,-1
 670 679 l 1,2,-1
 250 679 l 1,3,-1
 250 781 l 1,4,-1
 656 781 l 1,5,-1
 234 1326 l 1,6,-1
 171 1393 l 1,7,-1
 40 1448 l 1,8,-1
 40 1530 l 1,9,-1
 605 1530 l 1,10,-1
 605 1448 l 1,11,12
 519 1438 519 1438 479.5 1419.5 c 128,-1,13
 440 1401 440 1401 442 1360 c 1,14,-1
 789 867 l 1,15,-1
 1157 1408 l 1,16,-1
 1003 1448 l 1,17,-1
 1003 1530 l 1,18,-1
 1491 1530 l 1,19,-1
 1491 1448 l 1,20,21
 1443 1434 1443 1434 1405.5 1423.5 c 128,-1,22
 1368 1413 1368 1413 1339 1396 c 1,23,-1
 886 781 l 1,24,-1
 1333 781 l 1,25,-1
 1333 679 l 1,26,-1
 886 679 l 1,27,-1
 886 466 l 1,28,-1
 1333 466 l 1,29,-1
 1333 364 l 1,30,-1
 886 364 l 1,31,-1
 886 138 l 1,32,-1
 1109 83 l 1,33,-1
 1109 1 l 1,34,-1
 448 1 l 1,35,-1
 448 83 l 1,36,37
 512 93 512 93 554.5 104.5 c 128,-1,38
 597 116 597 116 622.5 138 c 128,-1,39
 648 160 648 160 659 196.5 c 128,-1,40
 670 233 670 233 670 293 c 2,41,-1
 670 364 l 1,42,-1
 250 364 l 1,43,-1
 250 466 l 1,0,-1
EndSplineSet
EndChar

StartChar: mu
Encoding: 181 181 135
Width: 1196
Flags: W
LayerCount: 2
Fore
SplineSet
175 -292 m 0,0,1
 175 -220 175 -220 174.5 -107 c 128,-1,2
 174 6 174 6 174 151 c 128,-1,3
 174 296 174 296 174 468 c 128,-1,4
 174 640 174 640 174 828 c 0,5,6
 174 900 174 900 179 946 c 128,-1,7
 184 992 184 992 206 1017 c 128,-1,8
 228 1042 228 1042 272.5 1046.5 c 128,-1,9
 317 1051 317 1051 395 1041 c 1,10,11
 391 1006 391 1006 389 949 c 128,-1,12
 387 892 387 892 386 817 c 128,-1,13
 385 742 385 742 384.5 652 c 128,-1,14
 384 562 384 562 384 462 c 2,15,-1
 384 237 l 1,16,17
 391 218 391 218 406.5 200.5 c 128,-1,18
 422 183 422 183 447.5 169.5 c 128,-1,19
 473 156 473 156 508 148 c 128,-1,20
 543 140 543 140 589 140 c 0,21,22
 624 140 624 140 652.5 142 c 128,-1,23
 681 144 681 144 707.5 149.5 c 128,-1,24
 734 155 734 155 762 163.5 c 128,-1,25
 790 172 790 172 824 184 c 1,26,-1
 824 828 l 2,27,28
 824 900 824 900 831 946 c 128,-1,29
 838 992 838 992 860.5 1017 c 128,-1,30
 883 1042 883 1042 925.5 1046.5 c 128,-1,31
 968 1051 968 1051 1039 1041 c 1,32,33
 1038 1011 1038 1011 1037 964.5 c 128,-1,34
 1036 918 1036 918 1035.5 862.5 c 128,-1,35
 1035 807 1035 807 1034.5 746.5 c 128,-1,36
 1034 686 1034 686 1034 629.5 c 128,-1,37
 1034 573 1034 573 1034 524 c 128,-1,38
 1034 475 1034 475 1034 442 c 2,39,-1
 1034 227 l 2,40,41
 1034 183 1034 183 1047 164.5 c 128,-1,42
 1060 146 1060 146 1079.5 145 c 128,-1,43
 1099 144 1099 144 1121 156.5 c 128,-1,44
 1143 169 1143 169 1161 187 c 1,45,-1
 1219 146 l 1,46,47
 1203 104 1203 104 1176 70 c 128,-1,48
 1149 36 1149 36 1115 13.5 c 128,-1,49
 1081 -9 1081 -9 1043.5 -17.5 c 128,-1,50
 1006 -26 1006 -26 971 -17 c 128,-1,51
 936 -8 936 -8 906 21 c 128,-1,52
 876 50 876 50 857 103 c 1,53,54
 831 75 831 75 799.5 51 c 128,-1,55
 768 27 768 27 733 9 c 128,-1,56
 698 -9 698 -9 660 -19.5 c 128,-1,57
 622 -30 622 -30 584 -30 c 0,58,59
 558 -30 558 -30 525.5 -26.5 c 128,-1,60
 493 -23 493 -23 459.5 -11 c 128,-1,61
 426 1 426 1 393 22.5 c 128,-1,62
 360 44 360 44 334 80 c 1,63,64
 334 45 334 45 334.5 -3 c 128,-1,65
 335 -51 335 -51 336.5 -97.5 c 128,-1,66
 338 -144 338 -144 341 -182 c 128,-1,67
 344 -220 344 -220 350 -235 c 0,68,69
 367 -283 367 -283 395.5 -306.5 c 128,-1,70
 424 -330 424 -330 452 -338 c 0,71,72
 484 -348 484 -348 519 -344 c 1,73,74
 522 -367 522 -367 519 -392.5 c 128,-1,75
 516 -418 516 -418 501 -439.5 c 128,-1,76
 486 -461 486 -461 456.5 -475.5 c 128,-1,77
 427 -490 427 -490 377 -490 c 0,78,79
 338 -490 338 -490 301.5 -478.5 c 128,-1,80
 265 -467 265 -467 237 -443 c 128,-1,81
 209 -419 209 -419 192 -381.5 c 128,-1,82
 175 -344 175 -344 175 -292 c 0,0,1
EndSplineSet
EndChar

StartChar: partialdiff
Encoding: 8706 8706 136
Width: 1196
Flags: W
LayerCount: 2
Fore
SplineSet
109 451 m 0,0,1
 112 580 112 580 156 674 c 128,-1,2
 200 768 200 768 272 828.5 c 128,-1,3
 344 889 344 889 438.5 918.5 c 128,-1,4
 533 948 533 948 637 948 c 0,5,6
 715 948 715 948 774 927.5 c 128,-1,7
 833 907 833 907 878 872 c 1,8,9
 862 971 862 971 829.5 1068 c 128,-1,10
 797 1165 797 1165 742 1242 c 128,-1,11
 687 1319 687 1319 606 1366.5 c 128,-1,12
 525 1414 525 1414 413 1414 c 0,13,14
 383 1414 383 1414 350.5 1409.5 c 128,-1,15
 318 1405 318 1405 288 1398 c 128,-1,16
 258 1391 258 1391 233.5 1383 c 128,-1,17
 209 1375 209 1375 196 1368 c 1,18,19
 178 1394 178 1394 165 1414 c 0,20,21
 154 1431 154 1431 145 1445.5 c 128,-1,22
 136 1460 136 1460 138 1462 c 0,23,24
 165 1480 165 1480 204.5 1495 c 128,-1,25
 244 1510 244 1510 288.5 1520.5 c 128,-1,26
 333 1531 333 1531 376.5 1536 c 128,-1,27
 420 1541 420 1541 454 1539 c 0,28,29
 550 1534 550 1534 637.5 1500.5 c 128,-1,30
 725 1467 725 1467 799 1407 c 128,-1,31
 873 1347 873 1347 931.5 1262.5 c 128,-1,32
 990 1178 990 1178 1029 1070 c 128,-1,33
 1068 962 1068 962 1085.5 833 c 128,-1,34
 1103 704 1103 704 1095 556 c 0,35,36
 1091 491 1091 491 1075 422.5 c 128,-1,37
 1059 354 1059 354 1030 290 c 128,-1,38
 1001 226 1001 226 959 169 c 128,-1,39
 917 112 917 112 862 69.5 c 128,-1,40
 807 27 807 27 738.5 2.5 c 128,-1,41
 670 -22 670 -22 588 -22 c 0,42,43
 475 -22 475 -22 385 13 c 128,-1,44
 295 48 295 48 233 111 c 128,-1,45
 171 174 171 174 139 260.5 c 128,-1,46
 107 347 107 347 109 451 c 0,0,1
333 453 m 0,47,48
 329 388 329 388 342 319.5 c 128,-1,49
 355 251 355 251 390.5 197 c 128,-1,50
 426 143 426 143 487.5 111 c 128,-1,51
 549 79 549 79 643 86 c 0,52,53
 697 90 697 90 738 121.5 c 128,-1,54
 779 153 779 153 808.5 204 c 128,-1,55
 838 255 838 255 857.5 322.5 c 128,-1,56
 877 390 877 390 888 465 c 0,57,58
 893 500 893 500 896 548.5 c 128,-1,59
 899 597 899 597 897 656 c 1,60,61
 883 691 883 691 858.5 722 c 128,-1,62
 834 753 834 753 798 777.5 c 128,-1,63
 762 802 762 802 714.5 818.5 c 128,-1,64
 667 835 667 835 608 841 c 0,65,66
 542 847 542 847 492.5 815.5 c 128,-1,67
 443 784 443 784 409 729 c 128,-1,68
 375 674 375 674 356 601.5 c 128,-1,69
 337 529 337 529 333 453 c 0,47,48
EndSplineSet
EndChar

StartChar: summation
Encoding: 8721 8721 137
Width: 1493
Flags: W
LayerCount: 2
Fore
SplineSet
196 -91 m 1,0,1
 224 -81 224 -81 241.5 -67.5 c 128,-1,2
 259 -54 259 -54 274.5 -32 c 128,-1,3
 290 -10 290 -10 309 23 c 128,-1,4
 328 56 328 56 358 106 c 1,5,-1
 645 659 l 1,6,-1
 296 1396 l 1,7,-1
 191 1450 l 1,8,-1
 191 1530 l 1,9,-1
 1086 1530 l 1,10,-1
 1228 1549 l 1,11,-1
 1228 1137 l 1,12,-1
 1124 1135 l 1,13,-1
 1052 1384 l 1,14,15
 904 1390 904 1390 803.5 1393 c 128,-1,16
 703 1396 703 1396 640 1398 c 0,17,18
 566 1400 566 1400 522 1399 c 1,19,-1
 851 701 l 1,20,-1
 462 -36 l 1,21,-1
 1093 -30 l 1,22,-1
 1205 259 l 1,23,-1
 1323 259 l 1,24,-1
 1304 -189 l 1,25,-1
 1163 -171 l 1,26,-1
 196 -171 l 1,27,-1
 196 -91 l 1,28,-1
 196 -91 l 1,0,1
EndSplineSet
EndChar

StartChar: product
Encoding: 8719 8719 138
Width: 1536
Flags: W
LayerCount: 2
Fore
SplineSet
110 -89 m 1,0,1
 162 -75 162 -75 196 -63 c 128,-1,2
 230 -51 230 -51 249 -30 c 128,-1,3
 268 -9 268 -9 275.5 26 c 128,-1,4
 283 61 283 61 283 121 c 2,5,-1
 283 1392 l 1,6,-1
 110 1448 l 1,7,-1
 110 1530 l 1,8,-1
 1467 1530 l 1,9,-1
 1467 1448 l 1,10,11
 1414 1434 1414 1434 1379 1422 c 128,-1,12
 1344 1410 1344 1410 1322 1389 c 128,-1,13
 1300 1368 1300 1368 1291 1333 c 128,-1,14
 1282 1298 1282 1298 1282 1238 c 2,15,-1
 1282 -34 l 1,16,-1
 1479 -89 l 1,17,-1
 1479 -171 l 1,18,-1
 898 -171 l 1,19,-1
 898 -85 l 1,20,21
 945 -72 945 -72 977.5 -60 c 128,-1,22
 1010 -48 1010 -48 1029.5 -27 c 128,-1,23
 1049 -6 1049 -6 1057.5 28.5 c 128,-1,24
 1066 63 1066 63 1066 121 c 2,25,-1
 1066 1397 l 1,26,-1
 499 1397 l 1,27,-1
 499 -34 l 1,28,-1
 648 -62 l 1,29,-1
 648 -171 l 1,30,-1
 110 -171 l 1,31,-1
 110 -89 l 1,32,-1
 110 -89 l 1,0,1
EndSplineSet
EndChar

StartChar: pi
Encoding: 960 960 139
Width: 1362
Flags: W
LayerCount: 2
Fore
SplineSet
82 95 m 1,0,1
 107 92 107 92 131 91.5 c 128,-1,2
 155 91 155 91 177 99 c 128,-1,3
 199 107 199 107 219.5 126.5 c 128,-1,4
 240 146 240 146 258.5 183 c 128,-1,5
 277 220 277 220 293.5 277.5 c 128,-1,6
 310 335 310 335 324 420 c 1,7,-1
 407 882 l 1,8,-1
 317 882 l 2,9,10
 275 882 275 882 249 875.5 c 128,-1,11
 223 869 223 869 206.5 855.5 c 128,-1,12
 190 842 190 842 180 822 c 128,-1,13
 170 802 170 802 160 776 c 1,14,-1
 71 776 l 1,15,16
 78 825 78 825 93 876 c 128,-1,17
 108 927 108 927 137 969 c 128,-1,18
 166 1011 166 1011 211 1038 c 128,-1,19
 256 1065 256 1065 323 1065 c 2,20,-1
 1073 1065 l 2,21,22
 1113 1065 1113 1065 1139.5 1070.5 c 128,-1,23
 1166 1076 1166 1076 1185.5 1088.5 c 128,-1,24
 1205 1101 1205 1101 1220 1121 c 128,-1,25
 1235 1141 1235 1141 1250 1170 c 1,26,-1
 1318 1170 l 1,27,28
 1312 1100 1312 1100 1295.5 1046 c 128,-1,29
 1279 992 1279 992 1245 955.5 c 128,-1,30
 1211 919 1211 919 1157 900.5 c 128,-1,31
 1103 882 1103 882 1021 882 c 2,32,-1
 1000 882 l 1,33,34
 997 845 997 845 993 800.5 c 128,-1,35
 989 756 989 756 985 709 c 128,-1,36
 981 662 981 662 977 616 c 128,-1,37
 973 570 973 570 969.5 531 c 128,-1,38
 966 492 966 492 964 462.5 c 128,-1,39
 962 433 962 433 961 420 c 0,40,41
 956 342 956 342 959.5 288.5 c 128,-1,42
 963 235 963 235 976.5 202.5 c 128,-1,43
 990 170 990 170 1014 158 c 128,-1,44
 1038 146 1038 146 1073 152 c 0,45,46
 1121 159 1121 159 1149 200.5 c 128,-1,47
 1177 242 1177 242 1185 297 c 1,48,-1
 1280 297 l 1,49,50
 1277 220 1277 220 1249.5 162.5 c 128,-1,51
 1222 105 1222 105 1180 67 c 128,-1,52
 1138 29 1138 29 1087 10 c 128,-1,53
 1036 -9 1036 -9 985 -9 c 0,54,55
 944 -9 944 -9 905 2.5 c 128,-1,56
 866 14 866 14 837 40 c 128,-1,57
 808 66 808 66 792 107.5 c 128,-1,58
 776 149 776 149 780 209 c 0,59,60
 783 251 783 251 788 305 c 128,-1,61
 793 359 793 359 800 419.5 c 128,-1,62
 807 480 807 480 815 543.5 c 128,-1,63
 823 607 823 607 830.5 668 c 128,-1,64
 838 729 838 729 845 784 c 128,-1,65
 852 839 852 839 858 882 c 1,66,-1
 552 882 l 1,67,-1
 507 422 l 2,68,69
 496 318 496 318 482 237.5 c 128,-1,70
 468 157 468 157 441.5 102 c 128,-1,71
 415 47 415 47 372 19 c 128,-1,72
 329 -9 329 -9 262 -9 c 0,73,74
 228 -9 228 -9 195 -8 c 128,-1,75
 162 -7 162 -7 134.5 -5.5 c 128,-1,76
 107 -4 107 -4 87.5 -2.5 c 128,-1,77
 68 -1 68 -1 61 0 c 1,78,-1
 82 95 l 1,0,1
EndSplineSet
EndChar

StartChar: integral
Encoding: 8747 8747 140
Width: 1023
Flags: W
LayerCount: 2
Fore
SplineSet
127 -202 m 1,0,-1
 157 -319 l 1,1,2
 162 -333 162 -333 179 -341 c 128,-1,3
 196 -349 196 -349 219.5 -352 c 128,-1,4
 243 -355 243 -355 269.5 -354 c 128,-1,5
 296 -353 296 -353 320.5 -349 c 128,-1,6
 345 -345 345 -345 364 -338.5 c 128,-1,7
 383 -332 383 -332 391 -325 c 1,8,9
 397 -307 397 -307 400 -268.5 c 128,-1,10
 403 -230 403 -230 404 -175.5 c 128,-1,11
 405 -121 405 -121 404.5 -53.5 c 128,-1,12
 404 14 404 14 404 90 c 2,13,-1
 404 1180 l 2,14,15
 404 1280 404 1280 440 1360 c 128,-1,16
 476 1440 476 1440 540.5 1495.5 c 128,-1,17
 605 1551 605 1551 694 1580.5 c 128,-1,18
 783 1610 783 1610 888 1610 c 0,19,20
 905 1610 905 1610 928 1607 c 128,-1,21
 951 1604 951 1604 971 1601 c 0,22,23
 995 1597 995 1597 1018 1592 c 1,24,-1
 982 1312 l 1,25,-1
 895 1312 l 1,26,-1
 865 1429 l 1,27,28
 860 1443 860 1443 843 1451 c 128,-1,29
 826 1459 826 1459 802.5 1462 c 128,-1,30
 779 1465 779 1465 752.5 1464 c 128,-1,31
 726 1463 726 1463 701.5 1459 c 128,-1,32
 677 1455 677 1455 658 1448.5 c 128,-1,33
 639 1442 639 1442 631 1435 c 1,34,35
 625 1417 625 1417 622 1377 c 128,-1,36
 619 1337 619 1337 618 1281.5 c 128,-1,37
 617 1226 617 1226 617.5 1159 c 128,-1,38
 618 1092 618 1092 618 1020 c 2,39,-1
 618 -70 l 2,40,41
 618 -171 618 -171 582 -250.5 c 128,-1,42
 546 -330 546 -330 481.5 -385.5 c 128,-1,43
 417 -441 417 -441 328 -470.5 c 128,-1,44
 239 -500 239 -500 134 -500 c 0,45,46
 116 -500 116 -500 93.5 -497.5 c 128,-1,47
 71 -495 71 -495 51 -491 c 0,48,49
 27 -487 27 -487 4 -482 c 1,50,-1
 40 -202 l 1,51,-1
 127 -202 l 1,0,-1
EndSplineSet
EndChar

StartChar: ordfeminine
Encoding: 170 170 141
Width: 1023
Flags: W
LayerCount: 2
Fore
SplineSet
393 622 m 0,0,1
 355 622 355 622 314.5 634.5 c 128,-1,2
 274 647 274 647 241 672.5 c 128,-1,3
 208 698 208 698 186.5 737.5 c 128,-1,4
 165 777 165 777 165 831 c 0,5,6
 165 862 165 862 170.5 888 c 128,-1,7
 176 914 176 914 192 936.5 c 128,-1,8
 208 959 208 959 237.5 979.5 c 128,-1,9
 267 1000 267 1000 315.5 1020 c 128,-1,10
 364 1040 364 1040 434 1060.5 c 128,-1,11
 504 1081 504 1081 602 1105 c 1,12,-1
 602 1158 l 2,13,14
 602 1192 602 1192 597.5 1218.5 c 128,-1,15
 593 1245 593 1245 579 1263.5 c 128,-1,16
 565 1282 565 1282 539.5 1292 c 128,-1,17
 514 1302 514 1302 471 1303 c 0,18,19
 437 1303 437 1303 414.5 1296 c 128,-1,20
 392 1289 392 1289 376 1273 c 128,-1,21
 360 1257 360 1257 348.5 1231 c 128,-1,22
 337 1205 337 1205 325 1167 c 1,23,-1
 186 1167 l 1,24,-1
 201 1309 l 1,25,26
 237 1324 237 1324 280 1340.5 c 128,-1,27
 323 1357 323 1357 364 1370.5 c 128,-1,28
 405 1384 405 1384 438.5 1393 c 128,-1,29
 472 1402 472 1402 489 1402 c 0,30,31
 555 1402 555 1402 609 1392.5 c 128,-1,32
 663 1383 663 1383 701 1360 c 128,-1,33
 739 1337 739 1337 760 1299 c 128,-1,34
 781 1261 781 1261 781 1204 c 2,35,-1
 781 759 l 2,36,37
 781 741 781 741 798 732.5 c 128,-1,38
 815 724 815 724 836 721 c 128,-1,39
 857 718 857 718 874 718 c 128,-1,40
 891 718 891 718 891 717 c 2,41,-1
 891 660 l 1,42,43
 876 655 876 655 855.5 648.5 c 128,-1,44
 835 642 835 642 812.5 636 c 128,-1,45
 790 630 790 630 767 626 c 128,-1,46
 744 622 744 622 723 622 c 0,47,48
 673 622 673 622 641.5 647.5 c 128,-1,49
 610 673 610 673 610 726 c 1,50,51
 576 698 576 698 551.5 678.5 c 128,-1,52
 527 659 527 659 504.5 646.5 c 128,-1,53
 482 634 482 634 456 628 c 128,-1,54
 430 622 430 622 393 622 c 0,0,1
471 744 m 0,55,56
 510 744 510 744 541.5 762 c 128,-1,57
 573 780 573 780 602 808 c 1,58,-1
 602 1035 l 1,59,60
 598 1032 598 1032 577 1026.5 c 128,-1,61
 556 1021 556 1021 526.5 1011.5 c 128,-1,62
 497 1002 497 1002 464 988.5 c 128,-1,63
 431 975 431 975 403 956 c 128,-1,64
 375 937 375 937 356.5 912.5 c 128,-1,65
 338 888 338 888 338 857 c 0,66,67
 338 823 338 823 346 801 c 128,-1,68
 354 779 354 779 370.5 766.5 c 128,-1,69
 387 754 387 754 412 749 c 128,-1,70
 437 744 437 744 471 744 c 0,55,56
EndSplineSet
EndChar

StartChar: ordmasculine
Encoding: 186 186 142
Width: 1023
Flags: W
LayerCount: 2
Fore
SplineSet
494 665 m 256,0,1
 415 665 415 665 347.5 688.5 c 128,-1,2
 280 712 280 712 231 757 c 128,-1,3
 182 802 182 802 154.5 867.5 c 128,-1,4
 127 933 127 933 127 1017 c 0,5,6
 127 1107 127 1107 159.5 1180 c 128,-1,7
 192 1253 192 1253 246.5 1304.5 c 128,-1,8
 301 1356 301 1356 371 1384 c 128,-1,9
 441 1412 441 1412 516 1411 c 1,10,11
 595 1411 595 1411 664 1388 c 128,-1,12
 733 1365 733 1365 784.5 1320 c 128,-1,13
 836 1275 836 1275 865.5 1210 c 128,-1,14
 895 1145 895 1145 895 1061 c 0,15,16
 895 971 895 971 862 898 c 128,-1,17
 829 825 829 825 774 773.5 c 128,-1,18
 719 722 719 722 646 693.5 c 128,-1,19
 573 665 573 665 494 665 c 256,0,1
549 764 m 0,20,21
 599 767 599 767 632 788.5 c 128,-1,22
 665 810 665 810 684 845.5 c 128,-1,23
 703 881 703 881 710.5 927.5 c 128,-1,24
 718 974 718 974 718 1027 c 0,25,26
 718 1084 718 1084 706.5 1138.5 c 128,-1,27
 695 1193 695 1193 667 1235 c 128,-1,28
 639 1277 639 1277 592 1301 c 128,-1,29
 545 1325 545 1325 473 1321 c 0,30,31
 423 1318 423 1318 390 1295.5 c 128,-1,32
 357 1273 357 1273 338 1236 c 128,-1,33
 319 1199 319 1199 311.5 1151 c 128,-1,34
 304 1103 304 1103 304 1051 c 0,35,36
 304 994 304 994 315.5 940.5 c 128,-1,37
 327 887 327 887 355 846.5 c 128,-1,38
 383 806 383 806 430 783 c 128,-1,39
 477 760 477 760 549 764 c 0,20,21
EndSplineSet
EndChar

StartChar: Omega
Encoding: 8486 8486 143
Width: 1627
Flags: W
LayerCount: 2
Fore
SplineSet
104 388 m 1,0,-1
 195 392 l 1,1,2
 203 335 203 335 214.5 292.5 c 128,-1,3
 226 250 226 250 248.5 221.5 c 128,-1,4
 271 193 271 193 309 179 c 128,-1,5
 347 165 347 165 409 165 c 2,6,-1
 605 165 l 1,7,-1
 605 275 l 1,8,9
 513 309 513 309 434.5 379.5 c 128,-1,10
 356 450 356 450 297.5 542 c 128,-1,11
 239 634 239 634 206 741 c 128,-1,12
 173 848 173 848 173 955 c 0,13,14
 173 1069 173 1069 211.5 1176 c 128,-1,15
 250 1283 250 1283 332 1366.5 c 128,-1,16
 414 1450 414 1450 540.5 1500 c 128,-1,17
 667 1550 667 1550 843 1550 c 0,18,19
 963 1550 963 1550 1058.5 1527 c 128,-1,20
 1154 1504 1154 1504 1227 1463 c 128,-1,21
 1300 1422 1300 1422 1351.5 1366 c 128,-1,22
 1403 1310 1403 1310 1435.5 1243.5 c 128,-1,23
 1468 1177 1468 1177 1483 1103.5 c 128,-1,24
 1498 1030 1498 1030 1498 955 c 0,25,26
 1498 876 1498 876 1479.5 801.5 c 128,-1,27
 1461 727 1461 727 1429.5 658.5 c 128,-1,28
 1398 590 1398 590 1355 529.5 c 128,-1,29
 1312 469 1312 469 1262.5 419.5 c 128,-1,30
 1213 370 1213 370 1159.5 333 c 128,-1,31
 1106 296 1106 296 1054 275 c 1,32,-1
 1052 165 l 1,33,-1
 1226 165 l 2,34,35
 1322 165 1322 165 1383 220 c 128,-1,36
 1444 275 1444 275 1449 388 c 1,37,-1
 1542 388 l 1,38,-1
 1499 0 l 1,39,-1
 941 0 l 1,40,-1
 941 353 l 1,41,42
 1004 370 1004 370 1053.5 408 c 128,-1,43
 1103 446 1103 446 1140.5 497 c 128,-1,44
 1178 548 1178 548 1203.5 610 c 128,-1,45
 1229 672 1229 672 1245 737 c 128,-1,46
 1261 802 1261 802 1268 867 c 128,-1,47
 1275 932 1275 932 1275 991 c 0,48,49
 1275 1032 1275 1032 1267 1081 c 128,-1,50
 1259 1130 1259 1130 1239.5 1179 c 128,-1,51
 1220 1228 1220 1228 1187.5 1273.5 c 128,-1,52
 1155 1319 1155 1319 1106.5 1354.5 c 128,-1,53
 1058 1390 1058 1390 990.5 1411 c 128,-1,54
 923 1432 923 1432 835 1432 c 0,55,56
 746 1432 746 1432 678 1411 c 128,-1,57
 610 1390 610 1390 560.5 1354.5 c 128,-1,58
 511 1319 511 1319 478 1273.5 c 128,-1,59
 445 1228 445 1228 425.5 1179 c 128,-1,60
 406 1130 406 1130 398 1081 c 128,-1,61
 390 1032 390 1032 390 991 c 0,62,63
 390 933 390 933 394 872 c 128,-1,64
 398 811 398 811 410.5 750.5 c 128,-1,65
 423 690 423 690 445 632.5 c 128,-1,66
 467 575 467 575 503.5 523.5 c 128,-1,67
 540 472 540 472 593 428.5 c 128,-1,68
 646 385 646 385 719 353 c 1,69,-1
 714 0 l 1,70,-1
 163 0 l 1,71,-1
 104 388 l 1,0,-1
EndSplineSet
EndChar

